<?xml version="1.0" encoding="UTF-8"?>
<svg width="64px" height="64px" viewBox="0 0 64 64" version="1.1" xmlns="http://www.w3.org/2000/svg" xmlns:xlink="http://www.w3.org/1999/xlink">
    <!-- Generator: Sketch 49 (51002) - http://www.bohemiancoding.com/sketch -->
    <title>Group 15</title>
    <desc>Created with Sketch.</desc>
    <defs></defs>
    <g id="Page-1" stroke="none" stroke-width="1" fill="none" fill-rule="evenodd">
        <g id="Above-the-fold---onstage" transform="translate(-299.000000, -647.000000)">
            <g id="Group-15" transform="translate(299.000000, 647.000000)">
                <g id="Group-13">
                    <rect id="Rectangle-2-Copy" fill="#F9F9F9" x="0" y="0" width="64" height="64"></rect>
                    <path d="M47.823166,7.03276349 C43.3144473,7.03276349 39.6464316,10.6999834 39.6464316,15.2076017 C39.6464316,15.9384564 39.744248,16.6467054 39.9251387,17.3213942 L19.900666,26.3554523 C18.4232598,24.2244315 15.9611152,22.8251618 13.1770332,22.8251618 C8.66811523,22.8251618 5,26.4923817 5,31 C5,35.5076183 8.66811523,39.1748382 13.176834,39.1748382 C15.9615137,39.1748382 18.4242559,37.7748714 19.9015625,35.6430539 L33.6103027,41.8224066 C33.7458711,41.8835519 33.8876152,41.9124315 34.0272676,41.9124315 C34.4145488,41.9124315 34.784498,41.6897593 34.9540332,41.3140249 C35.1846289,40.8026556 34.9569219,40.2011618 34.4454277,39.9706224 L20.844166,33.8398672 C21.1732754,32.9547552 21.3537676,31.9982407 21.3537676,31.0000996 C21.3537676,30.001361 21.1729766,29.044249 20.8435684,28.1588382 L40.6935254,19.2035519 C42.096125,21.6950705 44.765457,23.3827386 47.8230664,23.3827386 C52.3317852,23.3827386 55.9999004,19.7155187 55.9999004,15.2079004 C55.9999004,10.700083 52.3318848,7.03276349 47.823166,7.03276349 Z M18.9850566,33.0018589 L16.9848008,32.1002158 C17.0860039,31.7506722 17.1413867,31.3818091 17.1413867,31 C17.1413867,28.8144066 15.3628613,27.0365145 13.176834,27.0365145 C10.990707,27.0365145 9.21238086,28.8146058 9.21238086,31 C9.21238086,33.1853942 10.9909063,34.9634855 13.176834,34.9634855 C14.2438496,34.9634855 15.2130488,34.5391535 15.9264512,33.8513195 L18.0079883,34.78961 C16.8820039,36.2213444 15.135752,37.1435021 13.1769336,37.1435021 C9.78862109,37.1435021 7.03193164,34.3874855 7.03193164,31 C7.03193164,27.6125145 9.78852148,24.8564979 13.1769336,24.8564979 C16.5652461,24.8564979 19.3219355,27.6124149 19.3219355,31 C19.3218359,31.7007801 19.2023047,32.3737759 18.9850566,33.0018589 Z M15.1095547,31 C15.1095547,32.0654606 14.2425547,32.9321494 13.176834,32.9321494 C12.1111133,32.9321494 11.2442129,32.065361 11.2442129,31 C11.2442129,29.934639 12.1112129,29.0678506 13.176834,29.0678506 C14.2424551,29.0678506 15.1095547,29.9345394 15.1095547,31 Z M47.823166,21.3512033 C45.5886289,21.3512033 43.6293125,20.1521992 42.5537305,18.3641494 L44.5621543,17.4580249 C45.2782461,18.4921162 46.4726621,19.1712863 47.823166,19.1712863 C50.0093926,19.1712863 51.7877187,17.393195 51.7877187,15.2078008 C51.7877187,13.0224066 50.0091934,11.2443154 47.823166,11.2443154 C45.6371387,11.2443154 43.8587129,13.0224066 43.8587129,15.2078008 C43.8587129,15.319834 43.8644902,15.430473 43.8736543,15.5401162 L41.8095488,16.4713361 C41.7238848,16.0633361 41.6781641,15.6407967 41.6781641,15.2077012 C41.6781641,11.8202158 44.4347539,9.06419917 47.8230664,9.06419917 C51.2114785,9.06419917 53.968168,11.8202158 53.968168,15.2077012 C53.968168,18.5951867 51.2114785,21.3512033 47.823166,21.3512033 Z M45.8904453,15.2077012 C45.8904453,14.1422407 46.7574453,13.2755519 47.8230664,13.2755519 C48.8887871,13.2755519 49.7557871,14.1423402 49.7557871,15.2077012 C49.7557871,16.2730622 48.8887871,17.1398506 47.8230664,17.1398506 C46.7574453,17.1399502 45.8904453,16.2731618 45.8904453,15.2077012 Z" id="Shape" fill="#2E2E2E" fill-rule="nonzero"></path>
                    <path d="M38.1318711,41.6337925 L37.6051367,41.3961826 C37.0932441,41.1656432 36.492002,41.3929959 36.2611074,41.9042656 C36.0304121,42.4155353 36.2578203,43.0171286 36.7693145,43.2478672 L37.2960488,43.4854772 C37.4318164,43.5466224 37.5735605,43.5756017 37.7133125,43.5756017 C38.1004941,43.5756017 38.4703437,43.3531286 38.6399785,42.9773942 C38.870873,42.4660249 38.6433652,41.8644315 38.1318711,41.6337925 Z" id="Shape" fill="#2E2E2E" fill-rule="nonzero"></path>
                    <path d="M47.823166,38.6174606 C43.3144473,38.6174606 39.6464316,42.2846805 39.6464316,46.7922988 C39.6464316,51.299917 43.3144473,54.9671369 47.823166,54.9671369 C52.3318848,54.9671369 56,51.299917 56,46.7922988 C56,42.2846805 52.3318848,38.6174606 47.823166,38.6174606 Z M47.823166,52.9358008 C44.4348535,52.9358008 41.6782637,50.1797842 41.6782637,46.7922988 C41.6782637,43.4048133 44.4348535,40.6487967 47.823166,40.6487967 C51.2115781,40.6487967 53.968168,43.4047137 53.968168,46.7922988 C53.968168,50.1798838 51.2114785,52.9358008 47.823166,52.9358008 Z" id="Shape" fill="#2E2E2E" fill-rule="nonzero"></path>
                    <path d="M47.823166,42.8287137 C45.6370391,42.8287137 43.8587129,44.606805 43.8587129,46.7921992 C43.8587129,48.9775934 45.6372383,50.7556846 47.823166,50.7556846 C50.0093926,50.7556846 51.7877187,48.9775934 51.7877187,46.7921992 C51.7877187,44.606805 50.0091934,42.8287137 47.823166,42.8287137 Z M47.823166,48.7244481 C46.7575449,48.7244481 45.8905449,47.8576598 45.8905449,46.7922988 C45.8905449,45.7269378 46.7575449,44.8601494 47.823166,44.8601494 C48.8888867,44.8601494 49.7558867,45.7269378 49.7558867,46.7922988 C49.7558867,47.8576598 48.8888867,48.7244481 47.823166,48.7244481 Z" id="Shape" fill="#2E2E2E" fill-rule="nonzero"></path>
                </g>
                <g id="Group-10" transform="translate(5.000000, 7.000000)"></g>
            </g>
        </g>
    </g>
</svg>