<?xml version="1.0" encoding="UTF-8"?>
<svg width="64px" height="64px" viewBox="0 0 64 64" version="1.1" xmlns="http://www.w3.org/2000/svg" xmlns:xlink="http://www.w3.org/1999/xlink">
    <!-- Generator: Sketch 49 (51002) - http://www.bohemiancoding.com/sketch -->
    <title>Group 12</title>
    <desc>Created with Sketch.</desc>
    <defs></defs>
    <g id="Page-1" stroke="none" stroke-width="1" fill="none" fill-rule="evenodd">
        <g id="Above-the-fold---onstage" transform="translate(-229.000000, -647.000000)">
            <g id="Group-12" transform="translate(229.000000, 647.000000)">
                <rect id="Rectangle-2" fill="#F9F9F9" x="0" y="0" width="64" height="64"></rect>
                <path d="M32.5,7 C18.9907,7 8,17.9907 8,31.5 C8,45.0093 18.9907,56 32.5,56 C46.0093,56 57,45.0093 57,31.5 C57,17.9907 46.0093,7 32.5,7 Z M32.5,54.3666667 C19.8914833,54.3666667 9.63333333,44.1085167 9.63333333,31.5 C9.63333333,18.8914833 19.8914833,8.63333333 32.5,8.63333333 C45.1085167,8.63333333 55.3666667,18.8914833 55.3666667,31.5 C55.3666667,44.1085167 45.1085167,54.3666667 32.5,54.3666667 Z" id="Shape" stroke="#2E2E2E" stroke-width="0.3" fill="#2E2E2E" fill-rule="nonzero"></path>
                <path d="M33.3166667,28.2504833 L33.3166667,19.96785 C33.3166667,19.5162333 32.9508,19.1511833 32.5,19.1511833 C32.0492,19.1511833 31.6833333,19.5162333 31.6833333,19.96785 L31.6833333,28.2504833 C30.5408167,28.54775 29.6465667,29.442 29.3493,30.5845167 L23.5166667,30.5845167 C23.0658667,30.5845167 22.7,30.9495667 22.7,31.4011833 C22.7,31.8528 23.0658667,32.21785 23.5166667,32.21785 L29.3493,32.21785 C29.71435,33.6225167 30.9826333,34.66785 32.5,34.66785 C34.3015667,34.66785 35.7666667,33.20275 35.7666667,31.4011833 C35.7666667,29.883 34.7213333,28.6155333 33.3166667,28.2504833 Z M32.5,33.0345167 C31.5992167,33.0345167 30.8666667,32.3019667 30.8666667,31.4011833 C30.8666667,30.5004 31.5992167,29.76785 32.5,29.76785 C33.4007833,29.76785 34.1333333,30.5004 34.1333333,31.4011833 C34.1333333,32.3019667 33.4007833,33.0345167 32.5,33.0345167 Z" id="Shape" stroke="#2E2E2E" stroke-width="0.3" fill="#2E2E2E" fill-rule="nonzero"></path>
                <path d="M32.80625,15.68035 C33.4261,15.68035 33.9291667,15.2240375 33.9291667,14.6595167 L33.9291667,13.6386833 C33.9291667,13.0741625 33.4261,12.61785 32.80625,12.61785 C32.1864,12.61785 31.6833333,13.0741625 31.6833333,13.6386833 L31.6833333,14.6595167 C31.6833333,15.2240375 32.1864,15.68035 32.80625,15.68035 Z" id="Shape" stroke="#2E2E2E" stroke-width="0.3" fill="#2E2E2E" fill-rule="nonzero"></path>
                <path d="M32.80625,47.7345167 C32.1864,47.7345167 31.6833333,48.1908292 31.6833333,48.75535 L31.6833333,49.7761833 C31.6833333,50.3407042 32.1864,50.7970167 32.80625,50.7970167 C33.4261,50.7970167 33.9291667,50.3407042 33.9291667,49.7761833 L33.9291667,48.75535 C33.9291667,48.1908292 33.4261,47.7345167 32.80625,47.7345167 Z" id="Shape" stroke="#2E2E2E" stroke-width="0.3" fill="#2E2E2E" fill-rule="nonzero"></path>
                <path d="M50.875,30.5845167 L49.8541667,30.5845167 C49.2906667,30.5845167 48.8333333,31.0864604 48.8333333,31.7074333 C48.8333333,32.3284063 49.2906667,32.83035 49.8541667,32.83035 L50.875,32.83035 C51.4385,32.83035 51.8958333,32.3284063 51.8958333,31.7074333 C51.8958333,31.0864604 51.4385,30.5845167 50.875,30.5845167 Z" id="Shape" stroke="#2E2E2E" stroke-width="0.3" fill="#2E2E2E" fill-rule="nonzero"></path>
                <path d="M15.7583333,30.5845167 L14.7375,30.5845167 C14.174,30.5845167 13.7166667,31.0864604 13.7166667,31.7074333 C13.7166667,32.3284063 14.174,32.83035 14.7375,32.83035 L15.7583333,32.83035 C16.3218333,32.83035 16.7791667,32.3284063 16.7791667,31.7074333 C16.7791667,31.0864604 16.3218333,30.5845167 15.7583333,30.5845167 Z" id="Shape" stroke="#2E2E2E" stroke-width="0.3" fill="#2E2E2E" fill-rule="nonzero"></path>
                <path d="M44.9330099,18.2086097 L44.1391078,19.0025118 C43.7000474,19.4415722 43.7000474,20.1512555 44.1391078,20.5903159 C44.3580766,20.8092847 44.6455432,20.9193305 44.9330099,20.9193305 C45.2204766,20.9193305 45.5079432,20.8092847 45.726912,20.5903159 L46.5208141,19.7964138 C46.9598745,19.3573534 46.9598745,18.6476701 46.5208141,18.2086097 C46.0817536,17.7695493 45.3720703,17.7706722 44.9330099,18.2086097 Z" id="Shape" stroke="#2E2E2E" stroke-width="0.3" fill="#2E2E2E" fill-rule="nonzero"></path>
                <path d="M20.1022599,43.0401763 L19.3083578,43.8340784 C18.8692974,44.2731388 18.8692974,44.9828222 19.3083578,45.4218826 C19.5273266,45.6408513 19.8147932,45.7508972 20.1022599,45.7508972 C20.3897266,45.7508972 20.6771932,45.6408513 20.896162,45.4218826 L21.6900641,44.6279805 C22.1291245,44.1889201 22.1291245,43.4792368 21.6900641,43.0401763 C21.2510036,42.6011159 20.5401974,42.6022388 20.1022599,43.0401763 Z" id="Shape" stroke="#2E2E2E" stroke-width="0.3" fill="#2E2E2E" fill-rule="nonzero"></path>
                <path d="M45.726912,43.0402911 C45.2878516,42.6012307 44.5781682,42.6012307 44.1391078,43.0402911 C43.7000474,43.4793516 43.7000474,44.1890349 44.1391078,44.6280953 L44.9330099,45.4219974 C45.1519786,45.6409661 45.4394453,45.751012 45.726912,45.751012 C46.0143786,45.751012 46.3018453,45.6409661 46.5208141,45.4219974 C46.9598745,44.982937 46.9598745,44.2732536 46.5208141,43.8341932 L45.726912,43.0402911 Z" id="Shape" stroke="#2E2E2E" stroke-width="0.3" fill="#2E2E2E" fill-rule="nonzero"></path>
                <path d="M20.896162,18.2087245 C20.4571016,17.7696641 19.7474182,17.7696641 19.3083578,18.2087245 C18.8692974,18.6477849 18.8692974,19.3574682 19.3083578,19.7965286 L20.1022599,20.5904307 C20.3212286,20.8093995 20.6086953,20.9194453 20.896162,20.9194453 C21.1836286,20.9194453 21.4710953,20.8093995 21.6900641,20.5904307 C22.1291245,20.1513703 22.1291245,19.441687 21.6900641,19.0026266 L20.896162,18.2087245 Z" id="Shape" stroke="#2E2E2E" stroke-width="0.3" fill="#2E2E2E" fill-rule="nonzero"></path>
            </g>
        </g>
    </g>
</svg>