<?xml version="1.0" encoding="UTF-8"?>
<svg width="64px" height="64px" viewBox="0 0 64 64" version="1.1" xmlns="http://www.w3.org/2000/svg" xmlns:xlink="http://www.w3.org/1999/xlink">
    <!-- Generator: Sketch 49 (51002) - http://www.bohemiancoding.com/sketch -->
    <title>Group 14</title>
    <desc>Created with Sketch.</desc>
    <defs></defs>
    <g id="Page-1" stroke="none" stroke-width="1" fill="none" fill-rule="evenodd">
        <g id="Above-the-fold---onstage" transform="translate(-369.000000, -647.000000)">
            <g id="Group-14" transform="translate(369.000000, 647.000000)">
                <rect id="Rectangle-2-Copy-2" fill="#F9F9F9" x="0" y="0" width="64" height="64"></rect>
                <path d="M32.4946211,12.0745838 C29.2006387,12.0745838 26.5208477,14.7182312 26.5208477,17.9676879 C26.5208477,21.2172428 29.2006387,23.8608902 32.4946211,23.8608902 C35.7885039,23.8608902 38.4682949,21.2172428 38.4682949,17.9676879 C38.4682949,14.7182312 35.7885039,12.0745838 32.4946211,12.0745838 Z M32.4946211,21.8564624 C30.3210449,21.8564624 28.5526797,20.111948 28.5526797,17.9676879 C28.5526797,15.8234277 30.3210449,14.0790116 32.4946211,14.0790116 C34.6681973,14.0790116 36.4364629,15.823526 36.4364629,17.9676879 C36.4364629,20.111948 34.6681973,21.8564624 32.4946211,21.8564624 Z" id="Shape" fill="#2E2E2E" fill-rule="nonzero"></path>
                <path d="M18.1924082,18.0724393 C15.4855234,18.0724393 13.2833594,20.2449017 13.2833594,22.9152775 C13.2833594,25.5856532 15.4855234,27.7581156 18.1924082,27.7581156 C20.899293,27.7581156 23.101457,25.5856532 23.101457,22.9152775 C23.101457,20.2449017 20.8991934,18.0724393 18.1924082,18.0724393 Z M18.1924082,25.7535896 C16.6059297,25.7535896 15.315291,24.4803584 15.315291,22.9152775 C15.315291,21.3501965 16.6059297,20.0769653 18.1924082,20.0769653 C19.7788867,20.0769653 21.0695254,21.3502948 21.0695254,22.9152775 C21.0695254,24.4802601 19.7788867,25.7535896 18.1924082,25.7535896 Z" id="Shape" fill="#2E2E2E" fill-rule="nonzero"></path>
                <path d="M46.8112773,18.0724393 C44.1044922,18.0724393 41.9022285,20.2449017 41.9022285,22.9152775 C41.9022285,25.5856532 44.1044922,27.7581156 46.8112773,27.7581156 C49.5181621,27.7581156 51.7202266,25.5856532 51.7202266,22.9152775 C51.7202266,20.2449017 49.5180625,18.0724393 46.8112773,18.0724393 Z M46.8112773,25.7535896 C45.2247988,25.7535896 43.9341602,24.4803584 43.9341602,22.9152775 C43.9341602,21.3501965 45.2247988,20.0769653 46.8112773,20.0769653 C48.3976563,20.0769653 49.6882949,21.3502948 49.6882949,22.9152775 C49.6882949,24.4802601 48.3976563,25.7535896 46.8112773,25.7535896 Z" id="Shape" fill="#2E2E2E" fill-rule="nonzero"></path>
                <path d="M56.984084,43.9209884 L54.1275859,43.9209884 L54.1275859,36.5419075 C54.1275859,32.5621387 50.845457,29.3242775 46.8111777,29.3242775 C44.5677754,29.3242775 42.5580566,30.3263931 41.2150234,31.8997283 C40.1670332,28.1191445 36.6548066,25.3320289 32.4946211,25.3320289 C28.3380215,25.3320289 24.829082,28.1209133 23.7836816,31.9034624 C22.442541,30.3279653 20.4342168,29.3242775 18.1924082,29.3242775 C14.1582285,29.3242775 10.876,32.5621387 10.876,36.5419075 L10.876,43.9209884 L8.01591602,43.9209884 C7.45481641,43.9209884 7,44.3696705 7,44.9232023 C7,45.4767341 7.45481641,45.9254162 8.01591602,45.9254162 L56.984084,45.9254162 C57.545084,45.9254162 58,45.4767341 58,44.9232023 C58,44.3696705 57.545084,43.9209884 56.984084,43.9209884 Z M23.4660273,43.9209884 L12.907832,43.9209884 L12.907832,36.5419075 C12.907832,33.6674335 15.2784355,31.3288035 18.1923086,31.3288035 C21.1002051,31.3288035 23.4659277,33.6674335 23.4659277,36.5419075 L23.4660273,43.9209884 Z M39.4950684,43.9209884 L25.4978594,43.9209884 L25.4978594,34.2495607 C25.4978594,30.4376301 28.6365508,27.3364566 32.4946211,27.3364566 C36.358668,27.3364566 39.5022402,30.4376301 39.5022402,34.2495607 L39.4950684,43.9209884 Z M52.0956543,43.9208902 L41.5340723,43.9208902 L41.5340723,36.2694162 C41.678207,33.5210173 43.9901406,31.3287052 46.8112773,31.3287052 C49.7250508,31.3287052 52.0956543,33.6673353 52.0956543,36.5418092 L52.0956543,43.9208902 Z" id="Shape" fill="#2E2E2E" fill-rule="nonzero"></path>
            </g>
        </g>
    </g>
</svg>