<?xml version="1.0" encoding="UTF-8"?>
<svg width="105px" height="25px" viewBox="0 0 105 25" version="1.1" xmlns="http://www.w3.org/2000/svg" xmlns:xlink="http://www.w3.org/1999/xlink">
    <!-- Generator: Sketch 49 (51002) - http://www.bohemiancoding.com/sketch -->
    <title>logo</title>
    <desc>Created with Sketch.</desc>
    <defs></defs>
    <g id="Page-1" stroke="none" stroke-width="1" fill="none" fill-rule="evenodd">
        <g id="logo" fill-rule="nonzero">
            <polygon id="Line" fill="#7161EF" points="0.274065664 24.7110194 0.274065664 22.2804274 104.789525 22.2804274 104.789525 24.7110194"></polygon>
            <path d="M1.4893617,10.8450185 C1.4893617,8.6469384 2.09324778,6.84626553 3.30103804,5.44294582 C4.50882831,4.03962611 6.17787137,3.33797679 8.3082173,3.33797679 C10.4474768,3.33797679 12.1209766,4.0373554 13.3287669,5.43613362 C14.5365571,6.83491184 15.1404432,8.63785542 15.1404432,10.8450185 L15.1404432,11.1311308 C15.1404432,13.3473768 14.5365571,15.1525911 13.3287669,16.5468278 C12.1209766,17.9410645 10.4563903,18.6381724 8.33495791,18.6381724 C6.18678482,18.6381724 4.50882831,17.9410645 3.30103804,16.5468278 C2.09324778,15.1525911 1.4893617,13.3473768 1.4893617,11.1311308 L1.4893617,10.8450185 Z M5.39349079,11.1311308 C5.39349079,12.4754111 5.62524043,13.5539983 6.08874665,14.3669246 C6.55225288,15.1798509 7.30098248,15.5863079 8.33495791,15.5863079 C9.3421926,15.5863079 10.0797804,15.1775802 10.5477434,14.3601124 C11.0157064,13.5426446 11.2496844,12.4663281 11.2496844,11.1311308 L11.2496844,10.8450185 C11.2496844,9.53706999 11.0134781,8.46983639 10.5410583,7.64328562 C10.0686384,6.81673486 9.32436557,6.40346567 8.3082173,6.40346567 C7.29206903,6.40346567 6.55225288,6.81673486 6.08874665,7.64328562 C5.62524043,8.46983639 5.39349079,9.53706999 5.39349079,10.8450185 L5.39349079,11.1311308 Z M16.6245471,15.967791 L18.4963898,15.5590591 L18.4963898,6.41709007 L16.4239925,6.00835822 L16.4239925,3.61046469 L22.1331128,3.61046469 L22.3069267,5.72224592 C22.7882601,4.96835896 23.3810044,4.38251583 24.0851773,3.96469896 C24.7893502,3.54688209 25.5781903,3.33797679 26.4517213,3.33797679 C27.9135486,3.33797679 29.0544699,3.80574301 29.8745194,4.74128948 C30.6945689,5.67683595 31.1045875,7.14371448 31.1045875,9.14196908 L31.1045875,15.5590591 L32.9764302,15.967791 L32.9764302,18.3520601 L25.5158,18.3520601 L25.5158,15.967791 L27.1870881,15.5590591 L27.1870881,9.15559347 C27.1870881,8.16554915 26.9909922,7.46389982 26.5987947,7.05062444 C26.2065971,6.63734905 25.6138528,6.43071446 24.8205441,6.43071446 C24.3035564,6.43071446 23.8400571,6.53743782 23.4300324,6.75088775 C23.0200076,6.96433767 22.6768399,7.26634207 22.4005189,7.65691002 L22.4005189,15.5590591 L23.9782149,15.967791 L23.9782149,18.3520601 L16.6245471,18.3520601 L16.6245471,15.967791 Z M46.025848,8.67873964 L43.4052682,8.67873964 L42.9907887,6.83944631 C42.7233813,6.6214549 42.3868986,6.43979812 41.9813307,6.29447051 C41.5757627,6.1491429 41.127862,6.07648019 40.637615,6.07648019 C39.9512693,6.07648019 39.407549,6.23315917 39.0064378,6.54652182 C38.6053266,6.85988447 38.4047741,7.25271727 38.4047741,7.72503199 C38.4047741,8.17009779 38.5964132,8.54022349 38.9796972,8.83542019 C39.3629812,9.13061689 40.1295377,9.39174852 41.2793897,9.6188229 C43.0710195,9.98214192 44.3991232,10.5157587 45.2637406,11.2196893 C46.128358,11.9236199 46.5606602,12.893213 46.5606602,14.1284977 C46.5606602,15.4546121 46.0013413,16.5377407 44.8826869,17.3779159 C43.7640324,18.2180911 42.2910852,18.6381724 40.4638011,18.6381724 C39.3496034,18.6381724 38.3267853,18.4724106 37.395316,18.140882 C36.4638468,17.8093534 35.6371245,17.3347751 34.9151244,16.7171327 L34.8750135,13.4064047 L37.6025558,13.4064047 L38.137368,15.3274444 C38.3691211,15.5272699 38.6855485,15.674866 39.0866596,15.7702373 C39.4877708,15.8656085 39.9067028,15.9132934 40.3434683,15.9132934 C41.136777,15.9132934 41.7406631,15.767968 42.1551446,15.4773128 C42.5696262,15.1866576 42.7768638,14.7915541 42.7768638,14.2919904 C42.7768638,13.8560076 42.5673978,13.4790698 42.1484595,13.1611656 C41.7295212,12.8432615 40.958508,12.5616935 39.8353967,12.3164531 C38.1329027,11.9622171 36.8471379,11.4376831 35.9780637,10.7428355 C35.1089895,10.0479879 34.6744589,9.10110189 34.6744589,7.90214913 C34.6744589,6.66686447 35.173612,5.60190157 36.1719331,4.70722849 C37.1702542,3.81255541 38.5919491,3.36522558 40.4370604,3.36522558 C41.5601717,3.36522558 42.6231003,3.51963384 43.6258782,3.82845501 C44.6286561,4.13727617 45.4152679,4.53237968 45.9857371,5.01377738 L46.025848,8.67873964 Z M54.0747716,0 L54.0747716,3.61046469 L56.6151296,3.61046469 L56.6151296,6.40346567 L54.0747716,6.40346567 L54.0747716,13.9105073 C54.0747716,14.4827348 54.1906465,14.8914626 54.4223996,15.1367029 C54.6541527,15.3819432 54.9661234,15.5045616 55.3583209,15.5045616 C55.6257284,15.5045616 55.8597064,15.493208 56.0602619,15.4705006 C56.2608175,15.4477931 56.4858821,15.4091911 56.7354624,15.3546932 L57.06972,18.2294406 C56.6329545,18.3656852 56.2006523,18.4678671 55.7728004,18.5359895 C55.3449485,18.6041118 54.8814492,18.6381724 54.3822887,18.6381724 C53.0363379,18.6381724 52.0001496,18.2612346 51.2736927,17.5073476 C50.5472358,16.7534607 50.1840129,15.5590673 50.1840129,13.9241317 L50.1840129,6.40346567 L48.0581343,6.40346567 L48.0581343,3.61046469 L50.1840129,3.61046469 L50.1840129,0 L54.0747716,0 Z M67.7392235,18.3520601 C67.6322605,18.1068198 67.5386693,17.854771 67.458447,17.5959062 C67.3782248,17.3370414 67.3158307,17.0759098 67.2712628,16.8125035 C66.8077565,17.357482 66.243981,17.7979997 65.5799192,18.1340698 C64.9158574,18.4701399 64.155986,18.6381724 63.3002822,18.6381724 C61.8830227,18.6381724 60.7577,18.2453396 59.9242801,17.4596623 C59.0908603,16.6739849 58.6741566,15.6044806 58.6741566,14.2511172 C58.6741566,12.870505 59.2178769,11.8032713 60.3053338,11.0493844 C61.3927907,10.2954974 62.9882979,9.91855959 65.091903,9.91855959 L67.0840785,9.91855959 L67.0840785,8.47437372 C67.0840785,7.76590163 66.8835259,7.21638986 66.4824148,6.82582192 C66.0813036,6.43525397 65.4885593,6.23997293 64.7041642,6.23997293 C64.2584851,6.23997293 63.8618367,6.29219926 63.514207,6.39665347 C63.1665774,6.50110769 62.8858038,6.62599673 62.6718778,6.77132434 L62.417842,8.35175416 L59.4763749,8.35175416 L59.4897452,5.08189935 C60.2028317,4.59141868 61.0206405,4.17814949 61.9431962,3.8420794 C62.8657519,3.50600931 63.8707431,3.33797679 64.9582,3.33797679 C66.7498298,3.33797679 68.2049502,3.78530662 69.3236046,4.6799797 C70.4422591,5.57465278 71.0015779,6.84852098 71.0015779,8.50162251 L71.0015779,14.5917271 C71.0015779,14.8188015 71.0038063,15.0322482 71.008263,15.2320737 C71.0127198,15.4318991 71.0283184,15.6226387 71.0550591,15.8042983 L72.2450163,15.967791 L72.2450163,18.3520601 L67.7392235,18.3520601 Z M64.3565363,15.6953031 C64.9448326,15.6953031 65.4796395,15.5658726 65.9609729,15.3070078 C66.4423063,15.048143 66.8166711,14.7234315 67.0840785,14.3328636 L67.0840785,12.0848384 L65.091903,12.0848384 C64.26294,12.0848384 63.6345419,12.2823902 63.20669,12.6774996 C62.7788381,13.072609 62.5649154,13.5471874 62.5649154,14.1012489 C62.5649154,14.6008125 62.7231291,14.9913746 63.0395612,15.2729468 C63.3559933,15.5545191 63.7949806,15.6953031 64.3565363,15.6953031 Z M73.809342,11.103882 C73.809342,8.77864025 74.3062667,6.90303395 75.300131,5.47700681 C76.2939953,4.05097966 77.6867215,3.33797679 79.4783513,3.33797679 C80.2894872,3.33797679 81.002563,3.52190428 81.6176001,3.88976479 C82.2326372,4.25762529 82.7585307,4.78215926 83.1952961,5.46338241 L83.4760725,3.61046469 L86.87213,3.61046469 L86.87213,17.9160795 C86.87213,19.8598362 86.2727007,21.410731 85.073824,22.5688104 C83.8749473,23.7268898 82.2281879,24.3059208 80.1334963,24.3059208 C79.4025826,24.3059208 78.6271127,24.2037388 77.8070632,23.9993719 C76.9870137,23.7950049 76.2293707,23.5157076 75.5341113,23.1614716 L76.2561078,20.3684706 C76.8800585,20.6409599 77.5039998,20.8566773 78.1279505,21.0156294 C78.7519012,21.1745814 79.4114963,21.2540563 80.1067557,21.2540563 C81.0605089,21.2540563 81.7735847,20.958864 82.2460045,20.3684706 C82.7184243,19.7780772 82.9546306,18.9560802 82.9546306,17.9024551 L82.9546306,16.935123 C82.5267787,17.4891845 82.023169,17.9115366 81.4437862,18.2021918 C80.8644034,18.492847 80.2003515,18.6381724 79.4516107,18.6381724 C77.677808,18.6381724 76.2939953,17.9728545 75.300131,16.6421985 C74.3062667,15.3115426 73.809342,13.5608254 73.809342,11.3899943 L73.809342,11.103882 Z M77.7134711,11.3899943 C77.7134711,12.6797768 77.9273938,13.6947841 78.3552457,14.4350466 C78.7830976,15.1753091 79.4783465,15.5454347 80.4410133,15.5454347 C81.0382232,15.5454347 81.5440614,15.43417 81.9585429,15.2116371 C82.3730244,14.9891042 82.7050504,14.6643927 82.9546306,14.2374928 L82.9546306,7.83402715 C82.7050504,7.38896135 82.3730244,7.04381347 81.9585429,6.79857313 C81.5440614,6.55333279 81.0471367,6.43071446 80.4677539,6.43071446 C79.5140007,6.43071446 78.8165234,6.86214932 78.3753012,7.72503199 C77.9340789,8.58791466 77.7134711,9.71418672 77.7134711,11.103882 L77.7134711,11.3899943 Z M96.1377515,18.6381724 C94.0519734,18.6381724 92.3851587,17.9569595 91.1372574,16.5945132 C89.889356,15.2320668 89.2654147,13.501786 89.2654147,11.4036187 L89.2654147,10.8586429 C89.2654147,8.66964577 89.8559306,6.86670219 91.0369801,5.44975802 C92.2180296,4.03281385 93.8023949,3.32889381 95.7901235,3.33797679 C97.7421978,3.33797679 99.2574839,3.93744417 100.336027,5.13639693 C101.414571,6.33534969 101.953834,7.95663649 101.953834,10.000306 L101.953834,12.1665848 L93.3166171,12.1665848 L93.2898765,12.2483311 C93.3611851,13.2202095 93.6798409,14.0194994 94.2458533,14.6462247 C94.8118657,15.27295 95.5806506,15.5863079 96.5522309,15.5863079 C97.4168483,15.5863079 98.1343808,15.4977503 98.7048501,15.3206322 C99.2753193,15.1435142 99.8992606,14.8642169 100.576693,14.4827319 L101.632947,16.935123 C101.035737,17.4165207 100.262495,17.8207071 99.3131989,18.1476942 C98.3639025,18.4746813 97.3054306,18.6381724 96.1377515,18.6381724 Z M95.7901235,6.40346567 C95.0681235,6.40346567 94.4976628,6.68503369 94.0787245,7.24817816 C93.6597862,7.81132264 93.4012962,8.55157404 93.3032468,9.46895456 L93.3433577,9.53707653 L98.1299269,9.53707653 L98.1299269,9.18284226 C98.1299269,8.33812554 97.9360594,7.66372473 97.5483187,7.1596196 C97.1605779,6.65551446 96.5745187,6.40346567 95.7901235,6.40346567 Z" id="onstage" fill="#2E2E2E"></path>
        </g>
    </g>
</svg>