<?xml version="1.0" encoding="UTF-8"?>
<svg width="251px" height="139px" viewBox="0 0 251 139" version="1.1" xmlns="http://www.w3.org/2000/svg" xmlns:xlink="http://www.w3.org/1999/xlink">
    <!-- Generator: Sketch 49 (51002) - http://www.bohemiancoding.com/sketch -->
    <title>step-1</title>
    <desc>Created with Sketch.</desc>
    <defs></defs>
    <g id="Page-1" stroke="none" stroke-width="1" fill="none" fill-rule="evenodd">
        <g id="Artboard" transform="translate(-101.000000, -556.000000)">
            <g id="step-1" transform="translate(81.000000, 536.000000)">
                <path d="M72.7164062,63.8836328 C72.7164062,62.5932748 72.2631881,61.572201 71.3567383,60.8203809 C70.4502884,60.0685607 68.7920433,59.3540757 66.3819531,58.6769043 C63.9718629,57.9997329 62.2123102,57.261254 61.1032422,56.4614453 C59.524953,55.331049 58.7358203,53.8487592 58.7358203,52.0145313 C58.7358203,50.2336239 59.4689673,48.7859919 60.9352832,47.6715918 C62.4015991,46.5571917 64.2757894,46 66.5579102,46 C68.104207,46 69.4878552,46.2985908 70.7088965,46.8957813 C71.9299377,47.4929717 72.8763638,48.3247603 73.5482031,49.3911719 C74.2200424,50.4575835 74.555957,51.6466145 74.555957,52.9583008 L72.5724414,52.9583008 C72.5724414,51.3693475 72.0285797,50.0923388 70.9408398,49.1272363 C69.8531,48.1621338 68.3921381,47.6795898 66.5579102,47.6795898 C64.7770028,47.6795898 63.3586967,48.0768222 62.3029492,48.8712988 C61.2472018,49.6657755 60.7193359,50.7028452 60.7193359,51.9825391 C60.7193359,53.1662559 61.193882,54.1313439 62.1429883,54.877832 C63.0920946,55.6243201 64.6117083,56.2828194 66.701875,56.8533496 C68.7920417,57.4238798 70.3756391,58.0157294 71.4527148,58.628916 C72.5297905,59.2421027 73.3402512,59.9752496 73.8841211,60.8283789 C74.427991,61.6815082 74.6999219,62.689252 74.6999219,63.8516406 C74.6999219,65.6858685 73.9667749,67.1574945 72.500459,68.2665625 C71.0341431,69.3756305 69.1013011,69.9301562 66.701875,69.9301562 C65.0596012,69.9301562 63.5533174,69.6368975 62.1829785,69.0503711 C60.8126396,68.4638447 59.7729039,67.6427201 59.0637402,66.5869727 C58.3545765,65.5312252 58,64.3208662 58,62.9558594 L59.9675195,62.9558594 C59.9675195,64.5981332 60.580697,65.8938038 61.8070703,66.8429102 C63.0334436,67.7920165 64.6650289,68.2665625 66.701875,68.2665625 C68.5147747,68.2665625 69.9704047,67.8666642 71.0688086,67.0668555 C72.1672125,66.2670468 72.7164062,65.2059832 72.7164062,63.8836328 Z M85.1933594,69.9301562 C83.7217114,69.9301562 82.3913829,69.5675818 81.202334,68.8424219 C80.0132851,68.117262 79.0881869,67.1068522 78.4270117,65.8111621 C77.7658365,64.515472 77.4352539,63.0625081 77.4352539,61.4522266 L77.4352539,60.7643945 C77.4352539,59.1007925 77.7578386,57.6025067 78.4030176,56.2694922 C79.0481966,54.9364777 79.9466349,53.888744 81.0983594,53.1262598 C82.2500839,52.3637755 83.4977667,51.9825391 84.8414453,51.9825391 C86.9422761,51.9825391 88.6085192,52.6996901 89.8402246,54.1340137 C91.07193,55.5683372 91.6877734,57.5278391 91.6877734,60.0125781 L91.6877734,61.0843164 L79.3387891,61.0843164 L79.3387891,61.4522266 C79.3387891,63.4144239 79.9013127,65.0486751 81.026377,66.3550293 C82.1514412,67.6613835 83.5670813,68.3145508 85.2733398,68.3145508 C86.297095,68.3145508 87.2008652,68.1279316 87.9846777,67.7546875 C88.7684902,67.3814434 89.4803093,66.7842619 90.1201562,65.963125 L91.3198633,66.8749023 C89.9122,68.9117485 87.8700524,69.9301562 85.1933594,69.9301562 Z M84.8414453,53.6141406 C83.4017897,53.6141406 82.1887647,54.1420064 81.202334,55.1977539 C80.2159033,56.2535014 79.6160558,57.6718075 79.4027734,59.4527148 L89.7842383,59.4527148 L89.7842383,59.2447656 C89.7309177,57.5811636 89.2563717,56.2268412 88.3605859,55.1817578 C87.4648002,54.1366745 86.2917651,53.6141406 84.8414453,53.6141406 Z M98.3901367,47.871543 L98.3901367,52.3024609 L101.973262,52.3024609 L101.973262,53.8700781 L98.3901367,53.8700781 L98.3901367,65.4032617 C98.3901367,66.3630321 98.563426,67.0775172 98.9100098,67.5467383 C99.2565935,68.0159594 99.8351131,68.2505664 100.645586,68.2505664 C100.965509,68.2505664 101.482711,68.1972466 102.197207,68.0906055 L102.277187,69.6582227 C101.775974,69.8395126 101.093481,69.9301562 100.229687,69.9301562 C98.9180013,69.9301562 97.9635772,69.5489198 97.3663867,68.7864355 C96.7691962,68.0239513 96.4706055,66.9015699 96.4706055,65.4192578 L96.4706055,53.8700781 L93.2873828,53.8700781 L93.2873828,52.3024609 L96.4706055,52.3024609 L96.4706055,47.871543 L98.3901367,47.871543 Z M125.039629,67.4187695 C123.887904,69.0930357 122.048372,69.9301562 119.520977,69.9301562 C117.676085,69.9301562 116.273774,69.3942925 115.314004,68.3225488 C114.354233,67.2508052 113.863692,65.6645418 113.842363,63.5637109 L113.842363,52.3024609 L115.745898,52.3024609 L115.745898,63.3237695 C115.745898,66.6189813 117.078893,68.2665625 119.744922,68.2665625 C122.517592,68.2665625 124.271813,67.1201872 125.007637,64.8274023 L125.007637,52.3024609 L126.927168,52.3024609 L126.927168,69.6102344 L125.071621,69.6102344 L125.039629,67.4187695 Z M145.818555,61.1323047 C145.818555,63.830326 145.221373,65.9711151 144.026992,67.5547363 C142.832611,69.1383575 141.233018,69.9301562 139.228164,69.9301562 C136.86073,69.9301562 135.047858,69.0983677 133.789492,67.4347656 L133.789492,76.2646094 L131.885957,76.2646094 L131.885957,52.3024609 L133.661523,52.3024609 L133.7575,54.7498633 C135.005202,52.9049712 136.812742,51.9825391 139.180176,51.9825391 C141.249014,51.9825391 142.872602,52.7663398 144.050986,54.3339648 C145.229371,55.9015899 145.818555,58.0770369 145.818555,60.8603711 L145.818555,61.1323047 Z M143.899023,60.7963867 C143.899023,58.5889147 143.445805,56.845358 142.539355,55.5656641 C141.632906,54.2859702 140.369227,53.6461328 138.748281,53.6461328 C137.575229,53.6461328 136.567485,53.9287276 135.72502,54.4939258 C134.882554,55.0591239 134.237385,55.8802485 133.789492,56.9573242 L133.789492,65.2592969 C134.248049,66.2510596 134.903882,67.0082005 135.757012,67.5307422 C136.610141,68.0532839 137.617885,68.3145508 138.780273,68.3145508 C140.390555,68.3145508 141.646236,67.6720474 142.547354,66.3870215 C143.448471,65.1019955 143.899023,63.2384692 143.899023,60.7963867 Z" id="Set-up" fill="#FFFFFF"></path>
                <path d="M64.3838281,102.299688 C62.8786643,101.867029 61.7833237,101.335355 61.0977734,100.704648 C60.4122231,100.073942 60.0694531,99.2954734 60.0694531,98.3692188 C60.0694531,97.3210885 60.4883942,96.4542612 61.3262891,95.7687109 C62.1641839,95.0831606 63.2534308,94.7403906 64.5940625,94.7403906 C65.5081296,94.7403906 66.3231605,94.9171076 67.0391797,95.2705469 C67.7551989,95.6239861 68.3097246,96.1114813 68.7027734,96.7330469 C69.0958223,97.3546125 69.2923438,98.0340588 69.2923438,98.7714063 L67.5282031,98.7714063 C67.5282031,97.9670272 67.2722682,97.334807 66.7603906,96.8747266 C66.2485131,96.4146461 65.5264109,96.1846094 64.5940625,96.1846094 C63.7287457,96.1846094 63.0538696,96.3750372 62.5694141,96.7558984 C62.0849585,97.1367597 61.8427344,97.6653872 61.8427344,98.3417969 C61.8427344,98.8841433 62.0727711,99.3426934 62.5328516,99.7174609 C62.992932,100.092228 63.775971,100.434998 64.8819922,100.745781 C65.9880133,101.056564 66.8533172,101.399334 67.4779297,101.774102 C68.1025422,102.148869 68.5656626,102.586091 68.8673047,103.085781 C69.1689468,103.585471 69.3197656,104.173512 69.3197656,104.849922 C69.3197656,105.928521 68.8993011,106.792301 68.0583594,107.441289 C67.2174177,108.090277 66.093132,108.414766 64.6854687,108.414766 C63.7714017,108.414766 62.9182852,108.239572 62.1260937,107.88918 C61.3339023,107.538787 60.72301,107.058909 60.2933984,106.449531 C59.8637869,105.840153 59.6489844,105.148519 59.6489844,104.374609 L61.413125,104.374609 C61.413125,105.178988 61.7101923,105.814255 62.3043359,106.28043 C62.8984795,106.746604 63.6921825,106.979688 64.6854687,106.979688 C65.6117234,106.979688 66.3216382,106.790783 66.8152344,106.412969 C67.3088306,106.035154 67.555625,105.520238 67.555625,104.868203 C67.555625,104.216169 67.3271117,103.711916 66.8700781,103.35543 C66.4130446,102.998944 65.5843029,102.647033 64.3838281,102.299688 Z M75.4074219,108.414766 C74.0667902,108.414766 72.9760198,107.974497 72.1350781,107.093945 C71.2941364,106.213394 70.8736719,105.035789 70.8736719,103.561094 L70.8736719,103.250313 C70.8736719,102.269214 71.0610528,101.393246 71.4358203,100.622383 C71.8105878,99.8515196 72.3346451,99.2482444 73.0080078,98.8125391 C73.6813706,98.3768338 74.4110898,98.1589844 75.1971875,98.1589844 C76.4829752,98.1589844 77.4823402,98.5824958 78.1953125,99.4295312 C78.9082848,100.276567 79.2647656,101.489211 79.2647656,103.0675 L79.2647656,103.771328 L72.5646875,103.771328 C72.5890626,104.746333 72.8739426,105.533942 73.4193359,106.13418 C73.9647293,106.734417 74.6578864,107.034531 75.4988281,107.034531 C76.0960186,107.034531 76.6017948,106.912657 77.0161719,106.668906 C77.4305489,106.425155 77.7931234,106.10219 78.1039062,105.7 L79.1367969,106.504375 C78.3080427,107.777975 77.0649302,108.414766 75.4074219,108.414766 Z M75.1971875,99.5483594 C74.5146841,99.5483594 73.9418773,99.7966772 73.47875,100.29332 C73.0156227,100.789963 72.7292193,101.486167 72.6195312,102.381953 L77.57375,102.381953 L77.57375,102.253984 C77.5249998,101.394761 77.2934396,100.729026 76.8790625,100.256758 C76.4646854,99.7844898 75.904066,99.5483594 75.1971875,99.5483594 Z M83.5151563,95.9469531 L83.5151563,98.3417969 L85.3615625,98.3417969 L85.3615625,99.6489062 L83.5151563,99.6489062 L83.5151563,105.782266 C83.5151563,106.178361 83.5974211,106.475429 83.7619531,106.673477 C83.9264852,106.871524 84.2067949,106.970547 84.6028906,106.970547 C84.7978916,106.970547 85.0660139,106.933985 85.4072656,106.860859 L85.4072656,108.231953 C84.9624197,108.353829 84.5297677,108.414766 84.1092969,108.414766 C83.3536681,108.414766 82.7839082,108.186252 82.4,107.729219 C82.0160918,107.272185 81.8241406,106.623207 81.8241406,105.782266 L81.8241406,99.6489062 L80.0234375,99.6489062 L80.0234375,98.3417969 L81.8241406,98.3417969 L81.8241406,95.9469531 L83.5151563,95.9469531 Z M98.0761719,107.253906 C97.4180436,108.027816 96.4521939,108.414766 95.1785937,108.414766 C94.1243697,108.414766 93.3215262,108.108558 92.7700391,107.496133 C92.2185519,106.883708 91.9397657,105.977272 91.9336719,104.776797 L91.9336719,98.3417969 L93.6246875,98.3417969 L93.6246875,104.731094 C93.6246875,106.230164 94.2340564,106.979688 95.4528125,106.979688 C96.744694,106.979688 97.6039041,106.498286 98.0304687,105.535469 L98.0304687,98.3417969 L99.7214844,98.3417969 L99.7214844,108.231953 L98.1127344,108.231953 L98.0761719,107.253906 Z M110.644531,103.396563 C110.644531,104.901726 110.300238,106.11437 109.611641,107.034531 C108.923043,107.954692 107.990709,108.414766 106.814609,108.414766 C105.614135,108.414766 104.669613,108.03391 103.981016,107.272187 L103.981016,112.034453 L102.29,112.034453 L102.29,98.3417969 L103.834766,98.3417969 L103.917031,99.4386719 C104.605628,98.5855426 105.562338,98.1589844 106.787188,98.1589844 C107.975475,98.1589844 108.915426,98.6068705 109.60707,99.5026562 C110.298714,100.398442 110.644531,101.644601 110.644531,103.241172 L110.644531,103.396563 Z M108.953516,103.204609 C108.953516,102.089448 108.715862,101.208909 108.240547,100.562969 C107.765232,99.917028 107.113207,99.5940625 106.284453,99.5940625 C105.260698,99.5940625 104.492893,100.048042 103.981016,100.956016 L103.981016,105.681719 C104.486799,106.583598 105.260698,107.034531 106.302734,107.034531 C107.113207,107.034531 107.757615,106.713089 108.235977,106.070195 C108.714338,105.427301 108.953516,104.472116 108.953516,103.204609 Z M120.662656,105.754844 L122.966094,98.3417969 L124.775937,98.3417969 L120.799766,109.758438 C120.184294,111.403758 119.206257,112.226406 117.865625,112.226406 L117.545703,112.198984 L116.915,112.080156 L116.915,110.709063 L117.372031,110.745625 C117.944847,110.745625 118.391209,110.629845 118.711133,110.398281 C119.031056,110.166718 119.294608,109.743206 119.501797,109.127734 L119.876563,108.122266 L116.348281,98.3417969 L118.194688,98.3417969 L120.662656,105.754844 Z M125.699141,103.195469 C125.699141,102.226558 125.889568,101.35516 126.27043,100.58125 C126.651291,99.8073399 127.181442,99.2101584 127.860898,98.7896875 C128.540355,98.3692166 129.315777,98.1589844 130.187187,98.1589844 C131.533913,98.1589844 132.62316,98.6251516 133.454961,99.5575 C134.286762,100.489848 134.702656,101.729914 134.702656,103.277734 L134.702656,103.396563 C134.702656,104.35938 134.518322,105.22316 134.149648,105.98793 C133.780975,106.752699 133.253871,107.348357 132.56832,107.774922 C131.88277,108.201487 131.095161,108.414766 130.205469,108.414766 C128.864837,108.414766 127.778637,107.948598 126.946836,107.01625 C126.115035,106.083902 125.699141,104.84993 125.699141,103.314297 L125.699141,103.195469 Z M127.399297,103.396563 C127.399297,104.493443 127.653708,105.373981 128.162539,106.038203 C128.67137,106.702425 129.352339,107.034531 130.205469,107.034531 C131.064692,107.034531 131.747185,106.697855 132.252969,106.024492 C132.758753,105.351129 133.011641,104.408131 133.011641,103.195469 C133.011641,102.110776 132.754182,101.231761 132.239258,100.558398 C131.724333,99.8850357 131.040317,99.5483594 130.187187,99.5483594 C129.35234,99.5483594 128.678987,99.8804654 128.167109,100.544688 C127.655232,101.20891 127.399297,102.159525 127.399297,103.396563 Z M142.929219,107.253906 C142.27109,108.027816 141.305241,108.414766 140.031641,108.414766 C138.977417,108.414766 138.174573,108.108558 137.623086,107.496133 C137.071599,106.883708 136.792813,105.977272 136.786719,104.776797 L136.786719,98.3417969 L138.477734,98.3417969 L138.477734,104.731094 C138.477734,106.230164 139.087103,106.979688 140.305859,106.979688 C141.597741,106.979688 142.456951,106.498286 142.883516,105.535469 L142.883516,98.3417969 L144.574531,98.3417969 L144.574531,108.231953 L142.965781,108.231953 L142.929219,107.253906 Z M151.923594,99.8591406 C151.667655,99.8164842 151.390392,99.7951562 151.091797,99.7951562 C149.982729,99.7951562 149.230158,100.267417 148.834063,101.211953 L148.834063,108.231953 L147.143047,108.231953 L147.143047,98.3417969 L148.788359,98.3417969 L148.815781,99.484375 C149.370315,98.6007768 150.156401,98.1589844 151.174062,98.1589844 C151.503127,98.1589844 151.752968,98.2016402 151.923594,98.2869531 L151.923594,99.8591406 Z M160.406094,95.9469531 L160.406094,98.3417969 L162.2525,98.3417969 L162.2525,99.6489062 L160.406094,99.6489062 L160.406094,105.782266 C160.406094,106.178361 160.488359,106.475429 160.652891,106.673477 C160.817423,106.871524 161.097732,106.970547 161.493828,106.970547 C161.688829,106.970547 161.956951,106.933985 162.298203,106.860859 L162.298203,108.231953 C161.853357,108.353829 161.420705,108.414766 161.000234,108.414766 C160.244606,108.414766 159.674846,108.186252 159.290937,107.729219 C158.907029,107.272185 158.715078,106.623207 158.715078,105.782266 L158.715078,99.6489062 L156.914375,99.6489062 L156.914375,98.3417969 L158.715078,98.3417969 L158.715078,95.9469531 L160.406094,95.9469531 Z M167.462656,105.754844 L169.766094,98.3417969 L171.575938,98.3417969 L167.599766,109.758438 C166.984294,111.403758 166.006257,112.226406 164.665625,112.226406 L164.345703,112.198984 L163.715,112.080156 L163.715,110.709063 L164.172031,110.745625 C164.744847,110.745625 165.191209,110.629845 165.511133,110.398281 C165.831056,110.166718 166.094608,109.743206 166.301797,109.127734 L166.676562,108.122266 L163.148281,98.3417969 L164.994687,98.3417969 L167.462656,105.754844 Z M181.438672,103.396563 C181.438672,104.901726 181.094378,106.11437 180.405781,107.034531 C179.717184,107.954692 178.78485,108.414766 177.60875,108.414766 C176.408275,108.414766 175.463753,108.03391 174.775156,107.272187 L174.775156,112.034453 L173.084141,112.034453 L173.084141,98.3417969 L174.628906,98.3417969 L174.711172,99.4386719 C175.399769,98.5855426 176.356478,98.1589844 177.581328,98.1589844 C178.769615,98.1589844 179.709567,98.6068705 180.401211,99.5026562 C181.092855,100.398442 181.438672,101.644601 181.438672,103.241172 L181.438672,103.396563 Z M179.747656,103.204609 C179.747656,102.089448 179.510002,101.208909 179.034688,100.562969 C178.559373,99.917028 177.907348,99.5940625 177.078594,99.5940625 C176.054839,99.5940625 175.287034,100.048042 174.775156,100.956016 L174.775156,105.681719 C175.28094,106.583598 176.054839,107.034531 177.096875,107.034531 C177.907348,107.034531 178.551755,106.713089 179.030117,106.070195 C179.508479,105.427301 179.747656,104.472116 179.747656,103.204609 Z M187.690859,108.414766 C186.350228,108.414766 185.259457,107.974497 184.418516,107.093945 C183.577574,106.213394 183.157109,105.035789 183.157109,103.561094 L183.157109,103.250313 C183.157109,102.269214 183.34449,101.393246 183.719258,100.622383 C184.094025,99.8515196 184.618083,99.2482444 185.291445,98.8125391 C185.964808,98.3768338 186.694527,98.1589844 187.480625,98.1589844 C188.766413,98.1589844 189.765778,98.5824958 190.47875,99.4295312 C191.191722,100.276567 191.548203,101.489211 191.548203,103.0675 L191.548203,103.771328 L184.848125,103.771328 C184.8725,104.746333 185.15738,105.533942 185.702773,106.13418 C186.248167,106.734417 186.941324,107.034531 187.782266,107.034531 C188.379456,107.034531 188.885232,106.912657 189.299609,106.668906 C189.713986,106.425155 190.076561,106.10219 190.387344,105.7 L191.420234,106.504375 C190.59148,107.777975 189.348368,108.414766 187.690859,108.414766 Z M187.480625,99.5483594 C186.798122,99.5483594 186.225315,99.7966772 185.762188,100.29332 C185.29906,100.789963 185.012657,101.486167 184.902969,102.381953 L189.857188,102.381953 L189.857188,102.253984 C189.808437,101.394761 189.576877,100.729026 189.1625,100.256758 C188.748123,99.7844898 188.187504,99.5483594 187.480625,99.5483594 Z M194.336094,108.231953 L194.336094,99.6489062 L192.773047,99.6489062 L192.773047,98.3417969 L194.336094,98.3417969 L194.336094,97.3271875 C194.336094,96.2668697 194.61945,95.4472685 195.186172,94.8683594 C195.752893,94.2894502 196.554214,94 197.590156,94 C197.980158,94 198.367107,94.0517964 198.751016,94.1553906 L198.659609,95.5264844 C198.373202,95.4716404 198.068517,95.4442188 197.745547,95.4442188 C197.197107,95.4442188 196.773595,95.6041781 196.475,95.9241016 C196.176405,96.244025 196.027109,96.7025751 196.027109,97.2997656 L196.027109,98.3417969 L198.138594,98.3417969 L198.138594,99.6489062 L196.027109,99.6489062 L196.027109,108.231953 L194.336094,108.231953 Z M199.555391,103.195469 C199.555391,102.226558 199.745818,101.35516 200.12668,100.58125 C200.507541,99.8073399 201.037692,99.2101584 201.717148,98.7896875 C202.396605,98.3692166 203.172027,98.1589844 204.043437,98.1589844 C205.390163,98.1589844 206.47941,98.6251516 207.311211,99.5575 C208.143012,100.489848 208.558906,101.729914 208.558906,103.277734 L208.558906,103.396563 C208.558906,104.35938 208.374572,105.22316 208.005898,105.98793 C207.637225,106.752699 207.110121,107.348357 206.42457,107.774922 C205.73902,108.201487 204.951411,108.414766 204.061719,108.414766 C202.721087,108.414766 201.634887,107.948598 200.803086,107.01625 C199.971285,106.083902 199.555391,104.84993 199.555391,103.314297 L199.555391,103.195469 Z M201.255547,103.396563 C201.255547,104.493443 201.509958,105.373981 202.018789,106.038203 C202.52762,106.702425 203.208589,107.034531 204.061719,107.034531 C204.920942,107.034531 205.603435,106.697855 206.109219,106.024492 C206.615003,105.351129 206.867891,104.408131 206.867891,103.195469 C206.867891,102.110776 206.610432,101.231761 206.095508,100.558398 C205.580583,99.8850357 204.896567,99.5483594 204.043437,99.5483594 C203.20859,99.5483594 202.535237,99.8804654 202.023359,100.544688 C201.511482,101.20891 201.255547,102.159525 201.255547,103.396563 Z M215.460078,99.8591406 C215.204139,99.8164842 214.926876,99.7951562 214.628281,99.7951562 C213.519213,99.7951562 212.766643,100.267417 212.370547,101.211953 L212.370547,108.231953 L210.679531,108.231953 L210.679531,98.3417969 L212.324844,98.3417969 L212.352266,99.484375 C212.9068,98.6007768 213.692886,98.1589844 214.710547,98.1589844 C215.039611,98.1589844 215.289452,98.2016402 215.460078,98.2869531 L215.460078,99.8591406 Z M218.604453,98.3417969 L218.650156,99.4386719 C219.375316,98.5855426 220.353353,98.1589844 221.584297,98.1589844 C222.967585,98.1589844 223.90906,98.6891353 224.40875,99.7494531 C224.737814,99.2741382 225.165896,98.8902358 225.693008,98.5977344 C226.22012,98.3052329 226.8432,98.1589844 227.562266,98.1589844 C229.731651,98.1589844 230.834609,99.3076448 230.871172,101.605 L230.871172,108.231953 L229.180156,108.231953 L229.180156,101.705547 C229.180156,100.998668 229.018673,100.470041 228.695703,100.119648 C228.372733,99.7692561 227.830394,99.5940625 227.068672,99.5940625 C226.441012,99.5940625 225.920002,99.7814434 225.505625,100.156211 C225.091248,100.530978 224.850547,101.035231 224.783516,101.668984 L224.783516,108.231953 L223.083359,108.231953 L223.083359,101.75125 C223.083359,100.313118 222.379538,99.5940625 220.971875,99.5940625 C219.862807,99.5940625 219.104143,100.066323 218.695859,101.010859 L218.695859,108.231953 L217.004844,108.231953 L217.004844,98.3417969 L218.604453,98.3417969 Z M246.812422,105.901094 L248.713672,98.3417969 L250.404688,98.3417969 L247.525391,108.231953 L246.154297,108.231953 L243.750313,100.736641 L241.410312,108.231953 L240.039219,108.231953 L237.169062,98.3417969 L238.850937,98.3417969 L240.797891,105.745703 L243.101328,98.3417969 L244.463281,98.3417969 L246.812422,105.901094 Z M253.960391,108.231953 L252.269375,108.231953 L252.269375,98.3417969 L253.960391,98.3417969 L253.960391,108.231953 Z M252.132266,95.7184375 C252.132266,95.4442174 252.216054,95.2126572 252.383633,95.02375 C252.551212,94.8348428 252.79953,94.7403906 253.128594,94.7403906 C253.457658,94.7403906 253.707499,94.8348428 253.878125,95.02375 C254.048751,95.2126572 254.134063,95.4442174 254.134063,95.7184375 C254.134063,95.9926576 254.048751,96.221171 253.878125,96.4039844 C253.707499,96.5867978 253.457658,96.6782031 253.128594,96.6782031 C252.79953,96.6782031 252.551212,96.5867978 252.383633,96.4039844 C252.216054,96.221171 252.132266,95.9926576 252.132266,95.7184375 Z M258.960313,95.9469531 L258.960313,98.3417969 L260.806719,98.3417969 L260.806719,99.6489062 L258.960313,99.6489062 L258.960313,105.782266 C258.960313,106.178361 259.042577,106.475429 259.207109,106.673477 C259.371641,106.871524 259.651951,106.970547 260.048047,106.970547 C260.243048,106.970547 260.51117,106.933985 260.852422,106.860859 L260.852422,108.231953 C260.407576,108.353829 259.974924,108.414766 259.554453,108.414766 C258.798824,108.414766 258.229064,108.186252 257.845156,107.729219 C257.461248,107.272185 257.269297,106.623207 257.269297,105.782266 L257.269297,99.6489062 L255.468594,99.6489062 L255.468594,98.3417969 L257.269297,98.3417969 L257.269297,95.9469531 L258.960313,95.9469531 Z M264.472109,99.5392188 C265.221644,98.6190579 266.196635,98.1589844 267.397109,98.1589844 C269.487276,98.1589844 270.541484,99.3381132 270.559766,101.696406 L270.559766,108.231953 L268.86875,108.231953 L268.86875,101.687266 C268.862656,100.974293 268.69965,100.447189 268.379727,100.105937 C268.059803,99.7646858 267.561644,99.5940625 266.885234,99.5940625 C266.336794,99.5940625 265.855393,99.740311 265.441016,100.032812 C265.026639,100.325314 264.703673,100.709216 264.472109,101.184531 L264.472109,108.231953 L262.781094,108.231953 L262.781094,94.1919531 L264.472109,94.1919531 L264.472109,99.5392188 Z M62.4917187,118.946953 L62.4917187,121.341797 L64.338125,121.341797 L64.338125,122.648906 L62.4917187,122.648906 L62.4917187,128.782266 C62.4917187,129.178361 62.5739836,129.475429 62.7385156,129.673477 C62.9030477,129.871524 63.1833574,129.970547 63.5794531,129.970547 C63.7744541,129.970547 64.0425764,129.933985 64.3838281,129.860859 L64.3838281,131.231953 C63.9389822,131.353829 63.5063302,131.414766 63.0858594,131.414766 C62.3302306,131.414766 61.7604707,131.186252 61.3765625,130.729219 C60.9926543,130.272185 60.8007031,129.623207 60.8007031,128.782266 L60.8007031,122.648906 L59,122.648906 L59,121.341797 L60.8007031,121.341797 L60.8007031,118.946953 L62.4917187,118.946953 Z M68.0035156,122.539219 C68.7530506,121.619058 69.7280409,121.158984 70.9285156,121.158984 C73.0186823,121.158984 74.0728905,122.338113 74.0911719,124.696406 L74.0911719,131.231953 L72.4001562,131.231953 L72.4001562,124.687266 C72.3940625,123.974293 72.2310563,123.447189 71.9111328,123.105937 C71.5912093,122.764686 71.0930503,122.594063 70.4166406,122.594063 C69.8682004,122.594063 69.3867989,122.740311 68.9724219,123.032812 C68.5580448,123.325314 68.2350793,123.709216 68.0035156,124.184531 L68.0035156,131.231953 L66.3125,131.231953 L66.3125,117.191953 L68.0035156,117.191953 L68.0035156,122.539219 Z M80.7272656,131.414766 C79.3866339,131.414766 78.2958636,130.974497 77.4549219,130.093945 C76.6139802,129.213394 76.1935156,128.035789 76.1935156,126.561094 L76.1935156,126.250313 C76.1935156,125.269214 76.3808966,124.393246 76.7556641,123.622383 C77.1304316,122.85152 77.6544888,122.248244 78.3278516,121.812539 C79.0012143,121.376834 79.7309336,121.158984 80.5170313,121.158984 C81.8028189,121.158984 82.8021839,121.582496 83.5151563,122.429531 C84.2281286,123.276567 84.5846094,124.489211 84.5846094,126.0675 L84.5846094,126.771328 L77.8845312,126.771328 C77.9089064,127.746333 78.1937863,128.533942 78.7391797,129.13418 C79.284573,129.734417 79.9777302,130.034531 80.8186719,130.034531 C81.4158624,130.034531 81.9216386,129.912657 82.3360156,129.668906 C82.7503927,129.425155 83.1129672,129.10219 83.42375,128.7 L84.4566406,129.504375 C83.6278865,130.777975 82.3847739,131.414766 80.7272656,131.414766 Z M80.5170313,122.548359 C79.8345278,122.548359 79.2617211,122.796677 78.7985937,123.29332 C78.3354664,123.789963 78.049063,124.486167 77.939375,125.381953 L82.8935937,125.381953 L82.8935937,125.253984 C82.8448435,124.394761 82.6132833,123.729026 82.1989062,123.256758 C81.7845292,122.78449 81.2239098,122.548359 80.5170313,122.548359 Z M90.7636719,126.204609 C90.7636719,124.650695 91.1201527,123.421294 91.833125,122.516367 C92.5460973,121.611441 93.5028065,121.158984 94.7032813,121.158984 C95.8732871,121.158984 96.796481,121.552027 97.4728906,122.338125 L97.5460156,121.341797 L99.0999219,121.341797 L99.0999219,135.034453 L97.4089063,135.034453 L97.4089063,130.317891 C96.7264028,131.049144 95.8184432,131.414766 94.685,131.414766 C93.490619,131.414766 92.5384801,130.950122 91.8285547,130.02082 C91.1186293,129.091519 90.7636719,127.85907 90.7636719,126.323438 L90.7636719,126.204609 Z M92.4546875,126.396563 C92.4546875,127.530006 92.6938648,128.419684 93.1722266,129.065625 C93.6505883,129.711566 94.2949959,130.034531 95.1054688,130.034531 C96.1109425,130.034531 96.8787473,129.589692 97.4089063,128.7 L97.4089063,123.855469 C96.8726536,122.984058 96.1109424,122.548359 95.12375,122.548359 C94.3071834,122.548359 93.6582055,122.872848 93.1767969,123.521836 C92.6953882,124.170824 92.4546875,125.129056 92.4546875,126.396563 Z M107.920625,130.253906 C107.262497,131.027816 106.296647,131.414766 105.023047,131.414766 C103.968823,131.414766 103.165979,131.108558 102.614492,130.496133 C102.063005,129.883708 101.784219,128.977272 101.778125,127.776797 L101.778125,121.341797 L103.469141,121.341797 L103.469141,127.731094 C103.469141,129.230164 104.07851,129.979688 105.297266,129.979688 C106.589147,129.979688 107.448357,129.498286 107.874922,128.535469 L107.874922,121.341797 L109.565938,121.341797 L109.565938,131.231953 L107.957187,131.231953 L107.920625,130.253906 Z M116.238594,131.414766 C114.897962,131.414766 113.807192,130.974497 112.96625,130.093945 C112.125308,129.213394 111.704844,128.035789 111.704844,126.561094 L111.704844,126.250313 C111.704844,125.269214 111.892225,124.393246 112.266992,123.622383 C112.64176,122.85152 113.165817,122.248244 113.83918,121.812539 C114.512542,121.376834 115.242262,121.158984 116.028359,121.158984 C117.314147,121.158984 118.313512,121.582496 119.026484,122.429531 C119.739457,123.276567 120.095938,124.489211 120.095938,126.0675 L120.095938,126.771328 L113.395859,126.771328 C113.420234,127.746333 113.705114,128.533942 114.250508,129.13418 C114.795901,129.734417 115.489058,130.034531 116.33,130.034531 C116.92719,130.034531 117.432967,129.912657 117.847344,129.668906 C118.261721,129.425155 118.624295,129.10219 118.935078,128.7 L119.967969,129.504375 C119.139215,130.777975 117.896102,131.414766 116.238594,131.414766 Z M116.028359,122.548359 C115.345856,122.548359 114.773049,122.796677 114.309922,123.29332 C113.846795,123.789963 113.560391,124.486167 113.450703,125.381953 L118.404922,125.381953 L118.404922,125.253984 C118.356172,124.394761 118.124611,123.729026 117.710234,123.256758 C117.295857,122.78449 116.735238,122.548359 116.028359,122.548359 Z M127.810625,128.608594 C127.810625,128.15156 127.638478,127.796603 127.29418,127.543711 C126.949881,127.290819 126.349653,127.07297 125.493477,126.890156 C124.6373,126.707343 123.957854,126.48797 123.455117,126.232031 C122.95238,125.976092 122.580665,125.671408 122.339961,125.317969 C122.099257,124.964529 121.978906,124.544065 121.978906,124.056563 C121.978906,123.24609 122.321676,122.56055 123.007227,121.999922 C123.692777,121.439294 124.568745,121.158984 125.635156,121.158984 C126.756412,121.158984 127.665895,121.448435 128.363633,122.027344 C129.061371,122.606253 129.410234,123.346636 129.410234,124.248516 L127.710078,124.248516 C127.710078,123.785388 127.513557,123.386252 127.120508,123.051094 C126.727459,122.715936 126.232347,122.548359 125.635156,122.548359 C125.019684,122.548359 124.538283,122.682421 124.190938,122.950547 C123.843592,123.218673 123.669922,123.56906 123.669922,124.001719 C123.669922,124.410002 123.831405,124.717733 124.154375,124.924922 C124.477345,125.13211 125.060816,125.330155 125.904805,125.519063 C126.748793,125.70797 127.43281,125.933436 127.956875,126.195469 C128.48094,126.457501 128.869413,126.77285 129.122305,127.141523 C129.375197,127.510197 129.501641,127.959607 129.501641,128.489766 C129.501641,129.373364 129.148207,130.081755 128.441328,130.614961 C127.73445,131.148167 126.817349,131.414766 125.69,131.414766 C124.897809,131.414766 124.197034,131.274611 123.587656,130.994297 C122.978278,130.713983 122.501447,130.322463 122.157148,129.819727 C121.81285,129.31699 121.640703,128.773128 121.640703,128.188125 L123.331719,128.188125 C123.362188,128.754847 123.589178,129.204256 124.012695,129.536367 C124.436213,129.868478 124.995309,130.034531 125.69,130.034531 C126.329847,130.034531 126.84324,129.90504 127.230195,129.646055 C127.61715,129.387069 127.810625,129.041252 127.810625,128.608594 Z M133.998828,118.946953 L133.998828,121.341797 L135.845234,121.341797 L135.845234,122.648906 L133.998828,122.648906 L133.998828,128.782266 C133.998828,129.178361 134.081093,129.475429 134.245625,129.673477 C134.410157,129.871524 134.690467,129.970547 135.086563,129.970547 C135.281563,129.970547 135.549686,129.933985 135.890938,129.860859 L135.890938,131.231953 C135.446092,131.353829 135.01344,131.414766 134.592969,131.414766 C133.83734,131.414766 133.26758,131.186252 132.883672,130.729219 C132.499764,130.272185 132.307813,129.623207 132.307813,128.782266 L132.307813,122.648906 L130.507109,122.648906 L130.507109,121.341797 L132.307813,121.341797 L132.307813,118.946953 L133.998828,118.946953 Z M139.656875,131.231953 L137.965859,131.231953 L137.965859,121.341797 L139.656875,121.341797 L139.656875,131.231953 Z M137.82875,118.718438 C137.82875,118.444217 137.912538,118.212657 138.080117,118.02375 C138.247696,117.834843 138.496014,117.740391 138.825078,117.740391 C139.154142,117.740391 139.403984,117.834843 139.574609,118.02375 C139.745235,118.212657 139.830547,118.444217 139.830547,118.718438 C139.830547,118.992658 139.745235,119.221171 139.574609,119.403984 C139.403984,119.586798 139.154142,119.678203 138.825078,119.678203 C138.496014,119.678203 138.247696,119.586798 138.080117,119.403984 C137.912538,119.221171 137.82875,118.992658 137.82875,118.718438 Z M141.914609,126.195469 C141.914609,125.226558 142.105037,124.35516 142.485898,123.58125 C142.86676,122.80734 143.396911,122.210158 144.076367,121.789688 C144.755824,121.369217 145.531246,121.158984 146.402656,121.158984 C147.749382,121.158984 148.838629,121.625152 149.67043,122.5575 C150.502231,123.489848 150.918125,124.729914 150.918125,126.277734 L150.918125,126.396563 C150.918125,127.35938 150.733791,128.22316 150.365117,128.98793 C149.996443,129.752699 149.469339,130.348357 148.783789,130.774922 C148.098239,131.201487 147.310629,131.414766 146.420938,131.414766 C145.080306,131.414766 143.994106,130.948598 143.162305,130.01625 C142.330504,129.083902 141.914609,127.84993 141.914609,126.314297 L141.914609,126.195469 Z M143.614766,126.396563 C143.614766,127.493443 143.869177,128.373981 144.378008,129.038203 C144.886838,129.702425 145.567808,130.034531 146.420938,130.034531 C147.280161,130.034531 147.962654,129.697855 148.468437,129.024492 C148.974221,128.351129 149.227109,127.408131 149.227109,126.195469 C149.227109,125.110776 148.969651,124.231761 148.454727,123.558398 C147.939802,122.885036 147.255786,122.548359 146.402656,122.548359 C145.567808,122.548359 144.894456,122.880465 144.382578,123.544688 C143.870701,124.20891 143.614766,125.159525 143.614766,126.396563 Z M154.638359,121.341797 L154.693203,122.584922 C155.448832,121.634292 156.43601,121.158984 157.654766,121.158984 C159.744932,121.158984 160.799141,122.338113 160.817422,124.696406 L160.817422,131.231953 L159.126406,131.231953 L159.126406,124.687266 C159.120312,123.974293 158.957306,123.447189 158.637383,123.105937 C158.317459,122.764686 157.8193,122.594063 157.142891,122.594063 C156.59445,122.594063 156.113049,122.740311 155.698672,123.032812 C155.284295,123.325314 154.961329,123.709216 154.729766,124.184531 L154.729766,131.231953 L153.03875,131.231953 L153.03875,121.341797 L154.638359,121.341797 Z M171.237734,128.754844 L173.541172,121.341797 L175.351016,121.341797 L171.374844,132.758438 C170.759372,134.403758 169.781335,135.226406 168.440703,135.226406 L168.120781,135.198984 L167.490078,135.080156 L167.490078,133.709063 L167.947109,133.745625 C168.519925,133.745625 168.966287,133.629845 169.286211,133.398281 C169.606134,133.166718 169.869686,132.743206 170.076875,132.127734 L170.451641,131.122266 L166.923359,121.341797 L168.769766,121.341797 L171.237734,128.754844 Z M176.274219,126.195469 C176.274219,125.226558 176.464647,124.35516 176.845508,123.58125 C177.226369,122.80734 177.75652,122.210158 178.435977,121.789688 C179.115433,121.369217 179.890855,121.158984 180.762266,121.158984 C182.108991,121.158984 183.198238,121.625152 184.030039,122.5575 C184.86184,123.489848 185.277734,124.729914 185.277734,126.277734 L185.277734,126.396563 C185.277734,127.35938 185.0934,128.22316 184.724727,128.98793 C184.356053,129.752699 183.828949,130.348357 183.143398,130.774922 C182.457848,131.201487 181.670239,131.414766 180.780547,131.414766 C179.439915,131.414766 178.353715,130.948598 177.521914,130.01625 C176.690113,129.083902 176.274219,127.84993 176.274219,126.314297 L176.274219,126.195469 Z M177.974375,126.396563 C177.974375,127.493443 178.228787,128.373981 178.737617,129.038203 C179.246448,129.702425 179.927418,130.034531 180.780547,130.034531 C181.63977,130.034531 182.322263,129.697855 182.828047,129.024492 C183.333831,128.351129 183.586719,127.408131 183.586719,126.195469 C183.586719,125.110776 183.32926,124.231761 182.814336,123.558398 C182.299411,122.885036 181.615395,122.548359 180.762266,122.548359 C179.927418,122.548359 179.254065,122.880465 178.742187,123.544688 C178.23031,124.20891 177.974375,125.159525 177.974375,126.396563 Z M193.504297,130.253906 C192.846169,131.027816 191.880319,131.414766 190.606719,131.414766 C189.552495,131.414766 188.749651,131.108558 188.198164,130.496133 C187.646677,129.883708 187.367891,128.977272 187.361797,127.776797 L187.361797,121.341797 L189.052813,121.341797 L189.052813,127.731094 C189.052813,129.230164 189.662181,129.979688 190.880938,129.979688 C192.172819,129.979688 193.032029,129.498286 193.458594,128.535469 L193.458594,121.341797 L195.149609,121.341797 L195.149609,131.231953 L193.540859,131.231953 L193.504297,130.253906 Z M211.109141,128.901094 L213.010391,121.341797 L214.701406,121.341797 L211.822109,131.231953 L210.451016,131.231953 L208.047031,123.736641 L205.707031,131.231953 L204.335938,131.231953 L201.465781,121.341797 L203.147656,121.341797 L205.094609,128.745703 L207.398047,121.341797 L208.76,121.341797 L211.109141,128.901094 Z M222.525781,131.231953 C222.428281,131.036952 222.349063,130.689612 222.288125,130.189922 C221.502027,131.006488 220.563599,131.414766 219.472813,131.414766 C218.497808,131.414766 217.698011,131.139026 217.073398,130.587539 C216.448786,130.036052 216.136484,129.336801 216.136484,128.489766 C216.136484,127.459917 216.528004,126.66012 217.311055,126.090352 C218.094105,125.520583 219.19554,125.235703 220.615391,125.235703 L222.260703,125.235703 L222.260703,124.45875 C222.260703,123.867653 222.083986,123.396916 221.730547,123.046523 C221.377108,122.696131 220.856097,122.520938 220.1675,122.520938 C219.564216,122.520938 219.05844,122.67328 218.650156,122.977969 C218.241873,123.282658 218.037734,123.651326 218.037734,124.083984 L216.337578,124.083984 C216.337578,123.590388 216.512772,123.113557 216.863164,122.653477 C217.213556,122.193396 217.688864,121.829298 218.289102,121.561172 C218.889339,121.293046 219.548981,121.158984 220.268047,121.158984 C221.407584,121.158984 222.300309,121.443864 222.94625,122.013633 C223.592191,122.583401 223.927344,123.367964 223.951719,124.367344 L223.951719,128.919375 C223.951719,129.827348 224.067499,130.54945 224.299062,131.085703 L224.299062,131.231953 L222.525781,131.231953 Z M219.719609,129.943125 C220.249768,129.943125 220.752498,129.806017 221.227813,129.531797 C221.703127,129.257577 222.047421,128.901096 222.260703,128.462344 L222.260703,126.433125 L220.935313,126.433125 C218.863427,126.433125 217.8275,127.039447 217.8275,128.252109 C217.8275,128.782268 218.004217,129.196639 218.357656,129.495234 C218.711096,129.79383 219.165075,129.943125 219.719609,129.943125 Z M228.202109,121.341797 L228.256953,122.584922 C229.012582,121.634292 229.99976,121.158984 231.218516,121.158984 C233.308682,121.158984 234.362891,122.338113 234.381172,124.696406 L234.381172,131.231953 L232.690156,131.231953 L232.690156,124.687266 C232.684062,123.974293 232.521056,123.447189 232.201133,123.105937 C231.881209,122.764686 231.38305,122.594063 230.706641,122.594063 C230.1582,122.594063 229.676799,122.740311 229.262422,123.032812 C228.848045,123.325314 228.525079,123.709216 228.293516,124.184531 L228.293516,131.231953 L226.6025,131.231953 L226.6025,121.341797 L228.202109,121.341797 Z M239.225703,118.946953 L239.225703,121.341797 L241.072109,121.341797 L241.072109,122.648906 L239.225703,122.648906 L239.225703,128.782266 C239.225703,129.178361 239.307968,129.475429 239.4725,129.673477 C239.637032,129.871524 239.917342,129.970547 240.313438,129.970547 C240.508438,129.970547 240.776561,129.933985 241.117813,129.860859 L241.117813,131.231953 C240.672967,131.353829 240.240315,131.414766 239.819844,131.414766 C239.064215,131.414766 238.494455,131.186252 238.110547,130.729219 C237.726639,130.272185 237.534688,129.623207 237.534688,128.782266 L237.534688,122.648906 L235.733984,122.648906 L235.733984,121.341797 L237.534688,121.341797 L237.534688,118.946953 L239.225703,118.946953 Z M249.975078,118.946953 L249.975078,121.341797 L251.821484,121.341797 L251.821484,122.648906 L249.975078,122.648906 L249.975078,128.782266 C249.975078,129.178361 250.057343,129.475429 250.221875,129.673477 C250.386407,129.871524 250.666717,129.970547 251.062813,129.970547 C251.257813,129.970547 251.525936,129.933985 251.867188,129.860859 L251.867188,131.231953 C251.422342,131.353829 250.98969,131.414766 250.569219,131.414766 C249.81359,131.414766 249.24383,131.186252 248.859922,130.729219 C248.476014,130.272185 248.284063,129.623207 248.284063,128.782266 L248.284063,122.648906 L246.483359,122.648906 L246.483359,121.341797 L248.284063,121.341797 L248.284063,118.946953 L249.975078,118.946953 Z M253.165156,126.195469 C253.165156,125.226558 253.355584,124.35516 253.736445,123.58125 C254.117307,122.80734 254.647458,122.210158 255.326914,121.789688 C256.006371,121.369217 256.781793,121.158984 257.653203,121.158984 C258.999929,121.158984 260.089176,121.625152 260.920977,122.5575 C261.752778,123.489848 262.168672,124.729914 262.168672,126.277734 L262.168672,126.396563 C262.168672,127.35938 261.984338,128.22316 261.615664,128.98793 C261.24699,129.752699 260.719886,130.348357 260.034336,130.774922 C259.348786,131.201487 258.561176,131.414766 257.671484,131.414766 C256.330853,131.414766 255.244653,130.948598 254.412852,130.01625 C253.581051,129.083902 253.165156,127.84993 253.165156,126.314297 L253.165156,126.195469 Z M254.865313,126.396563 C254.865313,127.493443 255.119724,128.373981 255.628555,129.038203 C256.137385,129.702425 256.818355,130.034531 257.671484,130.034531 C258.530707,130.034531 259.213201,129.697855 259.718984,129.024492 C260.224768,128.351129 260.477656,127.408131 260.477656,126.195469 C260.477656,125.110776 260.220198,124.231761 259.705273,123.558398 C259.190349,122.885036 258.506332,122.548359 257.653203,122.548359 C256.818355,122.548359 256.145003,122.880465 255.633125,123.544688 C255.121247,124.20891 254.865313,125.159525 254.865313,126.396563 Z M66.3033594,154.231953 C66.2058589,154.036952 66.1266409,153.689612 66.0657031,153.189922 C65.2796054,154.006488 64.3411773,154.414766 63.2503906,154.414766 C62.2753857,154.414766 61.4755891,154.139026 60.8509766,153.587539 C60.2263641,153.036052 59.9140625,152.336801 59.9140625,151.489766 C59.9140625,150.459917 60.305582,149.66012 61.0886328,149.090352 C61.8716836,148.520583 62.9731179,148.235703 64.3929687,148.235703 L66.0382812,148.235703 L66.0382812,147.45875 C66.0382812,146.867653 65.8615643,146.396916 65.508125,146.046523 C65.1546857,145.696131 64.6336753,145.520938 63.9450781,145.520938 C63.3417939,145.520938 62.8360177,145.67328 62.4277344,145.977969 C62.0194511,146.282658 61.8153125,146.651326 61.8153125,147.083984 L60.1151562,147.083984 C60.1151562,146.590388 60.2903498,146.113557 60.6407422,145.653477 C60.9911346,145.193396 61.4664423,144.829298 62.0666797,144.561172 C62.6669171,144.293046 63.3265589,144.158984 64.045625,144.158984 C65.1851619,144.158984 66.0778874,144.443864 66.7238281,145.013633 C67.3697689,145.583401 67.7049218,146.367964 67.7292969,147.367344 L67.7292969,151.919375 C67.7292969,152.827348 67.845077,153.54945 68.0766406,154.085703 L68.0766406,154.231953 L66.3033594,154.231953 Z M63.4971875,152.943125 C64.0273464,152.943125 64.5300757,152.806017 65.0053906,152.531797 C65.4807055,152.257577 65.8249989,151.901096 66.0382812,151.462344 L66.0382812,149.433125 L64.7128906,149.433125 C62.6410053,149.433125 61.6050781,150.039447 61.6050781,151.252109 C61.6050781,151.782268 61.7817951,152.196639 62.1352344,152.495234 C62.4886736,152.79383 62.9426535,152.943125 63.4971875,152.943125 Z M76.1386719,151.608594 C76.1386719,151.15156 75.9665252,150.796603 75.6222266,150.543711 C75.277928,150.290819 74.6776996,150.07297 73.8215234,149.890156 C72.9653473,149.707343 72.285901,149.48797 71.7831641,149.232031 C71.2804272,148.976092 70.9087121,148.671408 70.6680078,148.317969 C70.4273035,147.964529 70.3069531,147.544065 70.3069531,147.056563 C70.3069531,146.24609 70.6497231,145.56055 71.3352734,144.999922 C72.0208237,144.439294 72.8967915,144.158984 73.9632031,144.158984 C75.0844587,144.158984 75.9939418,144.448435 76.6916797,145.027344 C77.3894176,145.606253 77.7382812,146.346636 77.7382812,147.248516 L76.038125,147.248516 C76.038125,146.785388 75.8416035,146.386252 75.4485547,146.051094 C75.0555058,145.715936 74.5603936,145.548359 73.9632031,145.548359 C73.3477313,145.548359 72.8663299,145.682421 72.5189844,145.950547 C72.1716389,146.218673 71.9979687,146.56906 71.9979687,147.001719 C71.9979687,147.410002 72.1594515,147.717733 72.4824219,147.924922 C72.8053922,148.13211 73.388863,148.330155 74.2328516,148.519063 C75.0768402,148.70797 75.7608568,148.933436 76.2849219,149.195469 C76.808987,149.457501 77.1974597,149.77285 77.4503516,150.141523 C77.7032435,150.510197 77.8296875,150.959607 77.8296875,151.489766 C77.8296875,152.373364 77.4762535,153.081755 76.769375,153.614961 C76.0624965,154.148167 75.1453963,154.414766 74.0180469,154.414766 C73.2258554,154.414766 72.5250812,154.274611 71.9157031,153.994297 C71.3063251,153.713983 70.8294939,153.322463 70.4851953,152.819727 C70.1408967,152.31699 69.96875,151.773128 69.96875,151.188125 L71.6597656,151.188125 C71.6902345,151.754847 71.9172244,152.204256 72.3407422,152.536367 C72.7642599,152.868478 73.3233559,153.034531 74.0180469,153.034531 C74.6578938,153.034531 75.1712871,152.90504 75.5582422,152.646055 C75.9451972,152.387069 76.1386719,152.041252 76.1386719,151.608594 Z M82.7930469,149.6525 L81.7327344,150.758516 L81.7327344,154.231953 L80.0417188,154.231953 L80.0417188,140.191953 L81.7327344,140.191953 L81.7327344,148.683594 L82.6376563,147.595859 L85.7180469,144.341797 L87.7746875,144.341797 L83.9264844,148.473359 L88.2225781,154.231953 L86.2390625,154.231953 L82.7930469,149.6525 Z M97.390625,151.754844 L99.6940625,144.341797 L101.503906,144.341797 L97.5277344,155.758438 C96.9122625,157.403758 95.9342255,158.226406 94.5935938,158.226406 L94.2736719,158.198984 L93.6429688,158.080156 L93.6429688,156.709063 L94.1,156.745625 C94.6728154,156.745625 95.1191781,156.629845 95.4391016,156.398281 C95.759025,156.166718 96.0225771,155.743206 96.2297656,155.127734 L96.6045312,154.122266 L93.07625,144.341797 L94.9226563,144.341797 L97.390625,151.754844 Z M102.427109,149.195469 C102.427109,148.226558 102.617537,147.35516 102.998398,146.58125 C103.37926,145.80734 103.909411,145.210158 104.588867,144.789688 C105.268324,144.369217 106.043746,144.158984 106.915156,144.158984 C108.261882,144.158984 109.351129,144.625152 110.18293,145.5575 C111.014731,146.489848 111.430625,147.729914 111.430625,149.277734 L111.430625,149.396563 C111.430625,150.35938 111.246291,151.22316 110.877617,151.98793 C110.508943,152.752699 109.981839,153.348357 109.296289,153.774922 C108.610739,154.201487 107.823129,154.414766 106.933438,154.414766 C105.592806,154.414766 104.506606,153.948598 103.674805,153.01625 C102.843004,152.083902 102.427109,150.84993 102.427109,149.314297 L102.427109,149.195469 Z M104.127266,149.396563 C104.127266,150.493443 104.381677,151.373981 104.890508,152.038203 C105.399338,152.702425 106.080308,153.034531 106.933438,153.034531 C107.792661,153.034531 108.475154,152.697855 108.980938,152.024492 C109.486721,151.351129 109.739609,150.408131 109.739609,149.195469 C109.739609,148.110776 109.482151,147.231761 108.967227,146.558398 C108.452302,145.885036 107.768286,145.548359 106.915156,145.548359 C106.080308,145.548359 105.406956,145.880465 104.895078,146.544688 C104.383201,147.20891 104.127266,148.159525 104.127266,149.396563 Z M119.657188,153.253906 C118.999059,154.027816 118.033209,154.414766 116.759609,154.414766 C115.705385,154.414766 114.902542,154.108558 114.351055,153.496133 C113.799568,152.883708 113.520781,151.977272 113.514688,150.776797 L113.514688,144.341797 L115.205703,144.341797 L115.205703,150.731094 C115.205703,152.230164 115.815072,152.979688 117.033828,152.979688 C118.32571,152.979688 119.18492,152.498286 119.611484,151.535469 L119.611484,144.341797 L121.3025,144.341797 L121.3025,154.231953 L119.69375,154.231953 L119.657188,153.253906 Z M128.651563,145.859141 C128.395624,145.816484 128.118361,145.795156 127.819766,145.795156 C126.710698,145.795156 125.958127,146.267417 125.562031,147.211953 L125.562031,154.231953 L123.871016,154.231953 L123.871016,144.341797 L125.516328,144.341797 L125.54375,145.484375 C126.098284,144.600777 126.88437,144.158984 127.902031,144.158984 C128.231095,144.158984 128.480937,144.20164 128.651563,144.286953 L128.651563,145.859141 Z M140.945703,154.231953 C140.848203,154.036952 140.768985,153.689612 140.708047,153.189922 C139.921949,154.006488 138.983521,154.414766 137.892734,154.414766 C136.91773,154.414766 136.117933,154.139026 135.49332,153.587539 C134.868708,153.036052 134.556406,152.336801 134.556406,151.489766 C134.556406,150.459917 134.947926,149.66012 135.730977,149.090352 C136.514027,148.520583 137.615462,148.235703 139.035313,148.235703 L140.680625,148.235703 L140.680625,147.45875 C140.680625,146.867653 140.503908,146.396916 140.150469,146.046523 C139.797029,145.696131 139.276019,145.520938 138.587422,145.520938 C137.984138,145.520938 137.478361,145.67328 137.070078,145.977969 C136.661795,146.282658 136.457656,146.651326 136.457656,147.083984 L134.7575,147.083984 C134.7575,146.590388 134.932694,146.113557 135.283086,145.653477 C135.633478,145.193396 136.108786,144.829298 136.709023,144.561172 C137.309261,144.293046 137.968903,144.158984 138.687969,144.158984 C139.827506,144.158984 140.720231,144.443864 141.366172,145.013633 C142.012113,145.583401 142.347266,146.367964 142.371641,147.367344 L142.371641,151.919375 C142.371641,152.827348 142.487421,153.54945 142.718984,154.085703 L142.718984,154.231953 L140.945703,154.231953 Z M138.139531,152.943125 C138.66969,152.943125 139.172419,152.806017 139.647734,152.531797 C140.123049,152.257577 140.467343,151.901096 140.680625,151.462344 L140.680625,149.433125 L139.355234,149.433125 C137.283349,149.433125 136.247422,150.039447 136.247422,151.252109 C136.247422,151.782268 136.424139,152.196639 136.777578,152.495234 C137.131017,152.79383 137.584997,152.943125 138.139531,152.943125 Z M151.128359,153.253906 C150.470231,154.027816 149.504381,154.414766 148.230781,154.414766 C147.176557,154.414766 146.373714,154.108558 145.822227,153.496133 C145.270739,152.883708 144.991953,151.977272 144.985859,150.776797 L144.985859,144.341797 L146.676875,144.341797 L146.676875,150.731094 C146.676875,152.230164 147.286244,152.979688 148.505,152.979688 C149.796881,152.979688 150.656092,152.498286 151.082656,151.535469 L151.082656,144.341797 L152.773672,144.341797 L152.773672,154.231953 L151.164922,154.231953 L151.128359,153.253906 Z M154.930859,149.204609 C154.930859,147.687258 155.290387,146.466997 156.009453,145.543789 C156.728519,144.620581 157.669994,144.158984 158.833906,144.158984 C159.991725,144.158984 160.908825,144.555074 161.585234,145.347266 L161.585234,140.191953 L163.27625,140.191953 L163.27625,154.231953 L161.722344,154.231953 L161.640078,153.171641 C160.963668,154.000395 160.022194,154.414766 158.815625,154.414766 C157.669994,154.414766 156.736136,153.945552 156.014023,153.007109 C155.29191,152.068667 154.930859,150.843836 154.930859,149.332578 L154.930859,149.204609 Z M156.621875,149.396563 C156.621875,150.517818 156.853435,151.395309 157.316563,152.029063 C157.77969,152.662816 158.419527,152.979688 159.236094,152.979688 C160.308599,152.979688 161.091638,152.498286 161.585234,151.535469 L161.585234,146.992578 C161.079451,146.06023 160.302505,145.594063 159.254375,145.594063 C158.425621,145.594063 157.77969,145.913981 157.316563,146.553828 C156.853435,147.193675 156.621875,148.141244 156.621875,149.396563 Z M167.736875,154.231953 L166.045859,154.231953 L166.045859,144.341797 L167.736875,144.341797 L167.736875,154.231953 Z M165.90875,141.718438 C165.90875,141.444217 165.992538,141.212657 166.160117,141.02375 C166.327696,140.834843 166.576014,140.740391 166.905078,140.740391 C167.234142,140.740391 167.483984,140.834843 167.654609,141.02375 C167.825235,141.212657 167.910547,141.444217 167.910547,141.718438 C167.910547,141.992658 167.825235,142.221171 167.654609,142.403984 C167.483984,142.586798 167.234142,142.678203 166.905078,142.678203 C166.576014,142.678203 166.327696,142.586798 166.160117,142.403984 C165.992538,142.221171 165.90875,141.992658 165.90875,141.718438 Z M174.546641,154.414766 C173.206009,154.414766 172.115239,153.974497 171.274297,153.093945 C170.433355,152.213394 170.012891,151.035789 170.012891,149.561094 L170.012891,149.250313 C170.012891,148.269214 170.200272,147.393246 170.575039,146.622383 C170.949807,145.85152 171.473864,145.248244 172.147227,144.812539 C172.820589,144.376834 173.550309,144.158984 174.336406,144.158984 C175.622194,144.158984 176.621559,144.582496 177.334531,145.429531 C178.047504,146.276567 178.403984,147.489211 178.403984,149.0675 L178.403984,149.771328 L171.703906,149.771328 C171.728281,150.746333 172.013161,151.533942 172.558555,152.13418 C173.103948,152.734417 173.797105,153.034531 174.638047,153.034531 C175.235237,153.034531 175.741014,152.912657 176.155391,152.668906 C176.569768,152.425155 176.932342,152.10219 177.243125,151.7 L178.276016,152.504375 C177.447261,153.777975 176.204149,154.414766 174.546641,154.414766 Z M174.336406,145.548359 C173.653903,145.548359 173.081096,145.796677 172.617969,146.29332 C172.154841,146.789963 171.868438,147.486167 171.75875,148.381953 L176.712969,148.381953 L176.712969,148.253984 C176.664219,147.394761 176.432658,146.729026 176.018281,146.256758 C175.603904,145.78449 175.043285,145.548359 174.336406,145.548359 Z M181.959688,144.341797 L182.014531,145.584922 C182.77016,144.634292 183.757338,144.158984 184.976094,144.158984 C187.06626,144.158984 188.120469,145.338113 188.13875,147.696406 L188.13875,154.231953 L186.447734,154.231953 L186.447734,147.687266 C186.441641,146.974293 186.278634,146.447189 185.958711,146.105937 C185.638787,145.764686 185.140628,145.594063 184.464219,145.594063 C183.915779,145.594063 183.434377,145.740311 183.02,146.032812 C182.605623,146.325314 182.282657,146.709216 182.051094,147.184531 L182.051094,154.231953 L180.360078,154.231953 L180.360078,144.341797 L181.959688,144.341797 Z M194.656016,153.034531 C195.2593,153.034531 195.786404,152.851721 196.237344,152.486094 C196.688284,152.120467 196.938125,151.66344 196.986875,151.115 L198.586484,151.115 C198.556015,151.681722 198.361017,152.221013 198.001484,152.732891 C197.641951,153.244768 197.162073,153.653045 196.561836,153.957734 C195.961599,154.262423 195.326331,154.414766 194.656016,154.414766 C193.30929,154.414766 192.238324,153.965356 191.443086,153.066523 C190.647848,152.167691 190.250234,150.938289 190.250234,149.378281 L190.250234,149.094922 C190.250234,148.132105 190.426951,147.275941 190.780391,146.526406 C191.13383,145.776871 191.64113,145.194924 192.302305,144.780547 C192.96348,144.36617 193.744995,144.158984 194.646875,144.158984 C195.755943,144.158984 196.677614,144.49109 197.411914,145.155313 C198.146215,145.819535 198.537734,146.681792 198.586484,147.742109 L196.986875,147.742109 C196.938125,147.102262 196.695901,146.576682 196.260195,146.165352 C195.82449,145.754021 195.286722,145.548359 194.646875,145.548359 C193.787652,145.548359 193.121916,145.857614 192.649648,146.476133 C192.17738,147.094652 191.94125,147.9889 191.94125,149.158906 L191.94125,149.478828 C191.94125,150.618365 192.175857,151.495856 192.645078,152.111328 C193.114299,152.7268 193.784605,153.034531 194.656016,153.034531 Z M204.591875,154.414766 C203.251243,154.414766 202.160473,153.974497 201.319531,153.093945 C200.47859,152.213394 200.058125,151.035789 200.058125,149.561094 L200.058125,149.250313 C200.058125,148.269214 200.245506,147.393246 200.620273,146.622383 C200.995041,145.85152 201.519098,145.248244 202.192461,144.812539 C202.865824,144.376834 203.595543,144.158984 204.381641,144.158984 C205.667428,144.158984 206.666793,144.582496 207.379766,145.429531 C208.092738,146.276567 208.449219,147.489211 208.449219,149.0675 L208.449219,149.771328 L201.749141,149.771328 C201.773516,150.746333 202.058396,151.533942 202.603789,152.13418 C203.149182,152.734417 203.84234,153.034531 204.683281,153.034531 C205.280472,153.034531 205.786248,152.912657 206.200625,152.668906 C206.615002,152.425155 206.977577,152.10219 207.288359,151.7 L208.32125,152.504375 C207.492496,153.777975 206.249383,154.414766 204.591875,154.414766 Z M204.381641,145.548359 C203.699137,145.548359 203.12633,145.796677 202.663203,146.29332 C202.200076,146.789963 201.913672,147.486167 201.803984,148.381953 L206.758203,148.381953 L206.758203,148.253984 C206.709453,147.394761 206.477893,146.729026 206.063516,146.256758 C205.649139,145.78449 205.088519,145.548359 204.381641,145.548359 Z M210.441875,153.345312 C210.441875,153.052811 210.52871,152.809063 210.702383,152.614063 C210.876056,152.419062 211.136561,152.321563 211.483906,152.321563 C211.831252,152.321563 212.094804,152.419062 212.27457,152.614063 C212.454337,152.809063 212.544219,153.052811 212.544219,153.345312 C212.544219,153.625626 212.454337,153.860233 212.27457,154.049141 C212.094804,154.238048 211.831252,154.3325 211.483906,154.3325 C211.136561,154.3325 210.876056,154.238048 210.702383,154.049141 C210.52871,153.860233 210.441875,153.625626 210.441875,153.345312 Z" id="Set-up-your-typeform" fill="#FFFFFF"></path>
                <polygon id="1" fill="#FFFFFF" points="37.6871094 70.0791992 33.5738281 70.0791992 33.5738281 25.1073242 20 30.1460937 20 26.3070312 37.0015625 20 37.6871094 20"></polygon>
                <rect id="Rectangle" x="0" y="0" width="298" height="199"></rect>
            </g>
        </g>
    </g>
</svg>