<?xml version="1.0" encoding="UTF-8"?>
<svg width="255px" height="117px" viewBox="0 0 255 117" version="1.1" xmlns="http://www.w3.org/2000/svg" xmlns:xlink="http://www.w3.org/1999/xlink">
    <!-- Generator: Sketch 49 (51002) - http://www.bohemiancoding.com/sketch -->
    <title>step-4</title>
    <desc>Created with Sketch.</desc>
    <defs></defs>
    <g id="Page-1" stroke="none" stroke-width="1" fill="none" fill-rule="evenodd">
        <g id="Artboard" transform="translate(-1086.000000, -556.000000)">
            <g id="step-4" transform="translate(1066.000000, 536.000000)">
                <rect id="Rectangle" x="0" y="0" width="298" height="199"></rect>
                <path d="M75.0363281,63.0435937 L64.4629102,63.0435937 L62.0634961,69.57 L60,69.57 L68.8138477,46.2796875 L70.6853906,46.2796875 L79.4992383,69.57 L77.4517383,69.57 L75.0363281,63.0435937 Z M65.0707617,61.3640039 L74.4124805,61.3640039 L69.7416211,48.6791016 L65.0707617,61.3640039 Z M84.2980664,52.2622266 L84.3620508,55.2215039 C85.0125618,54.1550923 85.8230225,53.3419657 86.793457,52.7820996 C87.7638916,52.2222335 88.8356191,51.9423047 90.0086719,51.9423047 C91.864228,51.9423047 93.2452103,52.4648385 94.1516602,53.5099219 C95.05811,54.5550052 95.5166601,56.1226067 95.5273242,58.2127734 L95.5273242,69.57 L93.6237891,69.57 L93.6237891,58.1967773 C93.6131249,56.6504805 93.2852083,55.4987733 92.6400293,54.7416211 C91.9948503,53.9844689 90.9631126,53.6058984 89.5447852,53.6058984 C88.3610683,53.6058984 87.3133346,53.9764709 86.4015527,54.717627 C85.4897708,55.458783 84.8152756,56.4585289 84.3780469,57.7168945 L84.3780469,69.57 L82.4745117,69.57 L82.4745117,52.2622266 L84.2980664,52.2622266 Z M111.395449,69.57 C111.203495,69.0261301 111.08086,68.2210014 111.027539,67.1545898 C110.3557,68.0290473 109.499917,68.7035425 108.460166,69.1780957 C107.420415,69.6526489 106.319361,69.8899219 105.156973,69.8899219 C103.493371,69.8899219 102.147046,69.4260398 101.117959,68.4982617 C100.088872,67.5704836 99.5743359,66.3974485 99.5743359,64.9791211 C99.5743359,63.2941908 100.275491,61.9611963 101.677822,60.9800977 C103.080153,59.998999 105.034323,59.508457 107.540391,59.508457 L111.011543,59.508457 L111.011543,57.5409375 C111.011543,56.3039001 110.630307,55.3308141 109.867822,54.6216504 C109.105338,53.9124867 107.993621,53.5579102 106.532637,53.5579102 C105.199622,53.5579102 104.095903,53.8991567 103.221445,54.5816602 C102.346988,55.2641636 101.909766,56.0852882 101.909766,57.0450586 L99.9902344,57.0290625 C99.9902344,55.6533916 100.630072,54.4616945 101.909766,53.4539355 C103.18946,52.4461766 104.762393,51.9423047 106.628613,51.9423047 C108.558818,51.9423047 110.081098,52.4248487 111.195498,53.3899512 C112.309898,54.3550537 112.883086,55.7013781 112.915078,57.4289648 L112.915078,65.6189648 C112.915078,67.293231 113.091033,68.5462458 113.442949,69.3780469 L113.442949,69.57 L111.395449,69.57 Z M105.380918,68.1943359 C106.660612,68.1943359 107.804321,67.8850812 108.81208,67.2665625 C109.819839,66.6480438 110.552986,65.8215872 111.011543,64.787168 L111.011543,60.9800977 L107.588379,60.9800977 C105.679502,61.0014259 104.186548,61.3506704 103.109473,62.0278418 C102.032397,62.7050132 101.493867,63.6354433 101.493867,64.8191602 C101.493867,65.7895947 101.853776,66.5947234 102.573604,67.2345703 C103.293431,67.8744173 104.229193,68.1943359 105.380918,68.1943359 Z M120.161309,69.57 L118.241777,69.57 L118.241777,45 L120.161309,45 L120.161309,69.57 Z M130.846699,66.8186719 L135.901465,52.2622266 L137.964961,52.2622266 L130.574766,72.5132813 L130.190859,73.4090625 C129.241753,75.5098933 127.775459,76.560293 125.791934,76.560293 C125.333377,76.560293 124.842835,76.4856453 124.320293,76.3363477 L124.304297,74.7527344 L125.296055,74.8487109 C126.234497,74.8487109 126.994304,74.6167699 127.575498,74.1528809 C128.156692,73.6889918 128.6499,72.8918611 129.055137,71.7614648 L129.90293,69.4260352 L123.376523,52.2622266 L125.472012,52.2622266 L130.846699,66.8186719 Z M142.18793,67.9543945 L153.433184,67.9543945 L153.433184,69.57 L139.820508,69.57 L139.820508,68.1623438 L150.313945,53.9098242 L140.14043,53.9098242 L140.14043,52.2622266 L152.729355,52.2622266 L152.729355,53.6858789 L142.18793,67.9543945 Z M163.302773,69.8899219 C161.831125,69.8899219 160.500797,69.5273474 159.311748,68.8021875 C158.122699,68.0770276 157.197601,67.0666178 156.536426,65.7709277 C155.875251,64.4752377 155.544668,63.0222737 155.544668,61.4119922 L155.544668,60.7241602 C155.544668,59.0605581 155.867253,57.5622723 156.512432,56.2292578 C157.157611,54.8962433 158.056049,53.8485097 159.207773,53.0860254 C160.359498,52.3235411 161.607181,51.9423047 162.950859,51.9423047 C165.05169,51.9423047 166.717933,52.6594557 167.949639,54.0937793 C169.181344,55.5281029 169.797188,57.4876048 169.797188,59.9723437 L169.797188,61.044082 L157.448203,61.044082 L157.448203,61.4119922 C157.448203,63.3741895 158.010727,65.0084407 159.135791,66.3147949 C160.260855,67.6211491 161.676495,68.2743164 163.382754,68.2743164 C164.406509,68.2743164 165.310279,68.0876972 166.094092,67.7144531 C166.877904,67.3412091 167.589723,66.7440275 168.22957,65.9228906 L169.429277,66.834668 C168.021614,68.8715141 165.979467,69.8899219 163.302773,69.8899219 Z M162.950859,53.5739062 C161.511204,53.5739062 160.298179,54.1017721 159.311748,55.1575195 C158.325317,56.213267 157.72547,57.6315731 157.512187,59.4124805 L167.893652,59.4124805 L167.893652,59.2045313 C167.840332,57.5409292 167.365786,56.1866068 166.47,55.1415234 C165.574214,54.0964401 164.401179,53.5739062 162.950859,53.5739062 Z" id="Analyze" fill="#FFFFFF"></path>
                <path d="M67.7348437,103.107734 C66.22968,102.675076 65.1343394,102.143402 64.4487891,101.512695 C63.7632388,100.881989 63.4204688,100.10352 63.4204688,99.1772656 C63.4204688,98.1291354 63.8394099,97.2623081 64.6773047,96.5767578 C65.5151995,95.8912075 66.6044464,95.5484375 67.9450781,95.5484375 C68.8591452,95.5484375 69.6741761,95.7251545 70.3901953,96.0785937 C71.1062145,96.432033 71.6607402,96.9195281 72.0537891,97.5410937 C72.4468379,98.1626594 72.6433594,98.8421057 72.6433594,99.5794531 L70.8792188,99.5794531 C70.8792188,98.7750741 70.6232838,98.1428539 70.1114062,97.6827734 C69.5995287,97.222693 68.8774265,96.9926562 67.9450781,96.9926562 C67.0797613,96.9926562 66.4048852,97.183084 65.9204297,97.5639453 C65.4359741,97.9448066 65.19375,98.4734341 65.19375,99.1498437 C65.19375,99.6921902 65.4237868,100.15074 65.8838672,100.525508 C66.3439476,100.900275 67.1269867,101.243045 68.2330078,101.553828 C69.339029,101.864611 70.2043328,102.207381 70.8289453,102.582148 C71.4535578,102.956916 71.9166782,103.394138 72.2183203,103.893828 C72.5199624,104.393518 72.6707812,104.981559 72.6707812,105.657969 C72.6707812,106.736568 72.2503167,107.600348 71.409375,108.249336 C70.5684333,108.898324 69.4441477,109.222812 68.0364844,109.222812 C67.1224173,109.222812 66.2693008,109.047619 65.4771094,108.697227 C64.6849179,108.346834 64.0740256,107.866956 63.6444141,107.257578 C63.2148025,106.6482 63,105.956566 63,105.182656 L64.7641406,105.182656 C64.7641406,105.987035 65.061208,106.622302 65.6553516,107.088477 C66.2494952,107.554651 67.0431982,107.787734 68.0364844,107.787734 C68.962739,107.787734 69.6726538,107.59883 70.16625,107.221016 C70.6598462,106.843201 70.9066406,106.328285 70.9066406,105.67625 C70.9066406,105.024215 70.6781273,104.519963 70.2210937,104.163477 C69.7640602,103.80699 68.9353185,103.45508 67.7348437,103.107734 Z M78.7584375,109.222812 C77.4178058,109.222812 76.3270355,108.782543 75.4860938,107.901992 C74.645152,107.021441 74.2246875,105.843835 74.2246875,104.369141 L74.2246875,104.058359 C74.2246875,103.077261 74.4120684,102.201293 74.7868359,101.43043 C75.1616034,100.659566 75.6856607,100.056291 76.3590234,99.6205859 C77.0323862,99.1848806 77.7621054,98.9670312 78.5482031,98.9670312 C79.8339908,98.9670312 80.8333558,99.3905426 81.5463281,100.237578 C82.2593004,101.084614 82.6157813,102.297258 82.6157813,103.875547 L82.6157813,104.579375 L75.9157031,104.579375 C75.9400782,105.55438 76.2249582,106.341989 76.7703516,106.942227 C77.3157449,107.542464 78.008902,107.842578 78.8498437,107.842578 C79.4470342,107.842578 79.9528104,107.720704 80.3671875,107.476953 C80.7815646,107.233202 81.1441391,106.910236 81.4549219,106.508047 L82.4878125,107.312422 C81.6590584,108.586022 80.4159458,109.222812 78.7584375,109.222812 Z M78.5482031,100.356406 C77.8656997,100.356406 77.2928929,100.604724 76.8297656,101.101367 C76.3666383,101.59801 76.0802349,102.294214 75.9705469,103.19 L80.9247656,103.19 L80.9247656,103.062031 C80.8760154,102.202808 80.6444552,101.537073 80.2300781,101.064805 C79.8157011,100.592537 79.2550817,100.356406 78.5482031,100.356406 Z M88.6760156,109.222812 C87.3353839,109.222812 86.2446136,108.782543 85.4036719,107.901992 C84.5627302,107.021441 84.1422656,105.843835 84.1422656,104.369141 L84.1422656,104.058359 C84.1422656,103.077261 84.3296466,102.201293 84.7044141,101.43043 C85.0791816,100.659566 85.6032388,100.056291 86.2766016,99.6205859 C86.9499643,99.1848806 87.6796836,98.9670312 88.4657812,98.9670312 C89.7515689,98.9670312 90.7509339,99.3905426 91.4639063,100.237578 C92.1768786,101.084614 92.5333594,102.297258 92.5333594,103.875547 L92.5333594,104.579375 L85.8332813,104.579375 C85.8576564,105.55438 86.1425363,106.341989 86.6879297,106.942227 C87.233323,107.542464 87.9264802,107.842578 88.7674219,107.842578 C89.3646124,107.842578 89.8703886,107.720704 90.2847656,107.476953 C90.6991427,107.233202 91.0617172,106.910236 91.3725,106.508047 L92.4053906,107.312422 C91.5766365,108.586022 90.3335239,109.222812 88.6760156,109.222812 Z M88.4657812,100.356406 C87.7832778,100.356406 87.2104711,100.604724 86.7473438,101.101367 C86.2842164,101.59801 85.997813,102.294214 85.888125,103.19 L90.8423438,103.19 L90.8423438,103.062031 C90.7935935,102.202808 90.5620333,101.537073 90.1476562,101.064805 C89.7332792,100.592537 89.1726598,100.356406 88.4657812,100.356406 Z M101.418047,96.755 L101.418047,99.1498437 L103.264453,99.1498437 L103.264453,100.456953 L101.418047,100.456953 L101.418047,106.590312 C101.418047,106.986408 101.500312,107.283476 101.664844,107.481523 C101.829376,107.679571 102.109686,107.778594 102.505781,107.778594 C102.700782,107.778594 102.968905,107.742032 103.310156,107.668906 L103.310156,109.04 C102.86531,109.161876 102.432658,109.222812 102.012187,109.222812 C101.256559,109.222812 100.686799,108.994299 100.302891,108.537266 C99.9189825,108.080232 99.7270312,107.431254 99.7270312,106.590312 L99.7270312,100.456953 L97.9263281,100.456953 L97.9263281,99.1498437 L99.7270312,99.1498437 L99.7270312,96.755 L101.418047,96.755 Z M106.929844,100.347266 C107.679379,99.4271048 108.654369,98.9670312 109.854844,98.9670312 C111.94501,98.9670312 112.999219,100.14616 113.0175,102.504453 L113.0175,109.04 L111.326484,109.04 L111.326484,102.495312 C111.320391,101.78234 111.157384,101.255236 110.837461,100.913984 C110.517537,100.572733 110.019378,100.402109 109.342969,100.402109 C108.794529,100.402109 108.313127,100.548358 107.89875,100.840859 C107.484373,101.133361 107.161407,101.517263 106.929844,101.992578 L106.929844,109.04 L105.238828,109.04 L105.238828,95 L106.929844,95 L106.929844,100.347266 Z M119.653594,109.222812 C118.312962,109.222812 117.222192,108.782543 116.38125,107.901992 C115.540308,107.021441 115.119844,105.843835 115.119844,104.369141 L115.119844,104.058359 C115.119844,103.077261 115.307225,102.201293 115.681992,101.43043 C116.05676,100.659566 116.580817,100.056291 117.25418,99.6205859 C117.927542,99.1848806 118.657262,98.9670312 119.443359,98.9670312 C120.729147,98.9670312 121.728512,99.3905426 122.441484,100.237578 C123.154457,101.084614 123.510937,102.297258 123.510937,103.875547 L123.510937,104.579375 L116.810859,104.579375 C116.835234,105.55438 117.120114,106.341989 117.665508,106.942227 C118.210901,107.542464 118.904058,107.842578 119.745,107.842578 C120.34219,107.842578 120.847967,107.720704 121.262344,107.476953 C121.676721,107.233202 122.039295,106.910236 122.350078,106.508047 L123.382969,107.312422 C122.554215,108.586022 121.311102,109.222812 119.653594,109.222812 Z M119.443359,100.356406 C118.760856,100.356406 118.188049,100.604724 117.724922,101.101367 C117.261795,101.59801 116.975391,102.294214 116.865703,103.19 L121.819922,103.19 L121.819922,103.062031 C121.771172,102.202808 121.539611,101.537073 121.125234,101.064805 C120.710857,100.592537 120.150238,100.356406 119.443359,100.356406 Z M134.881875,100.667187 C134.625936,100.624531 134.348673,100.603203 134.050078,100.603203 C132.94101,100.603203 132.188439,101.075464 131.792344,102.02 L131.792344,109.04 L130.101328,109.04 L130.101328,99.1498437 L131.746641,99.1498437 L131.774062,100.292422 C132.328597,99.4088237 133.114682,98.9670312 134.132344,98.9670312 C134.461408,98.9670312 134.711249,99.0096871 134.881875,99.095 L134.881875,100.667187 Z M140.36625,109.222812 C139.025618,109.222812 137.934848,108.782543 137.093906,107.901992 C136.252965,107.021441 135.8325,105.843835 135.8325,104.369141 L135.8325,104.058359 C135.8325,103.077261 136.019881,102.201293 136.394648,101.43043 C136.769416,100.659566 137.293473,100.056291 137.966836,99.6205859 C138.640199,99.1848806 139.369918,98.9670312 140.156016,98.9670312 C141.441803,98.9670312 142.441168,99.3905426 143.154141,100.237578 C143.867113,101.084614 144.223594,102.297258 144.223594,103.875547 L144.223594,104.579375 L137.523516,104.579375 C137.547891,105.55438 137.832771,106.341989 138.378164,106.942227 C138.923557,107.542464 139.616715,107.842578 140.457656,107.842578 C141.054847,107.842578 141.560623,107.720704 141.975,107.476953 C142.389377,107.233202 142.751952,106.910236 143.062734,106.508047 L144.095625,107.312422 C143.266871,108.586022 142.023758,109.222812 140.36625,109.222812 Z M140.156016,100.356406 C139.473512,100.356406 138.900705,100.604724 138.437578,101.101367 C137.974451,101.59801 137.688047,102.294214 137.578359,103.19 L142.532578,103.19 L142.532578,103.062031 C142.483828,102.202808 142.252268,101.537073 141.837891,101.064805 C141.423514,100.592537 140.862894,100.356406 140.156016,100.356406 Z M152.285625,109.04 C152.188125,108.844999 152.108907,108.497659 152.047969,107.997969 C151.261871,108.814535 150.323443,109.222812 149.232656,109.222812 C148.257651,109.222812 147.457855,108.947073 146.833242,108.395586 C146.20863,107.844099 145.896328,107.144848 145.896328,106.297812 C145.896328,105.267964 146.287848,104.468167 147.070898,103.898398 C147.853949,103.32863 148.955384,103.04375 150.375234,103.04375 L152.020547,103.04375 L152.020547,102.266797 C152.020547,101.6757 151.84383,101.204963 151.490391,100.85457 C151.136951,100.504178 150.615941,100.328984 149.927344,100.328984 C149.324059,100.328984 148.818283,100.481327 148.41,100.786016 C148.001717,101.090705 147.797578,101.459373 147.797578,101.892031 L146.097422,101.892031 C146.097422,101.398435 146.272615,100.921604 146.623008,100.461523 C146.9734,100.001443 147.448708,99.6373451 148.048945,99.3692187 C148.649183,99.1010924 149.308825,98.9670312 150.027891,98.9670312 C151.167428,98.9670312 152.060153,99.2519112 152.706094,99.8216797 C153.352034,100.391448 153.687187,101.176011 153.711562,102.175391 L153.711562,106.727422 C153.711562,107.635395 153.827343,108.357497 154.058906,108.89375 L154.058906,109.04 L152.285625,109.04 Z M149.479453,107.751172 C150.009612,107.751172 150.512341,107.614064 150.987656,107.339844 C151.462971,107.065624 151.807265,106.709143 152.020547,106.270391 L152.020547,104.241172 L150.695156,104.241172 C148.623271,104.241172 147.587344,104.847494 147.587344,106.060156 C147.587344,106.590315 147.764061,107.004686 148.1175,107.303281 C148.470939,107.601876 148.924919,107.751172 149.479453,107.751172 Z M158.199609,109.04 L156.508594,109.04 L156.508594,95 L158.199609,95 L158.199609,109.04 Z M164.424375,104.076641 L159.96375,104.076641 L159.96375,102.696406 L164.424375,102.696406 L164.424375,104.076641 Z M168.363984,96.755 L168.363984,99.1498437 L170.210391,99.1498437 L170.210391,100.456953 L168.363984,100.456953 L168.363984,106.590312 C168.363984,106.986408 168.446249,107.283476 168.610781,107.481523 C168.775313,107.679571 169.055623,107.778594 169.451719,107.778594 C169.64672,107.778594 169.914842,107.742032 170.256094,107.668906 L170.256094,109.04 C169.811248,109.161876 169.378596,109.222812 168.958125,109.222812 C168.202496,109.222812 167.632736,108.994299 167.248828,108.537266 C166.86492,108.080232 166.672969,107.431254 166.672969,106.590312 L166.672969,100.456953 L164.872266,100.456953 L164.872266,99.1498437 L166.672969,99.1498437 L166.672969,96.755 L168.363984,96.755 Z M174.022031,109.04 L172.331016,109.04 L172.331016,99.1498437 L174.022031,99.1498437 L174.022031,109.04 Z M172.193906,96.5264844 C172.193906,96.2522643 172.277694,96.0207041 172.445273,95.8317969 C172.612852,95.6428897 172.86117,95.5484375 173.190234,95.5484375 C173.519299,95.5484375 173.76914,95.6428897 173.939766,95.8317969 C174.110391,96.0207041 174.195703,96.2522643 174.195703,96.5264844 C174.195703,96.8007045 174.110391,97.0292178 173.939766,97.2120312 C173.76914,97.3948447 173.519299,97.48625 173.190234,97.48625 C172.86117,97.48625 172.612852,97.3948447 172.445273,97.2120312 C172.277694,97.0292178 172.193906,96.8007045 172.193906,96.5264844 Z M178.318125,99.1498437 L178.363828,100.246719 C179.088988,99.3935895 180.067025,98.9670312 181.297969,98.9670312 C182.681257,98.9670312 183.622732,99.4971822 184.122422,100.5575 C184.451486,100.082185 184.879568,99.6982827 185.40668,99.4057813 C185.933792,99.1132798 186.556871,98.9670312 187.275938,98.9670312 C189.445323,98.9670312 190.548281,100.115692 190.584844,102.413047 L190.584844,109.04 L188.893828,109.04 L188.893828,102.513594 C188.893828,101.806715 188.732345,101.278088 188.409375,100.927695 C188.086405,100.577303 187.544066,100.402109 186.782344,100.402109 C186.154684,100.402109 185.633674,100.58949 185.219297,100.964258 C184.80492,101.339025 184.564219,101.843278 184.497187,102.477031 L184.497187,109.04 L182.797031,109.04 L182.797031,102.559297 C182.797031,101.121165 182.09321,100.402109 180.685547,100.402109 C179.576479,100.402109 178.817815,100.87437 178.409531,101.818906 L178.409531,109.04 L176.718516,109.04 L176.718516,99.1498437 L178.318125,99.1498437 Z M197.239219,109.222812 C195.898587,109.222812 194.807817,108.782543 193.966875,107.901992 C193.125933,107.021441 192.705469,105.843835 192.705469,104.369141 L192.705469,104.058359 C192.705469,103.077261 192.89285,102.201293 193.267617,101.43043 C193.642385,100.659566 194.166442,100.056291 194.839805,99.6205859 C195.513167,99.1848806 196.242887,98.9670312 197.028984,98.9670312 C198.314772,98.9670312 199.314137,99.3905426 200.027109,100.237578 C200.740082,101.084614 201.096562,102.297258 201.096562,103.875547 L201.096562,104.579375 L194.396484,104.579375 C194.420859,105.55438 194.705739,106.341989 195.251133,106.942227 C195.796526,107.542464 196.489683,107.842578 197.330625,107.842578 C197.927815,107.842578 198.433592,107.720704 198.847969,107.476953 C199.262346,107.233202 199.62492,106.910236 199.935703,106.508047 L200.968594,107.312422 C200.13984,108.586022 198.896727,109.222812 197.239219,109.222812 Z M197.028984,100.356406 C196.346481,100.356406 195.773674,100.604724 195.310547,101.101367 C194.84742,101.59801 194.561016,102.294214 194.451328,103.19 L199.405547,103.19 L199.405547,103.062031 C199.356797,102.202808 199.125236,101.537073 198.710859,101.064805 C198.296482,100.592537 197.735863,100.356406 197.028984,100.356406 Z M212.4675,100.667187 C212.211561,100.624531 211.934298,100.603203 211.635703,100.603203 C210.526635,100.603203 209.774064,101.075464 209.377969,102.02 L209.377969,109.04 L207.686953,109.04 L207.686953,99.1498437 L209.332266,99.1498437 L209.359688,100.292422 C209.914222,99.4088237 210.700307,98.9670312 211.717969,98.9670312 C212.047033,98.9670312 212.296874,99.0096871 212.4675,99.095 L212.4675,100.667187 Z M217.951875,109.222812 C216.611243,109.222812 215.520473,108.782543 214.679531,107.901992 C213.83859,107.021441 213.418125,105.843835 213.418125,104.369141 L213.418125,104.058359 C213.418125,103.077261 213.605506,102.201293 213.980273,101.43043 C214.355041,100.659566 214.879098,100.056291 215.552461,99.6205859 C216.225824,99.1848806 216.955543,98.9670312 217.741641,98.9670312 C219.027428,98.9670312 220.026793,99.3905426 220.739766,100.237578 C221.452738,101.084614 221.809219,102.297258 221.809219,103.875547 L221.809219,104.579375 L215.109141,104.579375 C215.133516,105.55438 215.418396,106.341989 215.963789,106.942227 C216.509182,107.542464 217.20234,107.842578 218.043281,107.842578 C218.640472,107.842578 219.146248,107.720704 219.560625,107.476953 C219.975002,107.233202 220.337577,106.910236 220.648359,106.508047 L221.68125,107.312422 C220.852496,108.586022 219.609383,109.222812 217.951875,109.222812 Z M217.741641,100.356406 C217.059137,100.356406 216.48633,100.604724 216.023203,101.101367 C215.560076,101.59801 215.273672,102.294214 215.163984,103.19 L220.118203,103.19 L220.118203,103.062031 C220.069453,102.202808 219.837893,101.537073 219.423516,101.064805 C219.009139,100.592537 218.448519,100.356406 217.741641,100.356406 Z M229.523906,106.416641 C229.523906,105.959607 229.35176,105.60465 229.007461,105.351758 C228.663162,105.098866 228.062934,104.881017 227.206758,104.698203 C226.350582,104.51539 225.671135,104.296017 225.168398,104.040078 C224.665662,103.784139 224.293947,103.479455 224.053242,103.126016 C223.812538,102.772576 223.692188,102.352112 223.692188,101.864609 C223.692188,101.054137 224.034958,100.368597 224.720508,99.8079687 C225.406058,99.2473409 226.282026,98.9670312 227.348438,98.9670312 C228.469693,98.9670312 229.379176,99.2564815 230.076914,99.8353906 C230.774652,100.4143 231.123516,101.154683 231.123516,102.056562 L229.423359,102.056562 C229.423359,101.593435 229.226838,101.194299 228.833789,100.859141 C228.44074,100.523983 227.945628,100.356406 227.348438,100.356406 C226.732966,100.356406 226.251564,100.490467 225.904219,100.758594 C225.556873,101.02672 225.383203,101.377107 225.383203,101.809766 C225.383203,102.218049 225.544686,102.52578 225.867656,102.732969 C226.190627,102.940157 226.774097,103.138202 227.618086,103.327109 C228.462075,103.516017 229.146091,103.741483 229.670156,104.003516 C230.194221,104.265548 230.582694,104.580897 230.835586,104.94957 C231.088478,105.318244 231.214922,105.767654 231.214922,106.297812 C231.214922,107.181411 230.861488,107.889802 230.154609,108.423008 C229.447731,108.956214 228.530631,109.222812 227.403281,109.222812 C226.61109,109.222812 225.910316,109.082658 225.300937,108.802344 C224.691559,108.52203 224.214728,108.13051 223.87043,107.627773 C223.526131,107.125037 223.353984,106.581175 223.353984,105.996172 L225.045,105.996172 C225.075469,106.562893 225.302459,107.012303 225.725977,107.344414 C226.149494,107.676525 226.70859,107.842578 227.403281,107.842578 C228.043128,107.842578 228.556522,107.713087 228.943477,107.454102 C229.330432,107.195116 229.523906,106.849299 229.523906,106.416641 Z M239.52375,108.061953 C238.865622,108.835863 237.899772,109.222812 236.626172,109.222812 C235.571948,109.222812 234.769104,108.916605 234.217617,108.30418 C233.66613,107.691755 233.387344,106.785319 233.38125,105.584844 L233.38125,99.1498437 L235.072266,99.1498437 L235.072266,105.539141 C235.072266,107.038211 235.681635,107.787734 236.900391,107.787734 C238.192272,107.787734 239.051482,107.306333 239.478047,106.343516 L239.478047,99.1498437 L241.169062,99.1498437 L241.169062,109.04 L239.560313,109.04 L239.52375,108.061953 Z M245.574844,109.04 L243.883828,109.04 L243.883828,95 L245.574844,95 L245.574844,109.04 Z M250.574766,96.755 L250.574766,99.1498437 L252.421172,99.1498437 L252.421172,100.456953 L250.574766,100.456953 L250.574766,106.590312 C250.574766,106.986408 250.65703,107.283476 250.821563,107.481523 C250.986095,107.679571 251.266404,107.778594 251.6625,107.778594 C251.857501,107.778594 252.125623,107.742032 252.466875,107.668906 L252.466875,109.04 C252.022029,109.161876 251.589377,109.222812 251.168906,109.222812 C250.413277,109.222812 249.843518,108.994299 249.459609,108.537266 C249.075701,108.080232 248.88375,107.431254 248.88375,106.590312 L248.88375,100.456953 L247.083047,100.456953 L247.083047,99.1498437 L248.88375,99.1498437 L248.88375,96.755 L250.574766,96.755 Z M260.154141,106.416641 C260.154141,105.959607 259.981994,105.60465 259.637695,105.351758 C259.293397,105.098866 258.693168,104.881017 257.836992,104.698203 C256.980816,104.51539 256.30137,104.296017 255.798633,104.040078 C255.295896,103.784139 254.924181,103.479455 254.683477,103.126016 C254.442772,102.772576 254.322422,102.352112 254.322422,101.864609 C254.322422,101.054137 254.665192,100.368597 255.350742,99.8079687 C256.036292,99.2473409 256.91226,98.9670312 257.978672,98.9670312 C259.099927,98.9670312 260.009411,99.2564815 260.707148,99.8353906 C261.404886,100.4143 261.75375,101.154683 261.75375,102.056562 L260.053594,102.056562 C260.053594,101.593435 259.857072,101.194299 259.464023,100.859141 C259.070975,100.523983 258.575862,100.356406 257.978672,100.356406 C257.3632,100.356406 256.881799,100.490467 256.534453,100.758594 C256.187108,101.02672 256.013438,101.377107 256.013438,101.809766 C256.013438,102.218049 256.17492,102.52578 256.497891,102.732969 C256.820861,102.940157 257.404332,103.138202 258.24832,103.327109 C259.092309,103.516017 259.776326,103.741483 260.300391,104.003516 C260.824456,104.265548 261.212928,104.580897 261.46582,104.94957 C261.718712,105.318244 261.845156,105.767654 261.845156,106.297812 C261.845156,107.181411 261.491722,107.889802 260.784844,108.423008 C260.077965,108.956214 259.160865,109.222812 258.033516,109.222812 C257.241324,109.222812 256.54055,109.082658 255.931172,108.802344 C255.321794,108.52203 254.844963,108.13051 254.500664,107.627773 C254.156365,107.125037 253.984219,106.581175 253.984219,105.996172 L255.675234,105.996172 C255.705703,106.562893 255.932693,107.012303 256.356211,107.344414 C256.779729,107.676525 257.338825,107.842578 258.033516,107.842578 C258.673363,107.842578 259.186756,107.713087 259.573711,107.454102 C259.960666,107.195116 260.154141,106.849299 260.154141,106.416641 Z M65.3857031,132.04 L63.6946875,132.04 L63.6946875,122.149844 L65.3857031,122.149844 L65.3857031,132.04 Z M63.5575781,119.526484 C63.5575781,119.252264 63.6413663,119.020704 63.8089453,118.831797 C63.9765243,118.64289 64.2248421,118.548437 64.5539062,118.548437 C64.8829704,118.548437 65.1328116,118.64289 65.3034375,118.831797 C65.4740634,119.020704 65.559375,119.252264 65.559375,119.526484 C65.559375,119.800704 65.4740634,120.029218 65.3034375,120.212031 C65.1328116,120.394845 64.8829704,120.48625 64.5539062,120.48625 C64.2248421,120.48625 63.9765243,120.394845 63.8089453,120.212031 C63.6413663,120.029218 63.5575781,119.800704 63.5575781,119.526484 Z M69.6909375,122.149844 L69.7457812,123.392969 C70.50141,122.442339 71.4885877,121.967031 72.7073438,121.967031 C74.7975105,121.967031 75.8517187,123.14616 75.87,125.504453 L75.87,132.04 L74.1789844,132.04 L74.1789844,125.495312 C74.1728906,124.78234 74.0098844,124.255236 73.6899609,123.913984 C73.3700375,123.572733 72.8718784,123.402109 72.1954687,123.402109 C71.6470285,123.402109 71.1656271,123.548358 70.75125,123.840859 C70.3368729,124.133361 70.0139074,124.517263 69.7823437,124.992578 L69.7823437,132.04 L68.0913281,132.04 L68.0913281,122.149844 L69.6909375,122.149844 Z M86.2903125,129.562891 L88.59375,122.149844 L90.4035938,122.149844 L86.4274219,133.566484 C85.81195,135.211805 84.833913,136.034453 83.4932812,136.034453 L83.1733594,136.007031 L82.5426562,135.888203 L82.5426562,134.517109 L82.9996875,134.553672 C83.5725029,134.553672 84.0188656,134.437892 84.3387891,134.206328 C84.6587125,133.974764 84.9222646,133.551253 85.1294531,132.935781 L85.5042188,131.930313 L81.9759375,122.149844 L83.8223437,122.149844 L86.2903125,129.562891 Z M91.3267969,127.003516 C91.3267969,126.034605 91.5172247,125.163207 91.8980859,124.389297 C92.2789472,123.615387 92.8090982,123.018205 93.4885547,122.597734 C94.1680112,122.177264 94.9434331,121.967031 95.8148437,121.967031 C97.1615692,121.967031 98.2508162,122.433198 99.0826172,123.365547 C99.9144182,124.297895 100.330312,125.537961 100.330312,127.085781 L100.330312,127.204609 C100.330312,128.167427 100.145978,129.031207 99.7773047,129.795977 C99.408631,130.560746 98.8815269,131.156404 98.1959766,131.582969 C97.5104263,132.009533 96.7228169,132.222812 95.833125,132.222812 C94.4924933,132.222812 93.4062932,131.756645 92.5744922,130.824297 C91.7426912,129.891948 91.3267969,128.657976 91.3267969,127.122344 L91.3267969,127.003516 Z M93.0269531,127.204609 C93.0269531,128.30149 93.2813646,129.182028 93.7901953,129.84625 C94.299026,130.510472 94.9799957,130.842578 95.833125,130.842578 C96.692348,130.842578 97.3748412,130.505902 97.880625,129.832539 C98.3864088,129.159176 98.6392969,128.216178 98.6392969,127.003516 C98.6392969,125.918823 98.3818385,125.039808 97.8669141,124.366445 C97.3519896,123.693083 96.667973,123.356406 95.8148437,123.356406 C94.9799958,123.356406 94.3066432,123.688512 93.7947656,124.352734 C93.2828881,125.016956 93.0269531,125.967572 93.0269531,127.204609 Z M108.556875,131.061953 C107.898747,131.835863 106.932897,132.222812 105.659297,132.222812 C104.605073,132.222812 103.802229,131.916605 103.250742,131.30418 C102.699255,130.691755 102.420469,129.785319 102.414375,128.584844 L102.414375,122.149844 L104.105391,122.149844 L104.105391,128.539141 C104.105391,130.038211 104.71476,130.787734 105.933516,130.787734 C107.225397,130.787734 108.084607,130.306333 108.511172,129.343516 L108.511172,122.149844 L110.202188,122.149844 L110.202188,132.04 L108.593437,132.04 L108.556875,131.061953 Z M117.55125,123.667187 C117.295311,123.624531 117.018048,123.603203 116.719453,123.603203 C115.610385,123.603203 114.857814,124.075464 114.461719,125.02 L114.461719,132.04 L112.770703,132.04 L112.770703,122.149844 L114.416016,122.149844 L114.443437,123.292422 C114.997972,122.408824 115.784057,121.967031 116.801719,121.967031 C117.130783,121.967031 117.380624,122.009687 117.55125,122.095 L117.55125,123.667187 Z M132.093984,127.204609 C132.093984,128.709773 131.749691,129.922417 131.061094,130.842578 C130.372497,131.762739 129.440162,132.222812 128.264062,132.222812 C127.063588,132.222812 126.119066,131.841957 125.430469,131.080234 L125.430469,135.8425 L123.739453,135.8425 L123.739453,122.149844 L125.284219,122.149844 L125.366484,123.246719 C126.055082,122.393589 127.011791,121.967031 128.236641,121.967031 C129.424928,121.967031 130.364879,122.414917 131.056523,123.310703 C131.748168,124.206489 132.093984,125.452648 132.093984,127.049219 L132.093984,127.204609 Z M130.402969,127.012656 C130.402969,125.897494 130.165315,125.016956 129.69,124.371016 C129.214685,123.725075 128.56266,123.402109 127.733906,123.402109 C126.710151,123.402109 125.942346,123.856089 125.430469,124.764062 L125.430469,129.489766 C125.936253,130.391645 126.710151,130.842578 127.752187,130.842578 C128.56266,130.842578 129.207068,130.521136 129.68543,129.878242 C130.163791,129.235348 130.402969,128.280163 130.402969,127.012656 Z M139.022578,123.667187 C138.766639,123.624531 138.489376,123.603203 138.190781,123.603203 C137.081713,123.603203 136.329143,124.075464 135.933047,125.02 L135.933047,132.04 L134.242031,132.04 L134.242031,122.149844 L135.887344,122.149844 L135.914766,123.292422 C136.4693,122.408824 137.255386,121.967031 138.273047,121.967031 C138.602111,121.967031 138.851952,122.009687 139.022578,122.095 L139.022578,123.667187 Z M144.506953,132.222812 C143.166321,132.222812 142.075551,131.782543 141.234609,130.901992 C140.393668,130.021441 139.973203,128.843835 139.973203,127.369141 L139.973203,127.058359 C139.973203,126.077261 140.160584,125.201293 140.535352,124.43043 C140.910119,123.659566 141.434176,123.056291 142.107539,122.620586 C142.780902,122.184881 143.510621,121.967031 144.296719,121.967031 C145.582506,121.967031 146.581871,122.390543 147.294844,123.237578 C148.007816,124.084614 148.364297,125.297258 148.364297,126.875547 L148.364297,127.579375 L141.664219,127.579375 C141.688594,128.55438 141.973474,129.341989 142.518867,129.942227 C143.064261,130.542464 143.757418,130.842578 144.598359,130.842578 C145.19555,130.842578 145.701326,130.720704 146.115703,130.476953 C146.53008,130.233202 146.892655,129.910236 147.203438,129.508047 L148.236328,130.312422 C147.407574,131.586022 146.164461,132.222812 144.506953,132.222812 Z M144.296719,123.356406 C143.614215,123.356406 143.041409,123.604724 142.578281,124.101367 C142.115154,124.59801 141.828751,125.294214 141.719063,126.19 L146.673281,126.19 L146.673281,126.062031 C146.624531,125.202808 146.392971,124.537073 145.978594,124.064805 C145.564217,123.592537 145.003597,123.356406 144.296719,123.356406 Z M156.078984,129.416641 C156.078984,128.959607 155.906838,128.60465 155.562539,128.351758 C155.21824,128.098866 154.618012,127.881017 153.761836,127.698203 C152.90566,127.51539 152.226213,127.296017 151.723477,127.040078 C151.22074,126.784139 150.849025,126.479455 150.60832,126.126016 C150.367616,125.772576 150.247266,125.352112 150.247266,124.864609 C150.247266,124.054137 150.590036,123.368597 151.275586,122.807969 C151.961136,122.247341 152.837104,121.967031 153.903516,121.967031 C155.024771,121.967031 155.934254,122.256481 156.631992,122.835391 C157.32973,123.4143 157.678594,124.154683 157.678594,125.056562 L155.978437,125.056562 C155.978437,124.593435 155.781916,124.194299 155.388867,123.859141 C154.995818,123.523983 154.500706,123.356406 153.903516,123.356406 C153.288044,123.356406 152.806642,123.490467 152.459297,123.758594 C152.111951,124.02672 151.938281,124.377107 151.938281,124.809766 C151.938281,125.218049 152.099764,125.52578 152.422734,125.732969 C152.745705,125.940157 153.329175,126.138202 154.173164,126.327109 C155.017153,126.516017 155.701169,126.741483 156.225234,127.003516 C156.749299,127.265548 157.137772,127.580897 157.390664,127.94957 C157.643556,128.318244 157.77,128.767654 157.77,129.297812 C157.77,130.181411 157.416566,130.889802 156.709687,131.423008 C156.002809,131.956214 155.085709,132.222812 153.958359,132.222812 C153.166168,132.222812 152.465394,132.082658 151.856016,131.802344 C151.246638,131.52203 150.769806,131.13051 150.425508,130.627773 C150.081209,130.125037 149.909062,129.581175 149.909062,128.996172 L151.600078,128.996172 C151.630547,129.562893 151.857537,130.012303 152.281055,130.344414 C152.704572,130.676525 153.263668,130.842578 153.958359,130.842578 C154.598206,130.842578 155.1116,130.713087 155.498555,130.454102 C155.88551,130.195116 156.078984,129.849299 156.078984,129.416641 Z M164.077031,132.222812 C162.7364,132.222812 161.645629,131.782543 160.804688,130.901992 C159.963746,130.021441 159.543281,128.843835 159.543281,127.369141 L159.543281,127.058359 C159.543281,126.077261 159.730662,125.201293 160.10543,124.43043 C160.480197,123.659566 161.004254,123.056291 161.677617,122.620586 C162.35098,122.184881 163.080699,121.967031 163.866797,121.967031 C165.152585,121.967031 166.15195,122.390543 166.864922,123.237578 C167.577894,124.084614 167.934375,125.297258 167.934375,126.875547 L167.934375,127.579375 L161.234297,127.579375 C161.258672,128.55438 161.543552,129.341989 162.088945,129.942227 C162.634339,130.542464 163.327496,130.842578 164.168437,130.842578 C164.765628,130.842578 165.271404,130.720704 165.685781,130.476953 C166.100158,130.233202 166.462733,129.910236 166.773516,129.508047 L167.806406,130.312422 C166.977652,131.586022 165.73454,132.222812 164.077031,132.222812 Z M163.866797,123.356406 C163.184293,123.356406 162.611487,123.604724 162.148359,124.101367 C161.685232,124.59801 161.398829,125.294214 161.289141,126.19 L166.243359,126.19 L166.243359,126.062031 C166.194609,125.202808 165.963049,124.537073 165.548672,124.064805 C165.134295,123.592537 164.573675,123.356406 163.866797,123.356406 Z M171.490078,122.149844 L171.544922,123.392969 C172.300551,122.442339 173.287728,121.967031 174.506484,121.967031 C176.596651,121.967031 177.650859,123.14616 177.669141,125.504453 L177.669141,132.04 L175.978125,132.04 L175.978125,125.495312 C175.972031,124.78234 175.809025,124.255236 175.489102,123.913984 C175.169178,123.572733 174.671019,123.402109 173.994609,123.402109 C173.446169,123.402109 172.964768,123.548358 172.550391,123.840859 C172.136014,124.133361 171.813048,124.517263 171.581484,124.992578 L171.581484,132.04 L169.890469,132.04 L169.890469,122.149844 L171.490078,122.149844 Z M182.513672,119.755 L182.513672,122.149844 L184.360078,122.149844 L184.360078,123.456953 L182.513672,123.456953 L182.513672,129.590312 C182.513672,129.986408 182.595937,130.283476 182.760469,130.481523 C182.925001,130.679571 183.205311,130.778594 183.601406,130.778594 C183.796407,130.778594 184.06453,130.742032 184.405781,130.668906 L184.405781,132.04 C183.960935,132.161876 183.528283,132.222812 183.107812,132.222812 C182.352184,132.222812 181.782424,131.994299 181.398516,131.537266 C181.014607,131.080232 180.822656,130.431254 180.822656,129.590312 L180.822656,123.456953 L179.021953,123.456953 L179.021953,122.149844 L180.822656,122.149844 L180.822656,119.755 L182.513672,119.755 Z M192.440391,132.04 C192.34289,131.844999 192.263672,131.497659 192.202734,130.997969 C191.416637,131.814535 190.478209,132.222812 189.387422,132.222812 C188.412417,132.222812 187.61262,131.947073 186.988008,131.395586 C186.363395,130.844099 186.051094,130.144848 186.051094,129.297812 C186.051094,128.267964 186.442613,127.468167 187.225664,126.898398 C188.008715,126.32863 189.110149,126.04375 190.53,126.04375 L192.175313,126.04375 L192.175313,125.266797 C192.175313,124.6757 191.998596,124.204963 191.645156,123.85457 C191.291717,123.504178 190.770707,123.328984 190.082109,123.328984 C189.478825,123.328984 188.973049,123.481327 188.564766,123.786016 C188.156482,124.090705 187.952344,124.459373 187.952344,124.892031 L186.252187,124.892031 C186.252187,124.398435 186.427381,123.921604 186.777773,123.461523 C187.128166,123.001443 187.603474,122.637345 188.203711,122.369219 C188.803948,122.101092 189.46359,121.967031 190.182656,121.967031 C191.322193,121.967031 192.214919,122.251911 192.860859,122.82168 C193.5068,123.391448 193.841953,124.176011 193.866328,125.175391 L193.866328,129.727422 C193.866328,130.635395 193.982108,131.357497 194.213672,131.89375 L194.213672,132.04 L192.440391,132.04 Z M189.634219,130.751172 C190.164378,130.751172 190.667107,130.614064 191.142422,130.339844 C191.617737,130.065624 191.96203,129.709143 192.175313,129.270391 L192.175313,127.241172 L190.849922,127.241172 C188.778037,127.241172 187.742109,127.847494 187.742109,129.060156 C187.742109,129.590315 187.918826,130.004686 188.272266,130.303281 C188.625705,130.601876 189.079685,130.751172 189.634219,130.751172 Z M198.811406,119.755 L198.811406,122.149844 L200.657812,122.149844 L200.657812,123.456953 L198.811406,123.456953 L198.811406,129.590312 C198.811406,129.986408 198.893671,130.283476 199.058203,130.481523 C199.222735,130.679571 199.503045,130.778594 199.899141,130.778594 C200.094142,130.778594 200.362264,130.742032 200.703516,130.668906 L200.703516,132.04 C200.25867,132.161876 199.826018,132.222812 199.405547,132.222812 C198.649918,132.222812 198.080158,131.994299 197.69625,131.537266 C197.312342,131.080232 197.120391,130.431254 197.120391,129.590312 L197.120391,123.456953 L195.319687,123.456953 L195.319687,122.149844 L197.120391,122.149844 L197.120391,119.755 L198.811406,119.755 Z M204.469453,132.04 L202.778437,132.04 L202.778437,122.149844 L204.469453,122.149844 L204.469453,132.04 Z M202.641328,119.526484 C202.641328,119.252264 202.725116,119.020704 202.892695,118.831797 C203.060274,118.64289 203.308592,118.548437 203.637656,118.548437 C203.96672,118.548437 204.216562,118.64289 204.387187,118.831797 C204.557813,119.020704 204.643125,119.252264 204.643125,119.526484 C204.643125,119.800704 204.557813,120.029218 204.387187,120.212031 C204.216562,120.394845 203.96672,120.48625 203.637656,120.48625 C203.308592,120.48625 203.060274,120.394845 202.892695,120.212031 C202.725116,120.029218 202.641328,119.800704 202.641328,119.526484 Z M206.727187,127.003516 C206.727187,126.034605 206.917615,125.163207 207.298477,124.389297 C207.679338,123.615387 208.209489,123.018205 208.888945,122.597734 C209.568402,122.177264 210.343824,121.967031 211.215234,121.967031 C212.56196,121.967031 213.651207,122.433198 214.483008,123.365547 C215.314809,124.297895 215.730703,125.537961 215.730703,127.085781 L215.730703,127.204609 C215.730703,128.167427 215.546369,129.031207 215.177695,129.795977 C214.809022,130.560746 214.281917,131.156404 213.596367,131.582969 C212.910817,132.009533 212.123208,132.222812 211.233516,132.222812 C209.892884,132.222812 208.806684,131.756645 207.974883,130.824297 C207.143082,129.891948 206.727187,128.657976 206.727187,127.122344 L206.727187,127.003516 Z M208.427344,127.204609 C208.427344,128.30149 208.681755,129.182028 209.190586,129.84625 C209.699417,130.510472 210.380386,130.842578 211.233516,130.842578 C212.092739,130.842578 212.775232,130.505902 213.281016,129.832539 C213.786799,129.159176 214.039687,128.216178 214.039687,127.003516 C214.039687,125.918823 213.782229,125.039808 213.267305,124.366445 C212.75238,123.693083 212.068364,123.356406 211.215234,123.356406 C210.380386,123.356406 209.707034,123.688512 209.195156,124.352734 C208.683279,125.016956 208.427344,125.967572 208.427344,127.204609 Z M219.450938,122.149844 L219.505781,123.392969 C220.26141,122.442339 221.248588,121.967031 222.467344,121.967031 C224.55751,121.967031 225.611719,123.14616 225.63,125.504453 L225.63,132.04 L223.938984,132.04 L223.938984,125.495312 C223.932891,124.78234 223.769884,124.255236 223.449961,123.913984 C223.130037,123.572733 222.631878,123.402109 221.955469,123.402109 C221.407029,123.402109 220.925627,123.548358 220.51125,123.840859 C220.096873,124.133361 219.773907,124.517263 219.542344,124.992578 L219.542344,132.04 L217.851328,132.04 L217.851328,122.149844 L219.450938,122.149844 Z M232.403203,127.012656 C232.403203,125.495305 232.762731,124.275044 233.481797,123.351836 C234.200863,122.428628 235.142338,121.967031 236.30625,121.967031 C237.464068,121.967031 238.381168,122.363121 239.057578,123.155312 L239.057578,118 L240.748594,118 L240.748594,132.04 L239.194687,132.04 L239.112422,130.979687 C238.436012,131.808442 237.494537,132.222812 236.287969,132.222812 C235.142338,132.222812 234.20848,131.753598 233.486367,130.815156 C232.764254,129.876714 232.403203,128.651883 232.403203,127.140625 L232.403203,127.012656 Z M234.094219,127.204609 C234.094219,128.325865 234.325779,129.203356 234.788906,129.837109 C235.252034,130.470863 235.891871,130.787734 236.708437,130.787734 C237.780943,130.787734 238.563982,130.306333 239.057578,129.343516 L239.057578,124.800625 C238.551794,123.868277 237.774849,123.402109 236.726719,123.402109 C235.897965,123.402109 235.252034,123.722028 234.788906,124.361875 C234.325779,125.001722 234.094219,125.949291 234.094219,127.204609 Z M247.476094,132.222812 C246.135462,132.222812 245.044692,131.782543 244.20375,130.901992 C243.362808,130.021441 242.942344,128.843835 242.942344,127.369141 L242.942344,127.058359 C242.942344,126.077261 243.129725,125.201293 243.504492,124.43043 C243.87926,123.659566 244.403317,123.056291 245.07668,122.620586 C245.750042,122.184881 246.479762,121.967031 247.265859,121.967031 C248.551647,121.967031 249.551012,122.390543 250.263984,123.237578 C250.976957,124.084614 251.333437,125.297258 251.333437,126.875547 L251.333437,127.579375 L244.633359,127.579375 C244.657734,128.55438 244.942614,129.341989 245.488008,129.942227 C246.033401,130.542464 246.726558,130.842578 247.5675,130.842578 C248.16469,130.842578 248.670467,130.720704 249.084844,130.476953 C249.499221,130.233202 249.861795,129.910236 250.172578,129.508047 L251.205469,130.312422 C250.376715,131.586022 249.133602,132.222812 247.476094,132.222812 Z M247.265859,123.356406 C246.583356,123.356406 246.010549,123.604724 245.547422,124.101367 C245.084295,124.59801 244.797891,125.294214 244.688203,126.19 L249.642422,126.19 L249.642422,126.062031 C249.593672,125.202808 249.362111,124.537073 248.947734,124.064805 C248.533357,123.592537 247.972738,123.356406 247.265859,123.356406 Z M257.256562,130.842578 C257.859847,130.842578 258.386951,130.659767 258.837891,130.294141 C259.28883,129.928514 259.538672,129.471487 259.587422,128.923047 L261.187031,128.923047 C261.156562,129.489768 260.961564,130.02906 260.602031,130.540937 C260.242498,131.052815 259.76262,131.461092 259.162383,131.765781 C258.562145,132.07047 257.926878,132.222812 257.256562,132.222812 C255.909837,132.222812 254.838871,131.773403 254.043633,130.87457 C253.248394,129.975738 252.850781,128.746336 252.850781,127.186328 L252.850781,126.902969 C252.850781,125.940151 253.027498,125.083988 253.380937,124.334453 C253.734377,123.584918 254.241676,123.002971 254.902852,122.588594 C255.564027,122.174217 256.345542,121.967031 257.247422,121.967031 C258.35649,121.967031 259.27816,122.299137 260.012461,122.963359 C260.746761,123.627581 261.138281,124.489838 261.187031,125.550156 L259.587422,125.550156 C259.538672,124.910309 259.296447,124.384729 258.860742,123.973398 C258.425037,123.562068 257.887269,123.356406 257.247422,123.356406 C256.388199,123.356406 255.722463,123.665661 255.250195,124.28418 C254.777927,124.902698 254.541797,125.796947 254.541797,126.966953 L254.541797,127.286875 C254.541797,128.426412 254.776404,129.303903 255.245625,129.919375 C255.714846,130.534847 256.385152,130.842578 257.256562,130.842578 Z M265.84875,127.460547 L264.788438,128.566562 L264.788438,132.04 L263.097422,132.04 L263.097422,118 L264.788438,118 L264.788438,126.491641 L265.693359,125.403906 L268.77375,122.149844 L270.830391,122.149844 L266.982188,126.281406 L271.278281,132.04 L269.294766,132.04 L265.84875,127.460547 Z M272.612813,131.153359 C272.612813,130.860858 272.699648,130.61711 272.87332,130.422109 C273.046993,130.227108 273.307498,130.129609 273.654844,130.129609 C274.002189,130.129609 274.265741,130.227108 274.445508,130.422109 C274.625274,130.61711 274.715156,130.860858 274.715156,131.153359 C274.715156,131.433673 274.625274,131.66828 274.445508,131.857188 C274.265741,132.046095 274.002189,132.140547 273.654844,132.140547 C273.307498,132.140547 273.046993,132.046095 272.87332,131.857188 C272.699648,131.66828 272.612813,131.433673 272.612813,131.153359 Z" id="See-the-real-time-re" fill="#FFFFFF"></path>
                <path d="M47.5932617,53.8317383 L55.3742187,53.8317383 L55.3742187,57.29375 L47.5932617,57.29375 L47.5932617,69.9078125 L43.4799805,69.9078125 L43.4799805,57.29375 L20,57.29375 L20,54.9628906 L43.1029297,20 L47.5932617,20 L47.5932617,53.8317383 Z M25.0387695,53.8317383 L43.4799805,53.8317383 L43.4799805,25.3129883 L41.6632812,28.4665039 L25.0387695,53.8317383 Z" id="4-copy-2" fill="#FFFFFF"></path>
            </g>
        </g>
    </g>
</svg>