<?xml version="1.0" encoding="UTF-8"?>
<svg width="230px" height="163px" viewBox="0 0 230 163" version="1.1" xmlns="http://www.w3.org/2000/svg" xmlns:xlink="http://www.w3.org/1999/xlink">
    <!-- Generator: Sketch 49 (51002) - http://www.bohemiancoding.com/sketch -->
    <title>step-3</title>
    <desc>Created with Sketch.</desc>
    <defs></defs>
    <g id="Page-1" stroke="none" stroke-width="1" fill="none" fill-rule="evenodd">
        <g id="Artboard" transform="translate(-747.000000, -555.000000)">
            <g id="step-3" transform="translate(727.000000, 536.000000)">
                <rect id="Rectangle" x="0" y="0" width="298" height="199"></rect>
                <path d="M75.7164063,63.8433984 C75.7164063,62.5530404 75.2631881,61.5319666 74.3567383,60.7801465 C73.4502884,60.0283263 71.7920433,59.3138413 69.3819531,58.6366699 C66.9718629,57.9594986 65.2123102,57.2210196 64.1032422,56.4212109 C62.524953,55.2908147 61.7358203,53.8085248 61.7358203,51.9742969 C61.7358203,50.1933895 62.4689673,48.7457575 63.9352832,47.6313574 C65.4015991,46.5169573 67.2757894,45.9597656 69.5579102,45.9597656 C71.104207,45.9597656 72.4878552,46.2583564 73.7088965,46.8555469 C74.9299377,47.4527374 75.8763638,48.2845259 76.5482031,49.3509375 C77.2200424,50.4173491 77.555957,51.6063802 77.555957,52.9180664 L75.5724414,52.9180664 C75.5724414,51.3291131 75.0285797,50.0521044 73.9408398,49.087002 C72.8531,48.1218995 71.3921381,47.6393555 69.5579102,47.6393555 C67.7770028,47.6393555 66.3586967,48.0365878 65.3029492,48.8310645 C64.2472018,49.6255411 63.7193359,50.6626108 63.7193359,51.9423047 C63.7193359,53.1260215 64.193882,54.0911095 65.1429883,54.8375977 C66.0920946,55.5840858 67.6117083,56.242585 69.701875,56.8131152 C71.7920417,57.3836454 73.3756391,57.975495 74.4527148,58.5886816 C75.5297905,59.2018683 76.3402512,59.9350153 76.8841211,60.7881445 C77.427991,61.6412738 77.6999219,62.6490176 77.6999219,63.8114062 C77.6999219,65.6456342 76.9667749,67.1172601 75.500459,68.2263281 C74.0341431,69.3353962 72.1013011,69.8899219 69.701875,69.8899219 C68.0596012,69.8899219 66.5533174,69.5966631 65.1829785,69.0101367 C63.8126396,68.4236103 62.7729039,67.6024857 62.0637402,66.5467383 C61.3545765,65.4909908 61,64.2806318 61,62.915625 L62.9675195,62.915625 C62.9675195,64.5578988 63.580697,65.8535695 64.8070703,66.8026758 C66.0334436,67.7517821 67.6650289,68.2263281 69.701875,68.2263281 C71.5147747,68.2263281 72.9704047,67.8264298 74.0688086,67.0266211 C75.1672125,66.2268124 75.7164063,65.1657488 75.7164063,63.8433984 Z M83.3945312,55.1895117 C84.0237141,54.1550925 84.8288428,53.3552958 85.8099414,52.7900977 C86.7910401,52.2248995 87.8627676,51.9423047 89.0251563,51.9423047 C90.8807124,51.9423047 92.2616947,52.4648385 93.1681445,53.5099219 C94.0745944,54.5550052 94.5331445,56.1226067 94.5438086,58.2127734 L94.5438086,69.57 L92.6402734,69.57 L92.6402734,58.1967773 C92.6296093,56.6504805 92.3016927,55.4987733 91.6565137,54.7416211 C91.0113347,53.9844689 89.9795969,53.6058984 88.5612695,53.6058984 C87.3775527,53.6058984 86.329819,53.9764709 85.4180371,54.717627 C84.5062552,55.458783 83.83176,56.4585289 83.3945312,57.7168945 L83.3945312,69.57 L81.4909961,69.57 L81.4909961,45 L83.3945312,45 L83.3945312,55.1895117 Z M110.395938,69.57 C110.203983,69.0261301 110.081348,68.2210014 110.028027,67.1545898 C109.356188,68.0290473 108.500406,68.7035425 107.460654,69.1780957 C106.420903,69.6526489 105.31985,69.8899219 104.157461,69.8899219 C102.493859,69.8899219 101.147534,69.4260398 100.118447,68.4982617 C99.0893601,67.5704836 98.5748242,66.3974485 98.5748242,64.9791211 C98.5748242,63.2941908 99.2759793,61.9611963 100.678311,60.9800977 C102.080642,59.998999 104.034812,59.508457 106.540879,59.508457 L110.012031,59.508457 L110.012031,57.5409375 C110.012031,56.3039001 109.630795,55.3308141 108.868311,54.6216504 C108.105826,53.9124867 106.994109,53.5579102 105.533125,53.5579102 C104.200111,53.5579102 103.096391,53.8991567 102.221934,54.5816602 C101.347476,55.2641636 100.910254,56.0852882 100.910254,57.0450586 L98.9907227,57.0290625 C98.9907227,55.6533916 99.63056,54.4616945 100.910254,53.4539355 C102.189948,52.4461766 103.762881,51.9423047 105.629102,51.9423047 C107.559307,51.9423047 109.081586,52.4248487 110.195986,53.3899512 C111.310386,54.3550537 111.883574,55.7013781 111.915566,57.4289648 L111.915566,65.6189648 C111.915566,67.293231 112.091522,68.5462458 112.443438,69.3780469 L112.443438,69.57 L110.395938,69.57 Z M104.381406,68.1943359 C105.6611,68.1943359 106.804809,67.8850812 107.812568,67.2665625 C108.820327,66.6480438 109.553474,65.8215872 110.012031,64.787168 L110.012031,60.9800977 L106.588867,60.9800977 C104.67999,61.0014259 103.187037,61.3506704 102.109961,62.0278418 C101.032885,62.7050132 100.494355,63.6354433 100.494355,64.8191602 C100.494355,65.7895947 100.854264,66.5947234 101.574092,67.2345703 C102.29392,67.8744173 103.229682,68.1943359 104.381406,68.1943359 Z M125.016367,53.8938281 C124.611131,53.8191793 124.179241,53.7818555 123.720684,53.7818555 C122.526303,53.7818555 121.515893,54.1151041 120.689424,54.7816113 C119.862955,55.4481186 119.273771,56.4158726 118.921855,57.6849023 L118.921855,69.57 L117.01832,69.57 L117.01832,52.2622266 L118.889863,52.2622266 L118.921855,55.0135547 C119.934946,52.9660444 121.5612,51.9423047 123.800664,51.9423047 C124.33387,51.9423047 124.755096,52.0116204 125.064355,52.1502539 L125.016367,53.8938281 Z M134.438066,69.8899219 C132.966418,69.8899219 131.63609,69.5273474 130.447041,68.8021875 C129.257992,68.0770276 128.332894,67.0666178 127.671719,65.7709277 C127.010544,64.4752377 126.679961,63.0222737 126.679961,61.4119922 L126.679961,60.7241602 C126.679961,59.0605581 127.002546,57.5622723 127.647725,56.2292578 C128.292904,54.8962433 129.191342,53.8485097 130.343066,53.0860254 C131.494791,52.3235411 132.742474,51.9423047 134.086152,51.9423047 C136.186983,51.9423047 137.853226,52.6594557 139.084932,54.0937793 C140.316637,55.5281029 140.93248,57.4876048 140.93248,59.9723437 L140.93248,61.044082 L128.583496,61.044082 L128.583496,61.4119922 C128.583496,63.3741895 129.14602,65.0084407 130.271084,66.3147949 C131.396148,67.6211491 132.811788,68.2743164 134.518047,68.2743164 C135.541802,68.2743164 136.445572,68.0876972 137.229385,67.7144531 C138.013197,67.3412091 138.725016,66.7440275 139.364863,65.9228906 L140.56457,66.834668 C139.156907,68.8715141 137.114759,69.8899219 134.438066,69.8899219 Z M134.086152,53.5739062 C132.646497,53.5739062 131.433472,54.1017721 130.447041,55.1575195 C129.46061,56.213267 128.860763,57.6315731 128.64748,59.4124805 L139.028945,59.4124805 L139.028945,59.2045313 C138.975625,57.5409292 138.501079,56.1866068 137.605293,55.1415234 C136.709507,54.0964401 135.536472,53.5739062 134.086152,53.5739062 Z" id="Share" fill="#FFFFFF"></path>
                <path d="M67.3838281,103.107734 C65.8786643,102.675076 64.7833237,102.143402 64.0977734,101.512695 C63.4122231,100.881989 63.0694531,100.10352 63.0694531,99.1772656 C63.0694531,98.1291354 63.4883942,97.2623081 64.3262891,96.5767578 C65.1641839,95.8912075 66.2534308,95.5484375 67.5940625,95.5484375 C68.5081296,95.5484375 69.3231605,95.7251545 70.0391797,96.0785937 C70.7551989,96.432033 71.3097246,96.9195281 71.7027734,97.5410937 C72.0958223,98.1626594 72.2923437,98.8421057 72.2923437,99.5794531 L70.5282031,99.5794531 C70.5282031,98.7750741 70.2722682,98.1428539 69.7603906,97.6827734 C69.2485131,97.222693 68.5264109,96.9926562 67.5940625,96.9926562 C66.7287457,96.9926562 66.0538696,97.183084 65.5694141,97.5639453 C65.0849585,97.9448066 64.8427344,98.4734341 64.8427344,99.1498437 C64.8427344,99.6921902 65.0727711,100.15074 65.5328516,100.525508 C65.992932,100.900275 66.775971,101.243045 67.8819922,101.553828 C68.9880133,101.864611 69.8533172,102.207381 70.4779297,102.582148 C71.1025422,102.956916 71.5656626,103.394138 71.8673047,103.893828 C72.1689468,104.393518 72.3197656,104.981559 72.3197656,105.657969 C72.3197656,106.736568 71.8993011,107.600348 71.0583594,108.249336 C70.2174177,108.898324 69.093132,109.222812 67.6854688,109.222812 C66.7714017,109.222812 65.9182852,109.047619 65.1260937,108.697227 C64.3339023,108.346834 63.72301,107.866956 63.2933984,107.257578 C62.8637869,106.6482 62.6489844,105.956566 62.6489844,105.182656 L64.413125,105.182656 C64.413125,105.987035 64.7101923,106.622302 65.3043359,107.088477 C65.8984795,107.554651 66.6921825,107.787734 67.6854688,107.787734 C68.6117234,107.787734 69.3216382,107.59883 69.8152344,107.221016 C70.3088306,106.843201 70.555625,106.328285 70.555625,105.67625 C70.555625,105.024215 70.3271117,104.519963 69.8700781,104.163477 C69.4130446,103.80699 68.5843029,103.45508 67.3838281,103.107734 Z M75.9942969,100.347266 C76.7438319,99.4271048 77.7188221,98.9670312 78.9192969,98.9670312 C81.0094636,98.9670312 82.0636718,100.14616 82.0819531,102.504453 L82.0819531,109.04 L80.3909375,109.04 L80.3909375,102.495312 C80.3848437,101.78234 80.2218375,101.255236 79.9019141,100.913984 C79.5819906,100.572733 79.0838315,100.402109 78.4074219,100.402109 C77.8589816,100.402109 77.3775802,100.548358 76.9632031,100.840859 C76.5488261,101.133361 76.2258605,101.517263 75.9942969,101.992578 L75.9942969,109.04 L74.3032813,109.04 L74.3032813,95 L75.9942969,95 L75.9942969,100.347266 Z M90.7198437,109.04 C90.6223433,108.844999 90.5431253,108.497659 90.4821875,107.997969 C89.6960898,108.814535 88.7576617,109.222812 87.666875,109.222812 C86.6918701,109.222812 85.8920734,108.947073 85.2674609,108.395586 C84.6428484,107.844099 84.3305469,107.144848 84.3305469,106.297812 C84.3305469,105.267964 84.7220664,104.468167 85.5051172,103.898398 C86.288168,103.32863 87.3896023,103.04375 88.8094531,103.04375 L90.4547656,103.04375 L90.4547656,102.266797 C90.4547656,101.6757 90.2780486,101.204963 89.9246094,100.85457 C89.5711701,100.504178 89.0501597,100.328984 88.3615625,100.328984 C87.7582782,100.328984 87.252502,100.481327 86.8442187,100.786016 C86.4359355,101.090705 86.2317969,101.459373 86.2317969,101.892031 L84.5316406,101.892031 C84.5316406,101.398435 84.7068342,100.921604 85.0572266,100.461523 C85.4076189,100.001443 85.8829267,99.6373451 86.4831641,99.3692187 C87.0834014,99.1010924 87.7430433,98.9670312 88.4621094,98.9670312 C89.6016463,98.9670312 90.4943718,99.2519112 91.1403125,99.8216797 C91.7862532,100.391448 92.1214061,101.176011 92.1457813,102.175391 L92.1457813,106.727422 C92.1457813,107.635395 92.2615613,108.357497 92.493125,108.89375 L92.493125,109.04 L90.7198437,109.04 Z M87.9136719,107.751172 C88.4438308,107.751172 88.9465601,107.614064 89.421875,107.339844 C89.8971899,107.065624 90.2414833,106.709143 90.4547656,106.270391 L90.4547656,104.241172 L89.129375,104.241172 C87.0574896,104.241172 86.0215625,104.847494 86.0215625,106.060156 C86.0215625,106.590315 86.1982795,107.004686 86.5517187,107.303281 C86.905158,107.601876 87.3591379,107.751172 87.9136719,107.751172 Z M99.5771094,100.667187 C99.3211706,100.624531 99.0439077,100.603203 98.7453125,100.603203 C97.6362445,100.603203 96.8836739,101.075464 96.4875781,102.02 L96.4875781,109.04 L94.7965625,109.04 L94.7965625,99.1498437 L96.441875,99.1498437 L96.4692969,100.292422 C97.0238309,99.4088237 97.8099168,98.9670312 98.8275781,98.9670312 C99.1566423,98.9670312 99.4064835,99.0096871 99.5771094,99.095 L99.5771094,100.667187 Z M105.061484,109.222812 C103.720853,109.222812 102.630082,108.782543 101.789141,107.901992 C100.948199,107.021441 100.527734,105.843835 100.527734,104.369141 L100.527734,104.058359 C100.527734,103.077261 100.715115,102.201293 101.089883,101.43043 C101.46465,100.659566 101.988708,100.056291 102.66207,99.6205859 C103.335433,99.1848806 104.065152,98.9670312 104.85125,98.9670312 C106.137038,98.9670312 107.136403,99.3905426 107.849375,100.237578 C108.562347,101.084614 108.918828,102.297258 108.918828,103.875547 L108.918828,104.579375 L102.21875,104.579375 C102.243125,105.55438 102.528005,106.341989 103.073398,106.942227 C103.618792,107.542464 104.311949,107.842578 105.152891,107.842578 C105.750081,107.842578 106.255857,107.720704 106.670234,107.476953 C107.084611,107.233202 107.447186,106.910236 107.757969,106.508047 L108.790859,107.312422 C107.962105,108.586022 106.718993,109.222812 105.061484,109.222812 Z M104.85125,100.356406 C104.168747,100.356406 103.59594,100.604724 103.132812,101.101367 C102.669685,101.59801 102.383282,102.294214 102.273594,103.19 L107.227813,103.19 L107.227813,103.062031 C107.179062,102.202808 106.947502,101.537073 106.533125,101.064805 C106.118748,100.592537 105.558129,100.356406 104.85125,100.356406 Z M118.745,106.562891 L121.048437,99.1498437 L122.858281,99.1498437 L118.882109,110.566484 C118.266638,112.211805 117.2886,113.034453 115.947969,113.034453 L115.628047,113.007031 L114.997344,112.888203 L114.997344,111.517109 L115.454375,111.553672 C116.02719,111.553672 116.473553,111.437892 116.793477,111.206328 C117.1134,110.974764 117.376952,110.551253 117.584141,109.935781 L117.958906,108.930312 L114.430625,99.1498437 L116.277031,99.1498437 L118.745,106.562891 Z M123.781484,104.003516 C123.781484,103.034605 123.971912,102.163207 124.352773,101.389297 C124.733635,100.615387 125.263786,100.018205 125.943242,99.5977344 C126.622699,99.1772635 127.398121,98.9670312 128.269531,98.9670312 C129.616257,98.9670312 130.705504,99.4331985 131.537305,100.365547 C132.369106,101.297895 132.785,102.537961 132.785,104.085781 L132.785,104.204609 C132.785,105.167427 132.600666,106.031207 132.231992,106.795977 C131.863318,107.560746 131.336214,108.156404 130.650664,108.582969 C129.965114,109.009533 129.177504,109.222812 128.287812,109.222812 C126.947181,109.222812 125.860981,108.756645 125.02918,107.824297 C124.197379,106.891948 123.781484,105.657976 123.781484,104.122344 L123.781484,104.003516 Z M125.481641,104.204609 C125.481641,105.30149 125.736052,106.182028 126.244883,106.84625 C126.753713,107.510472 127.434683,107.842578 128.287812,107.842578 C129.147036,107.842578 129.829529,107.505902 130.335312,106.832539 C130.841096,106.159176 131.093984,105.216178 131.093984,104.003516 C131.093984,102.918823 130.836526,102.039808 130.321602,101.366445 C129.806677,100.693083 129.122661,100.356406 128.269531,100.356406 C127.434683,100.356406 126.761331,100.688512 126.249453,101.352734 C125.737576,102.016956 125.481641,102.967572 125.481641,104.204609 Z M141.011563,108.061953 C140.353434,108.835863 139.387584,109.222812 138.113984,109.222812 C137.05976,109.222812 136.256917,108.916605 135.70543,108.30418 C135.153943,107.691755 134.875156,106.785319 134.869063,105.584844 L134.869063,99.1498437 L136.560078,99.1498437 L136.560078,105.539141 C136.560078,107.038211 137.169447,107.787734 138.388203,107.787734 C139.680085,107.787734 140.539295,107.306333 140.965859,106.343516 L140.965859,99.1498437 L142.656875,99.1498437 L142.656875,109.04 L141.048125,109.04 L141.011563,108.061953 Z M150.005938,100.667187 C149.749999,100.624531 149.472736,100.603203 149.174141,100.603203 C148.065073,100.603203 147.312502,101.075464 146.916406,102.02 L146.916406,109.04 L145.225391,109.04 L145.225391,99.1498437 L146.870703,99.1498437 L146.898125,100.292422 C147.452659,99.4088237 148.238745,98.9670312 149.256406,98.9670312 C149.58547,98.9670312 149.835312,99.0096871 150.005938,99.095 L150.005938,100.667187 Z M165.828359,95.73125 L165.828359,104.780469 C165.822266,106.035788 165.427699,107.062574 164.644648,107.860859 C163.861598,108.659145 162.799772,109.107031 161.459141,109.204531 L160.992969,109.222812 C159.536555,109.222812 158.375707,108.82977 157.510391,108.043672 C156.645074,107.257574 156.206328,106.175944 156.194141,104.79875 L156.194141,95.73125 L157.930859,95.73125 L157.930859,104.743906 C157.930859,105.706724 158.195935,106.454724 158.726094,106.98793 C159.256253,107.521135 160.01187,107.787734 160.992969,107.787734 C161.986255,107.787734 162.746443,107.522659 163.273555,106.9925 C163.800667,106.462341 164.064219,105.715864 164.064219,104.753047 L164.064219,95.73125 L165.828359,95.73125 Z M173.479063,103.656172 L170.352969,103.656172 L170.352969,109.04 L168.588828,109.04 L168.588828,95.73125 L172.994609,95.73125 C174.493679,95.73125 175.64691,96.0724966 176.454336,96.755 C177.261762,97.4375034 177.665469,98.4307747 177.665469,99.7348437 C177.665469,100.563598 177.441526,101.2857 176.993633,101.901172 C176.54574,102.516644 175.92266,102.976717 175.124375,103.281406 L178.250469,108.930312 L178.250469,109.04 L176.3675,109.04 L173.479063,103.656172 Z M170.352969,102.221094 L173.049453,102.221094 C173.920864,102.221094 174.614021,101.995627 175.128945,101.544688 C175.64387,101.093748 175.901328,100.490473 175.901328,99.7348437 C175.901328,98.9121834 175.656057,98.2814866 175.165508,97.8427344 C174.674958,97.4039822 173.966567,97.1815625 173.040313,97.1754687 L170.352969,97.1754687 L170.352969,102.221094 Z M181.888438,107.604922 L188.195469,107.604922 L188.195469,109.04 L180.124297,109.04 L180.124297,95.73125 L181.888438,95.73125 L181.888438,107.604922 Z M200.672422,109.04 C200.574921,108.844999 200.495703,108.497659 200.434766,107.997969 C199.648668,108.814535 198.71024,109.222812 197.619453,109.222812 C196.644448,109.222812 195.844652,108.947073 195.220039,108.395586 C194.595427,107.844099 194.283125,107.144848 194.283125,106.297812 C194.283125,105.267964 194.674645,104.468167 195.457695,103.898398 C196.240746,103.32863 197.34218,103.04375 198.762031,103.04375 L200.407344,103.04375 L200.407344,102.266797 C200.407344,101.6757 200.230627,101.204963 199.877187,100.85457 C199.523748,100.504178 199.002738,100.328984 198.314141,100.328984 C197.710856,100.328984 197.20508,100.481327 196.796797,100.786016 C196.388514,101.090705 196.184375,101.459373 196.184375,101.892031 L194.484219,101.892031 C194.484219,101.398435 194.659412,100.921604 195.009805,100.461523 C195.360197,100.001443 195.835505,99.6373451 196.435742,99.3692187 C197.03598,99.1010924 197.695621,98.9670312 198.414688,98.9670312 C199.554224,98.9670312 200.44695,99.2519112 201.092891,99.8216797 C201.738831,100.391448 202.073984,101.176011 202.098359,102.175391 L202.098359,106.727422 C202.098359,107.635395 202.214139,108.357497 202.445703,108.89375 L202.445703,109.04 L200.672422,109.04 Z M197.86625,107.751172 C198.396409,107.751172 198.899138,107.614064 199.374453,107.339844 C199.849768,107.065624 200.194061,106.709143 200.407344,106.270391 L200.407344,104.241172 L199.081953,104.241172 C197.010068,104.241172 195.974141,104.847494 195.974141,106.060156 C195.974141,106.590315 196.150858,107.004686 196.504297,107.303281 C196.857736,107.601876 197.311716,107.751172 197.86625,107.751172 Z M206.34875,99.1498437 L206.403594,100.392969 C207.159223,99.442339 208.1464,98.9670312 209.365156,98.9670312 C211.455323,98.9670312 212.509531,100.14616 212.527812,102.504453 L212.527812,109.04 L210.836797,109.04 L210.836797,102.495312 C210.830703,101.78234 210.667697,101.255236 210.347773,100.913984 C210.02785,100.572733 209.529691,100.402109 208.853281,100.402109 C208.304841,100.402109 207.82344,100.548358 207.409063,100.840859 C206.994685,101.133361 206.67172,101.517263 206.440156,101.992578 L206.440156,109.04 L204.749141,109.04 L204.749141,99.1498437 L206.34875,99.1498437 Z M214.666719,104.012656 C214.666719,102.495305 215.026246,101.275044 215.745312,100.351836 C216.464379,99.4286282 217.405854,98.9670312 218.569766,98.9670312 C219.727584,98.9670312 220.644684,99.363121 221.321094,100.155312 L221.321094,95 L223.012109,95 L223.012109,109.04 L221.458203,109.04 L221.375937,107.979687 C220.699528,108.808442 219.758053,109.222812 218.551484,109.222812 C217.405854,109.222812 216.471996,108.753598 215.749883,107.815156 C215.02777,106.876714 214.666719,105.651883 214.666719,104.140625 L214.666719,104.012656 Z M216.357734,104.204609 C216.357734,105.325865 216.589295,106.203356 217.052422,106.837109 C217.515549,107.470863 218.155387,107.787734 218.971953,107.787734 C220.044458,107.787734 220.827498,107.306333 221.321094,106.343516 L221.321094,101.800625 C220.81531,100.868277 220.038365,100.402109 218.990234,100.402109 C218.16148,100.402109 217.515549,100.722028 217.052422,101.361875 C216.589295,102.001722 216.357734,102.949291 216.357734,104.204609 Z M232.107031,109.04 L230.416016,109.04 L230.416016,95 L232.107031,95 L232.107031,109.04 Z M238.916797,109.222812 C237.576165,109.222812 236.485395,108.782543 235.644453,107.901992 C234.803511,107.021441 234.383047,105.843835 234.383047,104.369141 L234.383047,104.058359 C234.383047,103.077261 234.570428,102.201293 234.945195,101.43043 C235.319963,100.659566 235.84402,100.056291 236.517383,99.6205859 C237.190746,99.1848806 237.920465,98.9670312 238.706563,98.9670312 C239.99235,98.9670312 240.991715,99.3905426 241.704687,100.237578 C242.41766,101.084614 242.774141,102.297258 242.774141,103.875547 L242.774141,104.579375 L236.074062,104.579375 C236.098438,105.55438 236.383318,106.341989 236.928711,106.942227 C237.474104,107.542464 238.167261,107.842578 239.008203,107.842578 C239.605394,107.842578 240.11117,107.720704 240.525547,107.476953 C240.939924,107.233202 241.302498,106.910236 241.613281,106.508047 L242.646172,107.312422 C241.817418,108.586022 240.574305,109.222812 238.916797,109.222812 Z M238.706563,100.356406 C238.024059,100.356406 237.451252,100.604724 236.988125,101.101367 C236.524998,101.59801 236.238594,102.294214 236.128906,103.19 L241.083125,103.19 L241.083125,103.062031 C241.034375,102.202808 240.802815,101.537073 240.388438,101.064805 C239.97406,100.592537 239.413441,100.356406 238.706563,100.356406 Z M247.024531,96.755 L247.024531,99.1498437 L248.870938,99.1498437 L248.870938,100.456953 L247.024531,100.456953 L247.024531,106.590312 C247.024531,106.986408 247.106796,107.283476 247.271328,107.481523 C247.43586,107.679571 247.71617,107.778594 248.112266,107.778594 C248.307267,107.778594 248.575389,107.742032 248.916641,107.668906 L248.916641,109.04 C248.471795,109.161876 248.039143,109.222812 247.618672,109.222812 C246.863043,109.222812 246.293283,108.994299 245.909375,108.537266 C245.525467,108.080232 245.333516,107.431254 245.333516,106.590312 L245.333516,100.456953 L243.532812,100.456953 L243.532812,99.1498437 L245.333516,99.1498437 L245.333516,96.755 L247.024531,96.755 Z M66.4332031,129.562891 L68.7366406,122.149844 L70.5464844,122.149844 L66.5703125,133.566484 C65.9548407,135.211805 64.9768036,136.034453 63.6361719,136.034453 L63.31625,136.007031 L62.6855469,135.888203 L62.6855469,134.517109 L63.1425781,134.553672 C63.7153935,134.553672 64.1617562,134.437892 64.4816797,134.206328 C64.8016032,133.974764 65.0651552,133.551253 65.2723438,132.935781 L65.6471094,131.930313 L62.1188281,122.149844 L63.9652344,122.149844 L66.4332031,129.562891 Z M71.4696875,127.003516 C71.4696875,126.034605 71.6601153,125.163207 72.0409766,124.389297 C72.4218378,123.615387 72.9519888,123.018205 73.6314453,122.597734 C74.3109018,122.177264 75.0863238,121.967031 75.9577344,121.967031 C77.3044599,121.967031 78.3937068,122.433198 79.2255078,123.365547 C80.0573088,124.297895 80.4732031,125.537961 80.4732031,127.085781 L80.4732031,127.204609 C80.4732031,128.167427 80.288869,129.031207 79.9201953,129.795977 C79.5515216,130.560746 79.0244175,131.156404 78.3388672,131.582969 C77.6533169,132.009533 76.8657076,132.222812 75.9760156,132.222812 C74.6353839,132.222812 73.5491838,131.756645 72.7173828,130.824297 C71.8855818,129.891948 71.4696875,128.657976 71.4696875,127.122344 L71.4696875,127.003516 Z M73.1698438,127.204609 C73.1698438,128.30149 73.4242553,129.182028 73.9330859,129.84625 C74.4419166,130.510472 75.1228864,130.842578 75.9760156,130.842578 C76.8352387,130.842578 77.5177318,130.505902 78.0235156,129.832539 C78.5292994,129.159176 78.7821875,128.216178 78.7821875,127.003516 C78.7821875,125.918823 78.5247291,125.039808 78.0098047,124.366445 C77.4948802,123.693083 76.8108636,123.356406 75.9577344,123.356406 C75.1228865,123.356406 74.4495338,123.688512 73.9376563,124.352734 C73.4257787,125.016956 73.1698438,125.967572 73.1698438,127.204609 Z M88.6997656,131.061953 C88.0416373,131.835863 87.0757876,132.222812 85.8021875,132.222812 C84.7479635,132.222812 83.9451199,131.916605 83.3936328,131.30418 C82.8421457,130.691755 82.5633594,129.785319 82.5572656,128.584844 L82.5572656,122.149844 L84.2482812,122.149844 L84.2482812,128.539141 C84.2482812,130.038211 84.8576502,130.787734 86.0764062,130.787734 C87.3682877,130.787734 88.2274979,130.306333 88.6540625,129.343516 L88.6540625,122.149844 L90.3450781,122.149844 L90.3450781,132.04 L88.7363281,132.04 L88.6997656,131.061953 Z M97.6941406,123.667187 C97.4382018,123.624531 97.160939,123.603203 96.8623438,123.603203 C95.7532757,123.603203 95.0007051,124.075464 94.6046094,125.02 L94.6046094,132.04 L92.9135938,132.04 L92.9135938,122.149844 L94.5589063,122.149844 L94.5863281,123.292422 C95.1408621,122.408824 95.926948,121.967031 96.9446094,121.967031 C97.2736735,121.967031 97.5235148,122.009687 97.6941406,122.095 L97.6941406,123.667187 Z M109.988281,132.04 C109.890781,131.844999 109.811563,131.497659 109.750625,130.997969 C108.964527,131.814535 108.026099,132.222812 106.935313,132.222812 C105.960308,132.222812 105.160511,131.947073 104.535898,131.395586 C103.911286,130.844099 103.598984,130.144848 103.598984,129.297812 C103.598984,128.267964 103.990504,127.468167 104.773555,126.898398 C105.556605,126.32863 106.65804,126.04375 108.077891,126.04375 L109.723203,126.04375 L109.723203,125.266797 C109.723203,124.6757 109.546486,124.204963 109.193047,123.85457 C108.839608,123.504178 108.318597,123.328984 107.63,123.328984 C107.026716,123.328984 106.52094,123.481327 106.112656,123.786016 C105.704373,124.090705 105.500234,124.459373 105.500234,124.892031 L103.800078,124.892031 C103.800078,124.398435 103.975272,123.921604 104.325664,123.461523 C104.676056,123.001443 105.151364,122.637345 105.751602,122.369219 C106.351839,122.101092 107.011481,121.967031 107.730547,121.967031 C108.870084,121.967031 109.762809,122.251911 110.40875,122.82168 C111.054691,123.391448 111.389844,124.176011 111.414219,125.175391 L111.414219,129.727422 C111.414219,130.635395 111.529999,131.357497 111.761563,131.89375 L111.761563,132.04 L109.988281,132.04 Z M107.182109,130.751172 C107.712268,130.751172 108.214998,130.614064 108.690313,130.339844 C109.165627,130.065624 109.509921,129.709143 109.723203,129.270391 L109.723203,127.241172 L108.397812,127.241172 C106.325927,127.241172 105.29,127.847494 105.29,129.060156 C105.29,129.590315 105.466717,130.004686 105.820156,130.303281 C106.173596,130.601876 106.627575,130.751172 107.182109,130.751172 Z M120.170938,131.061953 C119.512809,131.835863 118.546959,132.222812 117.273359,132.222812 C116.219135,132.222812 115.416292,131.916605 114.864805,131.30418 C114.313318,130.691755 114.034531,129.785319 114.028437,128.584844 L114.028437,122.149844 L115.719453,122.149844 L115.719453,128.539141 C115.719453,130.038211 116.328822,130.787734 117.547578,130.787734 C118.83946,130.787734 119.69867,130.306333 120.125234,129.343516 L120.125234,122.149844 L121.81625,122.149844 L121.81625,132.04 L120.2075,132.04 L120.170938,131.061953 Z M123.973438,127.012656 C123.973438,125.495305 124.332965,124.275044 125.052031,123.351836 C125.771097,122.428628 126.712572,121.967031 127.876484,121.967031 C129.034303,121.967031 129.951403,122.363121 130.627813,123.155312 L130.627813,118 L132.318828,118 L132.318828,132.04 L130.764922,132.04 L130.682656,130.979687 C130.006247,131.808442 129.064772,132.222812 127.858203,132.222812 C126.712572,132.222812 125.778715,131.753598 125.056602,130.815156 C124.334489,129.876714 123.973438,128.651883 123.973438,127.140625 L123.973438,127.012656 Z M125.664453,127.204609 C125.664453,128.325865 125.896013,129.203356 126.359141,129.837109 C126.822268,130.470863 127.462105,130.787734 128.278672,130.787734 C129.351177,130.787734 130.134216,130.306333 130.627813,129.343516 L130.627813,124.800625 C130.122029,123.868277 129.345083,123.402109 128.296953,123.402109 C127.468199,123.402109 126.822268,123.722028 126.359141,124.361875 C125.896013,125.001722 125.664453,125.949291 125.664453,127.204609 Z M136.779453,132.04 L135.088438,132.04 L135.088438,122.149844 L136.779453,122.149844 L136.779453,132.04 Z M134.951328,119.526484 C134.951328,119.252264 135.035116,119.020704 135.202695,118.831797 C135.370274,118.64289 135.618592,118.548437 135.947656,118.548437 C136.27672,118.548437 136.526562,118.64289 136.697188,118.831797 C136.867813,119.020704 136.953125,119.252264 136.953125,119.526484 C136.953125,119.800704 136.867813,120.029218 136.697188,120.212031 C136.526562,120.394845 136.27672,120.48625 135.947656,120.48625 C135.618592,120.48625 135.370274,120.394845 135.202695,120.212031 C135.035116,120.029218 134.951328,119.800704 134.951328,119.526484 Z M143.589219,132.222812 C142.248587,132.222812 141.157817,131.782543 140.316875,130.901992 C139.475933,130.021441 139.055469,128.843835 139.055469,127.369141 L139.055469,127.058359 C139.055469,126.077261 139.24285,125.201293 139.617617,124.43043 C139.992385,123.659566 140.516442,123.056291 141.189805,122.620586 C141.863167,122.184881 142.592887,121.967031 143.378984,121.967031 C144.664772,121.967031 145.664137,122.390543 146.377109,123.237578 C147.090082,124.084614 147.446563,125.297258 147.446563,126.875547 L147.446563,127.579375 L140.746484,127.579375 C140.770859,128.55438 141.055739,129.341989 141.601133,129.942227 C142.146526,130.542464 142.839683,130.842578 143.680625,130.842578 C144.277815,130.842578 144.783592,130.720704 145.197969,130.476953 C145.612346,130.233202 145.97492,129.910236 146.285703,129.508047 L147.318594,130.312422 C146.48984,131.586022 145.246727,132.222812 143.589219,132.222812 Z M143.378984,123.356406 C142.696481,123.356406 142.123674,123.604724 141.660547,124.101367 C141.19742,124.59801 140.911016,125.294214 140.801328,126.19 L145.755547,126.19 L145.755547,126.062031 C145.706797,125.202808 145.475236,124.537073 145.060859,124.064805 C144.646482,123.592537 144.085863,123.356406 143.378984,123.356406 Z M151.002266,122.149844 L151.057109,123.392969 C151.812738,122.442339 152.799916,121.967031 154.018672,121.967031 C156.108839,121.967031 157.163047,123.14616 157.181328,125.504453 L157.181328,132.04 L155.490313,132.04 L155.490313,125.495312 C155.484219,124.78234 155.321213,124.255236 155.001289,123.913984 C154.681366,123.572733 154.183207,123.402109 153.506797,123.402109 C152.958357,123.402109 152.476955,123.548358 152.062578,123.840859 C151.648201,124.133361 151.325236,124.517263 151.093672,124.992578 L151.093672,132.04 L149.402656,132.04 L149.402656,122.149844 L151.002266,122.149844 Z M163.698594,130.842578 C164.301878,130.842578 164.828982,130.659767 165.279922,130.294141 C165.730862,129.928514 165.980703,129.471487 166.029453,128.923047 L167.629063,128.923047 C167.598594,129.489768 167.403596,130.02906 167.044062,130.540937 C166.684529,131.052815 166.204651,131.461092 165.604414,131.765781 C165.004177,132.07047 164.36891,132.222812 163.698594,132.222812 C162.351868,132.222812 161.280902,131.773403 160.485664,130.87457 C159.690426,129.975738 159.292813,128.746336 159.292813,127.186328 L159.292813,126.902969 C159.292813,125.940151 159.469529,125.083988 159.822969,124.334453 C160.176408,123.584918 160.683708,123.002971 161.344883,122.588594 C162.006058,122.174217 162.787574,121.967031 163.689453,121.967031 C164.798521,121.967031 165.720192,122.299137 166.454492,122.963359 C167.188793,123.627581 167.580312,124.489838 167.629063,125.550156 L166.029453,125.550156 C165.980703,124.910309 165.738479,124.384729 165.302773,123.973398 C164.867068,123.562068 164.3293,123.356406 163.689453,123.356406 C162.83023,123.356406 162.164495,123.665661 161.692227,124.28418 C161.219959,124.902698 160.983828,125.796947 160.983828,126.966953 L160.983828,127.286875 C160.983828,128.426412 161.218435,129.303903 161.687656,129.919375 C162.156877,130.534847 162.827183,130.842578 163.698594,130.842578 Z M173.634453,132.222812 C172.293821,132.222812 171.203051,131.782543 170.362109,130.901992 C169.521168,130.021441 169.100703,128.843835 169.100703,127.369141 L169.100703,127.058359 C169.100703,126.077261 169.288084,125.201293 169.662852,124.43043 C170.037619,123.659566 170.561676,123.056291 171.235039,122.620586 C171.908402,122.184881 172.638121,121.967031 173.424219,121.967031 C174.710006,121.967031 175.709371,122.390543 176.422344,123.237578 C177.135316,124.084614 177.491797,125.297258 177.491797,126.875547 L177.491797,127.579375 L170.791719,127.579375 C170.816094,128.55438 171.100974,129.341989 171.646367,129.942227 C172.191761,130.542464 172.884918,130.842578 173.725859,130.842578 C174.32305,130.842578 174.828826,130.720704 175.243203,130.476953 C175.65758,130.233202 176.020155,129.910236 176.330938,129.508047 L177.363828,130.312422 C176.535074,131.586022 175.291961,132.222812 173.634453,132.222812 Z M173.424219,123.356406 C172.741715,123.356406 172.168909,123.604724 171.705781,124.101367 C171.242654,124.59801 170.956251,125.294214 170.846563,126.19 L175.800781,126.19 L175.800781,126.062031 C175.752031,125.202808 175.520471,124.537073 175.106094,124.064805 C174.691717,123.592537 174.131097,123.356406 173.424219,123.356406 Z M188.862734,123.667187 C188.606796,123.624531 188.329533,123.603203 188.030938,123.603203 C186.921869,123.603203 186.169299,124.075464 185.773203,125.02 L185.773203,132.04 L184.082188,132.04 L184.082188,122.149844 L185.7275,122.149844 L185.754922,123.292422 C186.309456,122.408824 187.095542,121.967031 188.113203,121.967031 C188.442267,121.967031 188.692109,122.009687 188.862734,122.095 L188.862734,123.667187 Z M194.347109,132.222812 C193.006478,132.222812 191.915707,131.782543 191.074766,130.901992 C190.233824,130.021441 189.813359,128.843835 189.813359,127.369141 L189.813359,127.058359 C189.813359,126.077261 190.00074,125.201293 190.375508,124.43043 C190.750275,123.659566 191.274333,123.056291 191.947695,122.620586 C192.621058,122.184881 193.350777,121.967031 194.136875,121.967031 C195.422663,121.967031 196.422028,122.390543 197.135,123.237578 C197.847972,124.084614 198.204453,125.297258 198.204453,126.875547 L198.204453,127.579375 L191.504375,127.579375 C191.52875,128.55438 191.81363,129.341989 192.359023,129.942227 C192.904417,130.542464 193.597574,130.842578 194.438516,130.842578 C195.035706,130.842578 195.541482,130.720704 195.955859,130.476953 C196.370236,130.233202 196.732811,129.910236 197.043594,129.508047 L198.076484,130.312422 C197.24773,131.586022 196.004618,132.222812 194.347109,132.222812 Z M194.136875,123.356406 C193.454372,123.356406 192.881565,123.604724 192.418437,124.101367 C191.95531,124.59801 191.668907,125.294214 191.559219,126.19 L196.513438,126.19 L196.513438,126.062031 C196.464687,125.202808 196.233127,124.537073 195.81875,124.064805 C195.404373,123.592537 194.843754,123.356406 194.136875,123.356406 Z M205.919141,129.416641 C205.919141,128.959607 205.746994,128.60465 205.402695,128.351758 C205.058397,128.098866 204.458168,127.881017 203.601992,127.698203 C202.745816,127.51539 202.06637,127.296017 201.563633,127.040078 C201.060896,126.784139 200.689181,126.479455 200.448477,126.126016 C200.207772,125.772576 200.087422,125.352112 200.087422,124.864609 C200.087422,124.054137 200.430192,123.368597 201.115742,122.807969 C201.801292,122.247341 202.67726,121.967031 203.743672,121.967031 C204.864927,121.967031 205.774411,122.256481 206.472148,122.835391 C207.169886,123.4143 207.51875,124.154683 207.51875,125.056562 L205.818594,125.056562 C205.818594,124.593435 205.622072,124.194299 205.229023,123.859141 C204.835975,123.523983 204.340862,123.356406 203.743672,123.356406 C203.1282,123.356406 202.646799,123.490467 202.299453,123.758594 C201.952108,124.02672 201.778437,124.377107 201.778437,124.809766 C201.778437,125.218049 201.93992,125.52578 202.262891,125.732969 C202.585861,125.940157 203.169332,126.138202 204.01332,126.327109 C204.857309,126.516017 205.541326,126.741483 206.065391,127.003516 C206.589456,127.265548 206.977928,127.580897 207.23082,127.94957 C207.483712,128.318244 207.610156,128.767654 207.610156,129.297812 C207.610156,130.181411 207.256722,130.889802 206.549844,131.423008 C205.842965,131.956214 204.925865,132.222812 203.798516,132.222812 C203.006324,132.222812 202.30555,132.082658 201.696172,131.802344 C201.086794,131.52203 200.609963,131.13051 200.265664,130.627773 C199.921365,130.125037 199.749219,129.581175 199.749219,128.996172 L201.440234,128.996172 C201.470703,129.562893 201.697693,130.012303 202.121211,130.344414 C202.544729,130.676525 203.103825,130.842578 203.798516,130.842578 C204.438363,130.842578 204.951756,130.713087 205.338711,130.454102 C205.725666,130.195116 205.919141,129.849299 205.919141,129.416641 Z M218.167578,127.204609 C218.167578,128.709773 217.823285,129.922417 217.134688,130.842578 C216.44609,131.762739 215.513756,132.222812 214.337656,132.222812 C213.137181,132.222812 212.19266,131.841957 211.504063,131.080234 L211.504063,135.8425 L209.813047,135.8425 L209.813047,122.149844 L211.357813,122.149844 L211.440078,123.246719 C212.128675,122.393589 213.085385,121.967031 214.310234,121.967031 C215.498522,121.967031 216.438473,122.414917 217.130117,123.310703 C217.821761,124.206489 218.167578,125.452648 218.167578,127.049219 L218.167578,127.204609 Z M216.476562,127.012656 C216.476562,125.897494 216.238909,125.016956 215.763594,124.371016 C215.288279,123.725075 214.636254,123.402109 213.8075,123.402109 C212.783745,123.402109 212.01594,123.856089 211.504063,124.764062 L211.504063,129.489766 C212.009846,130.391645 212.783745,130.842578 213.825781,130.842578 C214.636254,130.842578 215.280662,130.521136 215.759023,129.878242 C216.237385,129.235348 216.476562,128.280163 216.476562,127.012656 Z M219.867734,127.003516 C219.867734,126.034605 220.058162,125.163207 220.439023,124.389297 C220.819885,123.615387 221.350036,123.018205 222.029492,122.597734 C222.708949,122.177264 223.484371,121.967031 224.355781,121.967031 C225.702507,121.967031 226.791754,122.433198 227.623555,123.365547 C228.455356,124.297895 228.87125,125.537961 228.87125,127.085781 L228.87125,127.204609 C228.87125,128.167427 228.686916,129.031207 228.318242,129.795977 C227.949568,130.560746 227.422464,131.156404 226.736914,131.582969 C226.051364,132.009533 225.263754,132.222812 224.374063,132.222812 C223.033431,132.222812 221.947231,131.756645 221.11543,130.824297 C220.283629,129.891948 219.867734,128.657976 219.867734,127.122344 L219.867734,127.003516 Z M221.567891,127.204609 C221.567891,128.30149 221.822302,129.182028 222.331133,129.84625 C222.839963,130.510472 223.520933,130.842578 224.374063,130.842578 C225.233286,130.842578 225.915779,130.505902 226.421563,129.832539 C226.927346,129.159176 227.180234,128.216178 227.180234,127.003516 C227.180234,125.918823 226.922776,125.039808 226.407852,124.366445 C225.892927,123.693083 225.208911,123.356406 224.355781,123.356406 C223.520933,123.356406 222.847581,123.688512 222.335703,124.352734 C221.823826,125.016956 221.567891,125.967572 221.567891,127.204609 Z M232.591484,122.149844 L232.646328,123.392969 C233.401957,122.442339 234.389135,121.967031 235.607891,121.967031 C237.698057,121.967031 238.752266,123.14616 238.770547,125.504453 L238.770547,132.04 L237.079531,132.04 L237.079531,125.495312 C237.073437,124.78234 236.910431,124.255236 236.590508,123.913984 C236.270584,123.572733 235.772425,123.402109 235.096016,123.402109 C234.547575,123.402109 234.066174,123.548358 233.651797,123.840859 C233.23742,124.133361 232.914454,124.517263 232.682891,124.992578 L232.682891,132.04 L230.991875,132.04 L230.991875,122.149844 L232.591484,122.149844 Z M240.909453,127.012656 C240.909453,125.495305 241.268981,124.275044 241.988047,123.351836 C242.707113,122.428628 243.648588,121.967031 244.8125,121.967031 C245.970318,121.967031 246.887418,122.363121 247.563828,123.155312 L247.563828,118 L249.254844,118 L249.254844,132.04 L247.700937,132.04 L247.618672,130.979687 C246.942262,131.808442 246.000787,132.222812 244.794219,132.222812 C243.648588,132.222812 242.71473,131.753598 241.992617,130.815156 C241.270504,129.876714 240.909453,128.651883 240.909453,127.140625 L240.909453,127.012656 Z M242.600469,127.204609 C242.600469,128.325865 242.832029,129.203356 243.295156,129.837109 C243.758284,130.470863 244.398121,130.787734 245.214688,130.787734 C246.287193,130.787734 247.070232,130.306333 247.563828,129.343516 L247.563828,124.800625 C247.058044,123.868277 246.281099,123.402109 245.232969,123.402109 C244.404215,123.402109 243.758284,123.722028 243.295156,124.361875 C242.832029,125.001722 242.600469,125.949291 242.600469,127.204609 Z M65.4917188,142.755 L65.4917188,145.149844 L67.338125,145.149844 L67.338125,146.456953 L65.4917188,146.456953 L65.4917188,152.590312 C65.4917188,152.986408 65.5739836,153.283476 65.7385156,153.481523 C65.9030477,153.679571 66.1833574,153.778594 66.5794531,153.778594 C66.7744541,153.778594 67.0425764,153.742032 67.3838281,153.668906 L67.3838281,155.04 C66.9389822,155.161876 66.5063302,155.222812 66.0858594,155.222812 C65.3302306,155.222812 64.7604707,154.994299 64.3765625,154.537266 C63.9926543,154.080232 63.8007031,153.431254 63.8007031,152.590312 L63.8007031,146.456953 L62,146.456953 L62,145.149844 L63.8007031,145.149844 L63.8007031,142.755 L65.4917188,142.755 Z M71.0035156,146.347266 C71.7530506,145.427105 72.7280409,144.967031 73.9285156,144.967031 C76.0186823,144.967031 77.0728905,146.14616 77.0911719,148.504453 L77.0911719,155.04 L75.4001563,155.04 L75.4001563,148.495312 C75.3940625,147.78234 75.2310563,147.255236 74.9111328,146.913984 C74.5912093,146.572733 74.0930503,146.402109 73.4166406,146.402109 C72.8682004,146.402109 72.3867989,146.548358 71.9724219,146.840859 C71.5580448,147.133361 71.2350793,147.517263 71.0035156,147.992578 L71.0035156,155.04 L69.3125,155.04 L69.3125,141 L71.0035156,141 L71.0035156,146.347266 Z M84.4036719,146.667187 C84.1477331,146.624531 83.8704702,146.603203 83.571875,146.603203 C82.462807,146.603203 81.7102364,147.075464 81.3141406,148.02 L81.3141406,155.04 L79.623125,155.04 L79.623125,145.149844 L81.2684375,145.149844 L81.2958594,146.292422 C81.8503934,145.408824 82.6364793,144.967031 83.6541406,144.967031 C83.9832048,144.967031 84.233046,145.009687 84.4036719,145.095 L84.4036719,146.667187 Z M85.326875,150.003516 C85.326875,149.034605 85.5173028,148.163207 85.8981641,147.389297 C86.2790253,146.615387 86.8091763,146.018205 87.4886328,145.597734 C88.1680893,145.177264 88.9435113,144.967031 89.8149219,144.967031 C91.1616474,144.967031 92.2508943,145.433198 93.0826953,146.365547 C93.9144963,147.297895 94.3303906,148.537961 94.3303906,150.085781 L94.3303906,150.204609 C94.3303906,151.167427 94.1460565,152.031207 93.7773828,152.795977 C93.4087091,153.560746 92.881605,154.156404 92.1960547,154.582969 C91.5105044,155.009533 90.7228951,155.222812 89.8332031,155.222812 C88.4925714,155.222812 87.4063713,154.756645 86.5745703,153.824297 C85.7427693,152.891948 85.326875,151.657976 85.326875,150.122344 L85.326875,150.003516 Z M87.0270313,150.204609 C87.0270313,151.30149 87.2814428,152.182028 87.7902734,152.84625 C88.2991041,153.510472 88.9800739,153.842578 89.8332031,153.842578 C90.6924262,153.842578 91.3749193,153.505902 91.8807031,152.832539 C92.3864869,152.159176 92.639375,151.216178 92.639375,150.003516 C92.639375,148.918823 92.3819166,148.039808 91.8669922,147.366445 C91.3520677,146.693083 90.6680511,146.356406 89.8149219,146.356406 C88.980074,146.356406 88.3067213,146.688512 87.7948438,147.352734 C87.2829662,148.016956 87.0270313,148.967572 87.0270313,150.204609 Z M102.556953,154.061953 C101.898825,154.835863 100.932975,155.222812 99.659375,155.222812 C98.605151,155.222812 97.8023074,154.916605 97.2508203,154.30418 C96.6993332,153.691755 96.4205469,152.785319 96.4144531,151.584844 L96.4144531,145.149844 L98.1054688,145.149844 L98.1054688,151.539141 C98.1054688,153.038211 98.7148377,153.787734 99.9335938,153.787734 C101.225475,153.787734 102.084685,153.306333 102.51125,152.343516 L102.51125,145.149844 L104.202266,145.149844 L104.202266,155.04 L102.593516,155.04 L102.556953,154.061953 Z M106.368594,150.012656 C106.368594,148.47093 106.725075,147.244575 107.438047,146.333555 C108.151019,145.422535 109.095541,144.967031 110.271641,144.967031 C111.478209,144.967031 112.419684,145.393589 113.096094,146.246719 L113.178359,145.149844 L114.723125,145.149844 L114.723125,154.802344 C114.723125,156.082038 114.343793,157.090543 113.585117,157.827891 C112.826442,158.565238 111.807272,158.933906 110.527578,158.933906 C109.814606,158.933906 109.116878,158.781564 108.434375,158.476875 C107.751872,158.172186 107.230861,157.754768 106.871328,157.224609 L107.748828,156.21 C108.473988,157.105786 109.36062,157.553672 110.40875,157.553672 C111.23141,157.553672 111.872771,157.322112 112.332852,156.858984 C112.792932,156.395857 113.022969,155.743832 113.022969,154.902891 L113.022969,154.052812 C112.346559,154.832816 111.423365,155.222812 110.253359,155.222812 C109.095541,155.222812 108.158636,154.756645 107.442617,153.824297 C106.726598,152.891948 106.368594,151.621414 106.368594,150.012656 Z M108.06875,150.204609 C108.06875,151.319771 108.297263,152.195739 108.754297,152.832539 C109.21133,153.469339 109.851168,153.787734 110.673828,153.787734 C111.74024,153.787734 112.523279,153.303286 113.022969,152.334375 L113.022969,147.818906 C112.504997,146.87437 111.728052,146.402109 110.692109,146.402109 C109.869449,146.402109 109.226565,146.722028 108.763438,147.361875 C108.30031,148.001722 108.06875,148.949291 108.06875,150.204609 Z M118.964375,146.347266 C119.71391,145.427105 120.6889,144.967031 121.889375,144.967031 C123.979542,144.967031 125.03375,146.14616 125.052031,148.504453 L125.052031,155.04 L123.361016,155.04 L123.361016,148.495312 C123.354922,147.78234 123.191916,147.255236 122.871992,146.913984 C122.552069,146.572733 122.05391,146.402109 121.3775,146.402109 C120.82906,146.402109 120.347658,146.548358 119.933281,146.840859 C119.518904,147.133361 119.195939,147.517263 118.964375,147.992578 L118.964375,155.04 L117.273359,155.04 L117.273359,141 L118.964375,141 L118.964375,146.347266 Z M138.324219,155.04 C138.226718,154.844999 138.1475,154.497659 138.086563,153.997969 C137.300465,154.814535 136.362037,155.222812 135.27125,155.222812 C134.296245,155.222812 133.496448,154.947073 132.871836,154.395586 C132.247223,153.844099 131.934922,153.144848 131.934922,152.297812 C131.934922,151.267964 132.326441,150.468167 133.109492,149.898398 C133.892543,149.32863 134.993977,149.04375 136.413828,149.04375 L138.059141,149.04375 L138.059141,148.266797 C138.059141,147.6757 137.882424,147.204963 137.528984,146.85457 C137.175545,146.504178 136.654535,146.328984 135.965937,146.328984 C135.362653,146.328984 134.856877,146.481327 134.448594,146.786016 C134.04031,147.090705 133.836172,147.459373 133.836172,147.892031 L132.136016,147.892031 C132.136016,147.398435 132.311209,146.921604 132.661602,146.461523 C133.011994,146.001443 133.487302,145.637345 134.087539,145.369219 C134.687776,145.101092 135.347418,144.967031 136.066484,144.967031 C137.206021,144.967031 138.098747,145.251911 138.744688,145.82168 C139.390628,146.391448 139.725781,147.176011 139.750156,148.175391 L139.750156,152.727422 C139.750156,153.635395 139.865936,154.357497 140.0975,154.89375 L140.0975,155.04 L138.324219,155.04 Z M135.518047,153.751172 C136.048206,153.751172 136.550935,153.614064 137.02625,153.339844 C137.501565,153.065624 137.845858,152.709143 138.059141,152.270391 L138.059141,150.241172 L136.73375,150.241172 C134.661865,150.241172 133.625937,150.847494 133.625937,152.060156 C133.625937,152.590315 133.802654,153.004686 134.156094,153.303281 C134.509533,153.601876 134.963513,153.751172 135.518047,153.751172 Z M155.408047,150.204609 C155.408047,151.715867 155.060707,152.930034 154.366016,153.847148 C153.671325,154.764262 152.73899,155.222812 151.568984,155.222812 C150.319759,155.222812 149.35391,154.78102 148.671406,153.897422 L148.589141,155.04 L147.035234,155.04 L147.035234,141 L148.72625,141 L148.72625,146.237578 C149.408753,145.390543 150.350228,144.967031 151.550703,144.967031 C152.751178,144.967031 153.694176,145.421011 154.379727,146.328984 C155.065277,147.236958 155.408047,148.48007 155.408047,150.058359 L155.408047,150.204609 Z M153.717031,150.012656 C153.717031,148.860932 153.494612,147.971253 153.049766,147.343594 C152.60492,146.715934 151.965082,146.402109 151.130234,146.402109 C150.015073,146.402109 149.213752,146.920073 148.72625,147.956016 L148.72625,152.233828 C149.244221,153.269771 150.051635,153.787734 151.148516,153.787734 C151.958988,153.787734 152.589685,153.473909 153.040625,152.84625 C153.491565,152.218591 153.717031,151.274069 153.717031,150.012656 Z M161.641953,155.222812 C160.301321,155.222812 159.210551,154.782543 158.369609,153.901992 C157.528668,153.021441 157.108203,151.843835 157.108203,150.369141 L157.108203,150.058359 C157.108203,149.077261 157.295584,148.201293 157.670352,147.43043 C158.045119,146.659566 158.569176,146.056291 159.242539,145.620586 C159.915902,145.184881 160.645621,144.967031 161.431719,144.967031 C162.717506,144.967031 163.716871,145.390543 164.429844,146.237578 C165.142816,147.084614 165.499297,148.297258 165.499297,149.875547 L165.499297,150.579375 L158.799219,150.579375 C158.823594,151.55438 159.108474,152.341989 159.653867,152.942227 C160.199261,153.542464 160.892418,153.842578 161.733359,153.842578 C162.33055,153.842578 162.836326,153.720704 163.250703,153.476953 C163.66508,153.233202 164.027655,152.910236 164.338438,152.508047 L165.371328,153.312422 C164.542574,154.586022 163.299461,155.222812 161.641953,155.222812 Z M161.431719,146.356406 C160.749215,146.356406 160.176409,146.604724 159.713281,147.101367 C159.250154,147.59801 158.963751,148.294214 158.854063,149.19 L163.808281,149.19 L163.808281,149.062031 C163.759531,148.202808 163.527971,147.537073 163.113594,147.064805 C162.699217,146.592537 162.138597,146.356406 161.431719,146.356406 Z M173.561328,155.04 C173.463828,154.844999 173.38461,154.497659 173.323672,153.997969 C172.537574,154.814535 171.599146,155.222812 170.508359,155.222812 C169.533355,155.222812 168.733558,154.947073 168.108945,154.395586 C167.484333,153.844099 167.172031,153.144848 167.172031,152.297812 C167.172031,151.267964 167.563551,150.468167 168.346602,149.898398 C169.129652,149.32863 170.231087,149.04375 171.650938,149.04375 L173.29625,149.04375 L173.29625,148.266797 C173.29625,147.6757 173.119533,147.204963 172.766094,146.85457 C172.412654,146.504178 171.891644,146.328984 171.203047,146.328984 C170.599763,146.328984 170.093986,146.481327 169.685703,146.786016 C169.27742,147.090705 169.073281,147.459373 169.073281,147.892031 L167.373125,147.892031 C167.373125,147.398435 167.548319,146.921604 167.898711,146.461523 C168.249103,146.001443 168.724411,145.637345 169.324648,145.369219 C169.924886,145.101092 170.584528,144.967031 171.303594,144.967031 C172.443131,144.967031 173.335856,145.251911 173.981797,145.82168 C174.627738,146.391448 174.962891,147.176011 174.987266,148.175391 L174.987266,152.727422 C174.987266,153.635395 175.103046,154.357497 175.334609,154.89375 L175.334609,155.04 L173.561328,155.04 Z M170.755156,153.751172 C171.285315,153.751172 171.788044,153.614064 172.263359,153.339844 C172.738674,153.065624 173.082968,152.709143 173.29625,152.270391 L173.29625,150.241172 L171.970859,150.241172 C169.898974,150.241172 168.863047,150.847494 168.863047,152.060156 C168.863047,152.590315 169.039764,153.004686 169.393203,153.303281 C169.746642,153.601876 170.200622,153.751172 170.755156,153.751172 Z M183.743984,154.061953 C183.085856,154.835863 182.120006,155.222812 180.846406,155.222812 C179.792182,155.222812 178.989339,154.916605 178.437852,154.30418 C177.886364,153.691755 177.607578,152.785319 177.601484,151.584844 L177.601484,145.149844 L179.2925,145.149844 L179.2925,151.539141 C179.2925,153.038211 179.901869,153.787734 181.120625,153.787734 C182.412506,153.787734 183.271717,153.306333 183.698281,152.343516 L183.698281,145.149844 L185.389297,145.149844 L185.389297,155.04 L183.780547,155.04 L183.743984,154.061953 Z M190.252109,142.755 L190.252109,145.149844 L192.098516,145.149844 L192.098516,146.456953 L190.252109,146.456953 L190.252109,152.590312 C190.252109,152.986408 190.334374,153.283476 190.498906,153.481523 C190.663438,153.679571 190.943748,153.778594 191.339844,153.778594 C191.534845,153.778594 191.802967,153.742032 192.144219,153.668906 L192.144219,155.04 C191.699373,155.161876 191.266721,155.222812 190.84625,155.222812 C190.090621,155.222812 189.520861,154.994299 189.136953,154.537266 C188.753045,154.080232 188.561094,153.431254 188.561094,152.590312 L188.561094,146.456953 L186.760391,146.456953 L186.760391,145.149844 L188.561094,145.149844 L188.561094,142.755 L190.252109,142.755 Z M195.910156,155.04 L194.219141,155.04 L194.219141,145.149844 L195.910156,145.149844 L195.910156,155.04 Z M194.082031,142.526484 C194.082031,142.252264 194.165819,142.020704 194.333398,141.831797 C194.500977,141.64289 194.749295,141.548437 195.078359,141.548437 C195.407424,141.548437 195.657265,141.64289 195.827891,141.831797 C195.998516,142.020704 196.083828,142.252264 196.083828,142.526484 C196.083828,142.800704 195.998516,143.029218 195.827891,143.212031 C195.657265,143.394845 195.407424,143.48625 195.078359,143.48625 C194.749295,143.48625 194.500977,143.394845 194.333398,143.212031 C194.165819,143.029218 194.082031,142.800704 194.082031,142.526484 Z M199.447578,155.04 L199.447578,146.456953 L197.884531,146.456953 L197.884531,145.149844 L199.447578,145.149844 L199.447578,144.135234 C199.447578,143.074917 199.730935,142.255315 200.297656,141.676406 C200.864378,141.097497 201.665698,140.808047 202.701641,140.808047 C203.091643,140.808047 203.478592,140.859843 203.8625,140.963437 L203.771094,142.334531 C203.484686,142.279687 203.180002,142.252266 202.857031,142.252266 C202.308591,142.252266 201.88508,142.412225 201.586484,142.732148 C201.287889,143.052072 201.138594,143.510622 201.138594,144.107812 L201.138594,145.149844 L203.250078,145.149844 L203.250078,146.456953 L201.138594,146.456953 L201.138594,155.04 L199.447578,155.04 Z M211.220703,154.061953 C210.562575,154.835863 209.596725,155.222812 208.323125,155.222812 C207.268901,155.222812 206.466057,154.916605 205.91457,154.30418 C205.363083,153.691755 205.084297,152.785319 205.078203,151.584844 L205.078203,145.149844 L206.769219,145.149844 L206.769219,151.539141 C206.769219,153.038211 207.378588,153.787734 208.597344,153.787734 C209.889225,153.787734 210.748435,153.306333 211.175,152.343516 L211.175,145.149844 L212.866016,145.149844 L212.866016,155.04 L211.257266,155.04 L211.220703,154.061953 Z M217.271797,155.04 L215.580781,155.04 L215.580781,141 L217.271797,141 L217.271797,155.04 Z M219.922578,157.690781 L218.962813,157.032656 C219.535628,156.234371 219.834219,155.411723 219.858594,154.564687 L219.858594,153.038203 L221.513047,153.038203 L221.513047,154.363594 C221.513047,154.979066 221.362228,155.594528 221.060586,156.21 C220.758944,156.825472 220.379612,157.319061 219.922578,157.690781 Z M71.5519531,173.204609 C71.5519531,174.709773 71.2076597,175.922417 70.5190625,176.842578 C69.8304653,177.762739 68.8981309,178.222812 67.7220312,178.222812 C66.5215565,178.222812 65.5770347,177.841957 64.8884375,177.080234 L64.8884375,181.8425 L63.1974219,181.8425 L63.1974219,168.149844 L64.7421875,168.149844 L64.8244531,169.246719 C65.5130503,168.393589 66.4697595,167.967031 67.6946094,167.967031 C68.8828966,167.967031 69.8228481,168.414917 70.5144922,169.310703 C71.2061363,170.206489 71.5519531,171.452648 71.5519531,173.049219 L71.5519531,173.204609 Z M69.8609375,173.012656 C69.8609375,171.897494 69.6232836,171.016956 69.1479688,170.371016 C68.6726539,169.725075 68.0206291,169.402109 67.191875,169.402109 C66.1681199,169.402109 65.4003151,169.856089 64.8884375,170.764062 L64.8884375,175.489766 C65.3942213,176.391645 66.1681198,176.842578 67.2101562,176.842578 C68.0206291,176.842578 68.6650367,176.521136 69.1433984,175.878242 C69.6217602,175.235348 69.8609375,174.280163 69.8609375,173.012656 Z M77.8041406,178.222812 C76.4635089,178.222812 75.3727386,177.782543 74.5317969,176.901992 C73.6908552,176.021441 73.2703906,174.843835 73.2703906,173.369141 L73.2703906,173.058359 C73.2703906,172.077261 73.4577716,171.201293 73.8325391,170.43043 C74.2073066,169.659566 74.7313638,169.056291 75.4047266,168.620586 C76.0780893,168.184881 76.8078086,167.967031 77.5939063,167.967031 C78.8796939,167.967031 79.8790589,168.390543 80.5920312,169.237578 C81.3050036,170.084614 81.6614844,171.297258 81.6614844,172.875547 L81.6614844,173.579375 L74.9614062,173.579375 C74.9857814,174.55438 75.2706613,175.341989 75.8160547,175.942227 C76.361448,176.542464 77.0546052,176.842578 77.8955469,176.842578 C78.4927374,176.842578 78.9985136,176.720704 79.4128906,176.476953 C79.8272677,176.233202 80.1898422,175.910236 80.500625,175.508047 L81.5335156,176.312422 C80.7047615,177.586022 79.4616489,178.222812 77.8041406,178.222812 Z M77.5939063,169.356406 C76.9114028,169.356406 76.3385961,169.604724 75.8754687,170.101367 C75.4123414,170.59801 75.125938,171.294214 75.01625,172.19 L79.9704688,172.19 L79.9704688,172.062031 C79.9217185,171.202808 79.6901583,170.537073 79.2757813,170.064805 C78.8614042,169.592537 78.3007848,169.356406 77.5939063,169.356406 Z M88.398125,169.667187 C88.1421862,169.624531 87.8649234,169.603203 87.5663281,169.603203 C86.4572601,169.603203 85.7046895,170.075464 85.3085938,171.02 L85.3085938,178.04 L83.6175781,178.04 L83.6175781,168.149844 L85.2628906,168.149844 L85.2903125,169.292422 C85.8448465,168.408824 86.6309324,167.967031 87.6485938,167.967031 C87.9776579,167.967031 88.2274991,168.009687 88.398125,168.095 L88.398125,169.667187 Z M95.710625,175.416641 C95.710625,174.959607 95.5384783,174.60465 95.1941797,174.351758 C94.8498811,174.098866 94.2496527,173.881017 93.3934766,173.698203 C92.5373004,173.51539 91.8578541,173.296017 91.3551172,173.040078 C90.8523803,172.784139 90.4806653,172.479455 90.2399609,172.126016 C89.9992566,171.772576 89.8789062,171.352112 89.8789062,170.864609 C89.8789062,170.054137 90.2216763,169.368597 90.9072266,168.807969 C91.5927769,168.247341 92.4687447,167.967031 93.5351562,167.967031 C94.6564119,167.967031 95.5658949,168.256481 96.2636328,168.835391 C96.9613707,169.4143 97.3102344,170.154683 97.3102344,171.056562 L95.6100781,171.056562 C95.6100781,170.593435 95.4135567,170.194299 95.0205078,169.859141 C94.627459,169.523983 94.1323467,169.356406 93.5351562,169.356406 C92.9196844,169.356406 92.438283,169.490467 92.0909375,169.758594 C91.743592,170.02672 91.5699219,170.377107 91.5699219,170.809766 C91.5699219,171.218049 91.7314046,171.52578 92.054375,171.732969 C92.3773454,171.940157 92.9608161,172.138202 93.8048047,172.327109 C94.6487933,172.516017 95.3328099,172.741483 95.856875,173.003516 C96.3809401,173.265548 96.7694128,173.580897 97.0223047,173.94957 C97.2751966,174.318244 97.4016406,174.767654 97.4016406,175.297812 C97.4016406,176.181411 97.0482067,176.889802 96.3413281,177.423008 C95.6344496,177.956214 94.7173494,178.222812 93.59,178.222812 C92.7978085,178.222812 92.0970343,178.082658 91.4876562,177.802344 C90.8782782,177.52203 90.401447,177.13051 90.0571484,176.627773 C89.7128498,176.125037 89.5407031,175.581175 89.5407031,174.996172 L91.2317188,174.996172 C91.2621877,175.562893 91.4891776,176.012303 91.9126953,176.344414 C92.3362131,176.676525 92.895309,176.842578 93.59,176.842578 C94.2298469,176.842578 94.7432403,176.713087 95.1301953,176.454102 C95.5171504,176.195116 95.710625,175.849299 95.710625,175.416641 Z M99.1566406,173.003516 C99.1566406,172.034605 99.3470684,171.163207 99.7279297,170.389297 C100.108791,169.615387 100.638942,169.018205 101.318398,168.597734 C101.997855,168.177264 102.773277,167.967031 103.644688,167.967031 C104.991413,167.967031 106.08066,168.433198 106.912461,169.365547 C107.744262,170.297895 108.160156,171.537961 108.160156,173.085781 L108.160156,173.204609 C108.160156,174.167427 107.975822,175.031207 107.607148,175.795977 C107.238475,176.560746 106.711371,177.156404 106.02582,177.582969 C105.34027,178.009533 104.552661,178.222812 103.662969,178.222812 C102.322337,178.222812 101.236137,177.756645 100.404336,176.824297 C99.5725349,175.891948 99.1566406,174.657976 99.1566406,173.122344 L99.1566406,173.003516 Z M100.856797,173.204609 C100.856797,174.30149 101.111208,175.182028 101.620039,175.84625 C102.12887,176.510472 102.809839,176.842578 103.662969,176.842578 C104.522192,176.842578 105.204685,176.505902 105.710469,175.832539 C106.216253,175.159176 106.469141,174.216178 106.469141,173.003516 C106.469141,171.918823 106.211682,171.039808 105.696758,170.366445 C105.181833,169.693083 104.497817,169.356406 103.644688,169.356406 C102.80984,169.356406 102.136487,169.688512 101.624609,170.352734 C101.112732,171.016956 100.856797,171.967572 100.856797,173.204609 Z M111.880391,168.149844 L111.935234,169.392969 C112.690863,168.442339 113.678041,167.967031 114.896797,167.967031 C116.986964,167.967031 118.041172,169.14616 118.059453,171.504453 L118.059453,178.04 L116.368438,178.04 L116.368438,171.495312 C116.362344,170.78234 116.199338,170.255236 115.879414,169.913984 C115.559491,169.572733 115.061332,169.402109 114.384922,169.402109 C113.836482,169.402109 113.35508,169.548358 112.940703,169.840859 C112.526326,170.133361 112.203361,170.517263 111.971797,170.992578 L111.971797,178.04 L110.280781,178.04 L110.280781,168.149844 L111.880391,168.149844 Z M126.715625,178.04 C126.618125,177.844999 126.538907,177.497659 126.477969,176.997969 C125.691871,177.814535 124.753443,178.222812 123.662656,178.222812 C122.687651,178.222812 121.887855,177.947073 121.263242,177.395586 C120.63863,176.844099 120.326328,176.144848 120.326328,175.297812 C120.326328,174.267964 120.717848,173.468167 121.500898,172.898398 C122.283949,172.32863 123.385384,172.04375 124.805234,172.04375 L126.450547,172.04375 L126.450547,171.266797 C126.450547,170.6757 126.27383,170.204963 125.920391,169.85457 C125.566951,169.504178 125.045941,169.328984 124.357344,169.328984 C123.754059,169.328984 123.248283,169.481327 122.84,169.786016 C122.431717,170.090705 122.227578,170.459373 122.227578,170.892031 L120.527422,170.892031 C120.527422,170.398435 120.702615,169.921604 121.053008,169.461523 C121.4034,169.001443 121.878708,168.637345 122.478945,168.369219 C123.079183,168.101092 123.738825,167.967031 124.457891,167.967031 C125.597428,167.967031 126.490153,168.251911 127.136094,168.82168 C127.782034,169.391448 128.117187,170.176011 128.141562,171.175391 L128.141562,175.727422 C128.141562,176.635395 128.257343,177.357497 128.488906,177.89375 L128.488906,178.04 L126.715625,178.04 Z M123.909453,176.751172 C124.439612,176.751172 124.942341,176.614064 125.417656,176.339844 C125.892971,176.065624 126.237265,175.709143 126.450547,175.270391 L126.450547,173.241172 L125.125156,173.241172 C123.053271,173.241172 122.017344,173.847494 122.017344,175.060156 C122.017344,175.590315 122.194061,176.004686 122.5475,176.303281 C122.900939,176.601876 123.354919,176.751172 123.909453,176.751172 Z M132.629609,178.04 L130.938594,178.04 L130.938594,164 L132.629609,164 L132.629609,178.04 Z M137.1725,178.04 L135.481484,178.04 L135.481484,168.149844 L137.1725,168.149844 L137.1725,178.04 Z M135.344375,165.526484 C135.344375,165.252264 135.428163,165.020704 135.595742,164.831797 C135.763321,164.64289 136.011639,164.548437 136.340703,164.548437 C136.669767,164.548437 136.919609,164.64289 137.090234,164.831797 C137.26086,165.020704 137.346172,165.252264 137.346172,165.526484 C137.346172,165.800704 137.26086,166.029218 137.090234,166.212031 C136.919609,166.394845 136.669767,166.48625 136.340703,166.48625 C136.011639,166.48625 135.763321,166.394845 135.595742,166.212031 C135.428163,166.029218 135.344375,165.800704 135.344375,165.526484 Z M141.468594,176.659766 L147.254609,176.659766 L147.254609,178.04 L139.402812,178.04 L139.402812,176.796875 L144.859766,169.548359 L139.485078,169.548359 L139.485078,168.149844 L146.980391,168.149844 L146.980391,169.347266 L141.468594,176.659766 Z M153.11375,178.222812 C151.773118,178.222812 150.682348,177.782543 149.841406,176.901992 C149.000465,176.021441 148.58,174.843835 148.58,173.369141 L148.58,173.058359 C148.58,172.077261 148.767381,171.201293 149.142148,170.43043 C149.516916,169.659566 150.040973,169.056291 150.714336,168.620586 C151.387699,168.184881 152.117418,167.967031 152.903516,167.967031 C154.189303,167.967031 155.188668,168.390543 155.901641,169.237578 C156.614613,170.084614 156.971094,171.297258 156.971094,172.875547 L156.971094,173.579375 L150.271016,173.579375 C150.295391,174.55438 150.580271,175.341989 151.125664,175.942227 C151.671057,176.542464 152.364215,176.842578 153.205156,176.842578 C153.802347,176.842578 154.308123,176.720704 154.7225,176.476953 C155.136877,176.233202 155.499452,175.910236 155.810234,175.508047 L156.843125,176.312422 C156.014371,177.586022 154.771258,178.222812 153.11375,178.222812 Z M152.903516,169.356406 C152.221012,169.356406 151.648205,169.604724 151.185078,170.101367 C150.721951,170.59801 150.435547,171.294214 150.325859,172.19 L155.280078,172.19 L155.280078,172.062031 C155.231328,171.202808 154.999768,170.537073 154.585391,170.064805 C154.171014,169.592537 153.610394,169.356406 152.903516,169.356406 Z M158.515859,173.012656 C158.515859,171.495305 158.875387,170.275044 159.594453,169.351836 C160.313519,168.428628 161.254994,167.967031 162.418906,167.967031 C163.576725,167.967031 164.493825,168.363121 165.170234,169.155312 L165.170234,164 L166.86125,164 L166.86125,178.04 L165.307344,178.04 L165.225078,176.979687 C164.548668,177.808442 163.607194,178.222812 162.400625,178.222812 C161.254994,178.222812 160.321136,177.753598 159.599023,176.815156 C158.87691,175.876714 158.515859,174.651883 158.515859,173.140625 L158.515859,173.012656 Z M160.206875,173.204609 C160.206875,174.325865 160.438435,175.203356 160.901563,175.837109 C161.36469,176.470863 162.004527,176.787734 162.821094,176.787734 C163.893599,176.787734 164.676638,176.306333 165.170234,175.343516 L165.170234,170.800625 C164.664451,169.868277 163.887505,169.402109 162.839375,169.402109 C162.010621,169.402109 161.36469,169.722028 160.901563,170.361875 C160.438435,171.001722 160.206875,171.949291 160.206875,173.204609 Z M175.956172,178.04 L174.265156,178.04 L174.265156,168.149844 L175.956172,168.149844 L175.956172,178.04 Z M174.128047,165.526484 C174.128047,165.252264 174.211835,165.020704 174.379414,164.831797 C174.546993,164.64289 174.795311,164.548437 175.124375,164.548437 C175.453439,164.548437 175.70328,164.64289 175.873906,164.831797 C176.044532,165.020704 176.129844,165.252264 176.129844,165.526484 C176.129844,165.800704 176.044532,166.029218 175.873906,166.212031 C175.70328,166.394845 175.453439,166.48625 175.124375,166.48625 C174.795311,166.48625 174.546993,166.394845 174.379414,166.212031 C174.211835,166.029218 174.128047,165.800704 174.128047,165.526484 Z M180.261406,168.149844 L180.31625,169.392969 C181.071879,168.442339 182.059056,167.967031 183.277812,167.967031 C185.367979,167.967031 186.422187,169.14616 186.440469,171.504453 L186.440469,178.04 L184.749453,178.04 L184.749453,171.495312 C184.743359,170.78234 184.580353,170.255236 184.26043,169.913984 C183.940506,169.572733 183.442347,169.402109 182.765938,169.402109 C182.217497,169.402109 181.736096,169.548358 181.321719,169.840859 C180.907342,170.133361 180.584376,170.517263 180.352813,170.992578 L180.352813,178.04 L178.661797,178.04 L178.661797,168.149844 L180.261406,168.149844 Z M191.285,165.755 L191.285,168.149844 L193.131406,168.149844 L193.131406,169.456953 L191.285,169.456953 L191.285,175.590312 C191.285,175.986408 191.367265,176.283476 191.531797,176.481523 C191.696329,176.679571 191.976639,176.778594 192.372734,176.778594 C192.567735,176.778594 192.835858,176.742032 193.177109,176.668906 L193.177109,178.04 C192.732263,178.161876 192.299611,178.222812 191.879141,178.222812 C191.123512,178.222812 190.553752,177.994299 190.169844,177.537266 C189.785936,177.080232 189.593984,176.431254 189.593984,175.590312 L189.593984,169.456953 L187.793281,169.456953 L187.793281,168.149844 L189.593984,168.149844 L189.593984,165.755 L191.285,165.755 Z M199.209922,178.222812 C197.86929,178.222812 196.77852,177.782543 195.937578,176.901992 C195.096636,176.021441 194.676172,174.843835 194.676172,173.369141 L194.676172,173.058359 C194.676172,172.077261 194.863553,171.201293 195.23832,170.43043 C195.613088,169.659566 196.137145,169.056291 196.810508,168.620586 C197.483871,168.184881 198.21359,167.967031 198.999688,167.967031 C200.285475,167.967031 201.28484,168.390543 201.997813,169.237578 C202.710785,170.084614 203.067266,171.297258 203.067266,172.875547 L203.067266,173.579375 L196.367188,173.579375 C196.391563,174.55438 196.676443,175.341989 197.221836,175.942227 C197.767229,176.542464 198.460386,176.842578 199.301328,176.842578 C199.898519,176.842578 200.404295,176.720704 200.818672,176.476953 C201.233049,176.233202 201.595623,175.910236 201.906406,175.508047 L202.939297,176.312422 C202.110543,177.586022 200.86743,178.222812 199.209922,178.222812 Z M198.999688,169.356406 C198.317184,169.356406 197.744377,169.604724 197.28125,170.101367 C196.818123,170.59801 196.531719,171.294214 196.422031,172.19 L201.37625,172.19 L201.37625,172.062031 C201.3275,171.202808 201.09594,170.537073 200.681563,170.064805 C200.267185,169.592537 199.706566,169.356406 198.999688,169.356406 Z M209.803906,169.667187 C209.547967,169.624531 209.270705,169.603203 208.972109,169.603203 C207.863041,169.603203 207.110471,170.075464 206.714375,171.02 L206.714375,178.04 L205.023359,178.04 L205.023359,168.149844 L206.668672,168.149844 L206.696094,169.292422 C207.250628,168.408824 208.036714,167.967031 209.054375,167.967031 C209.383439,167.967031 209.63328,168.009687 209.803906,168.095 L209.803906,169.667187 Z M212.326719,178.04 L212.326719,169.456953 L210.763672,169.456953 L210.763672,168.149844 L212.326719,168.149844 L212.326719,167.135234 C212.326719,166.074917 212.610075,165.255315 213.176797,164.676406 C213.743518,164.097497 214.544839,163.808047 215.580781,163.808047 C215.970783,163.808047 216.357732,163.859843 216.741641,163.963437 L216.650234,165.334531 C216.363827,165.279687 216.059142,165.252266 215.736172,165.252266 C215.187732,165.252266 214.76422,165.412225 214.465625,165.732148 C214.16703,166.052072 214.017734,166.510622 214.017734,167.107812 L214.017734,168.149844 L216.129219,168.149844 L216.129219,169.456953 L214.017734,169.456953 L214.017734,178.04 L212.326719,178.04 Z M224.099844,178.04 C224.002343,177.844999 223.923125,177.497659 223.862187,176.997969 C223.07609,177.814535 222.137662,178.222812 221.046875,178.222812 C220.07187,178.222812 219.272073,177.947073 218.647461,177.395586 C218.022848,176.844099 217.710547,176.144848 217.710547,175.297812 C217.710547,174.267964 218.102066,173.468167 218.885117,172.898398 C219.668168,172.32863 220.769602,172.04375 222.189453,172.04375 L223.834766,172.04375 L223.834766,171.266797 C223.834766,170.6757 223.658049,170.204963 223.304609,169.85457 C222.95117,169.504178 222.43016,169.328984 221.741563,169.328984 C221.138278,169.328984 220.632502,169.481327 220.224219,169.786016 C219.815935,170.090705 219.611797,170.459373 219.611797,170.892031 L217.911641,170.892031 C217.911641,170.398435 218.086834,169.921604 218.437227,169.461523 C218.787619,169.001443 219.262927,168.637345 219.863164,168.369219 C220.463401,168.101092 221.123043,167.967031 221.842109,167.967031 C222.981646,167.967031 223.874372,168.251911 224.520313,168.82168 C225.166253,169.391448 225.501406,170.176011 225.525781,171.175391 L225.525781,175.727422 C225.525781,176.635395 225.641561,177.357497 225.873125,177.89375 L225.873125,178.04 L224.099844,178.04 Z M221.293672,176.751172 C221.823831,176.751172 222.32656,176.614064 222.801875,176.339844 C223.27719,176.065624 223.621483,175.709143 223.834766,175.270391 L223.834766,173.241172 L222.509375,173.241172 C220.43749,173.241172 219.401563,173.847494 219.401563,175.060156 C219.401563,175.590315 219.578279,176.004686 219.931719,176.303281 C220.285158,176.601876 220.739138,176.751172 221.293672,176.751172 Z M232.143594,176.842578 C232.746878,176.842578 233.273982,176.659767 233.724922,176.294141 C234.175862,175.928514 234.425703,175.471487 234.474453,174.923047 L236.074063,174.923047 C236.043594,175.489768 235.848596,176.02906 235.489063,176.540937 C235.129529,177.052815 234.649651,177.461092 234.049414,177.765781 C233.449177,178.07047 232.81391,178.222812 232.143594,178.222812 C230.796868,178.222812 229.725902,177.773403 228.930664,176.87457 C228.135426,175.975738 227.737813,174.746336 227.737813,173.186328 L227.737813,172.902969 C227.737813,171.940151 227.914529,171.083988 228.267969,170.334453 C228.621408,169.584918 229.128708,169.002971 229.789883,168.588594 C230.451058,168.174217 231.232574,167.967031 232.134453,167.967031 C233.243521,167.967031 234.165192,168.299137 234.899492,168.963359 C235.633793,169.627581 236.025312,170.489838 236.074063,171.550156 L234.474453,171.550156 C234.425703,170.910309 234.183479,170.384729 233.747773,169.973398 C233.312068,169.562068 232.7743,169.356406 232.134453,169.356406 C231.27523,169.356406 230.609495,169.665661 230.137227,170.28418 C229.664959,170.902698 229.428828,171.796947 229.428828,172.966953 L229.428828,173.286875 C229.428828,174.426412 229.663435,175.303903 230.132656,175.919375 C230.601877,176.534847 231.272183,176.842578 232.143594,176.842578 Z M242.079453,178.222812 C240.738821,178.222812 239.648051,177.782543 238.807109,176.901992 C237.966168,176.021441 237.545703,174.843835 237.545703,173.369141 L237.545703,173.058359 C237.545703,172.077261 237.733084,171.201293 238.107852,170.43043 C238.482619,169.659566 239.006676,169.056291 239.680039,168.620586 C240.353402,168.184881 241.083121,167.967031 241.869219,167.967031 C243.155006,167.967031 244.154371,168.390543 244.867344,169.237578 C245.580316,170.084614 245.936797,171.297258 245.936797,172.875547 L245.936797,173.579375 L239.236719,173.579375 C239.261094,174.55438 239.545974,175.341989 240.091367,175.942227 C240.636761,176.542464 241.329918,176.842578 242.170859,176.842578 C242.76805,176.842578 243.273826,176.720704 243.688203,176.476953 C244.10258,176.233202 244.465155,175.910236 244.775938,175.508047 L245.808828,176.312422 C244.980074,177.586022 243.736961,178.222812 242.079453,178.222812 Z M241.869219,169.356406 C241.186715,169.356406 240.613909,169.604724 240.150781,170.101367 C239.687654,170.59801 239.401251,171.294214 239.291563,172.19 L244.245781,172.19 L244.245781,172.062031 C244.197031,171.202808 243.965471,170.537073 243.551094,170.064805 C243.136717,169.592537 242.576097,169.356406 241.869219,169.356406 Z M247.929453,177.153359 C247.929453,176.860858 248.016288,176.61711 248.189961,176.422109 C248.363634,176.227108 248.624139,176.129609 248.971484,176.129609 C249.31883,176.129609 249.582382,176.227108 249.762148,176.422109 C249.941915,176.61711 250.031797,176.860858 250.031797,177.153359 C250.031797,177.433673 249.941915,177.66828 249.762148,177.857188 C249.582382,178.046095 249.31883,178.140547 248.971484,178.140547 C248.624139,178.140547 248.363634,178.046095 248.189961,177.857188 C248.016288,177.66828 247.929453,177.433673 247.929453,177.153359 Z" id="Share-your-URL-and-l" fill="#FFFFFF"></path>
                <path d="M30.4545898,42.4114258 L34.7049805,42.4114258 C37.0587032,42.4114258 39.1153232,41.9943889 40.8749023,41.1603027 C42.6344815,40.3262165 43.9769973,39.1836498 44.9024902,37.7325684 C45.8279831,36.2814869 46.2907227,34.6076267 46.2907227,32.7109375 C46.2907227,29.5117028 45.388095,27.0094817 43.5828125,25.2041992 C41.77753,23.3989168 39.1839036,22.4962891 35.8018555,22.4962891 C32.6026207,22.4962891 29.9804301,23.4389066 27.9352051,25.3241699 C25.88998,27.2094333 24.8673828,29.6945158 24.8673828,32.7794922 L20.7541016,32.7794922 C20.7541016,30.1972527 21.4053646,27.8378525 22.7079102,25.7012207 C24.0104557,23.5645889 25.8157111,21.91358 28.1237305,20.7481445 C30.4317498,19.582709 32.9910992,19 35.8018555,19 C40.3264875,19 43.8912956,20.233972 46.4963867,22.7019531 C49.1014779,25.1699342 50.4040039,28.5519316 50.4040039,32.8480469 C50.4040039,35.2474729 49.6441971,37.4583395 48.1245605,39.4807129 C46.604924,41.5030863 44.5197398,43.0169872 41.8689453,44.0224609 C44.9767734,44.8908247 47.3304608,46.3818742 48.9300781,48.4956543 C50.5296955,50.6094344 51.3294922,53.128794 51.3294922,56.0538086 C51.3294922,60.3270721 49.9355608,63.7661979 47.1476562,66.3712891 C44.3597517,68.9763802 40.6349842,70.2789062 35.9732422,70.2789062 C33.0025242,70.2789062 30.2775026,69.6847716 27.7980957,68.4964844 C25.3186888,67.3081972 23.3991767,65.6457626 22.039502,63.5091309 C20.6798272,61.3724991 20,58.8874165 20,56.0538086 L24.1132812,56.0538086 C24.1132812,59.2301917 25.2215709,61.8181052 27.4381836,63.817627 C29.6547962,65.8171487 32.4997873,66.8168945 35.9732422,66.8168945 C39.5152521,66.8168945 42.2745507,65.908554 44.2512207,64.0918457 C46.2278907,62.2751374 47.2162109,59.6415212 47.2162109,56.190918 C47.2162109,52.8545732 46.1479111,50.3066494 44.0112793,48.5470703 C41.8746475,46.7874912 38.7268763,45.9077148 34.5678711,45.9077148 L30.4545898,45.9077148 L30.4545898,42.4114258 Z" id="3" fill="#FFFFFF"></path>
            </g>
        </g>
    </g>
</svg>