<?xml version="1.0" encoding="UTF-8"?>
<svg width="257px" height="164px" viewBox="0 0 257 164" version="1.1" xmlns="http://www.w3.org/2000/svg" xmlns:xlink="http://www.w3.org/1999/xlink">
    <!-- Generator: Sketch 49 (51002) - http://www.bohemiancoding.com/sketch -->
    <title>step-2</title>
    <desc>Created with Sketch.</desc>
    <defs></defs>
    <g id="Page-1" stroke="none" stroke-width="1" fill="none" fill-rule="evenodd">
        <g id="Artboard" transform="translate(-438.000000, -555.000000)">
            <g id="step-2" transform="translate(418.000000, 536.000000)">
                <rect id="Rectangle" x="0" y="0" width="298" height="199"></rect>
                <path d="M77.3397656,62.3480078 C77.0731627,64.8007545 76.1960524,66.6776107 74.7084082,67.9786328 C73.220764,69.2796549 71.2399342,69.9301562 68.7658594,69.9301562 C67.0382726,69.9301562 65.5106609,69.498266 64.1829785,68.6344727 C62.8552961,67.7706793 61.8288903,66.5469903 61.1037305,64.9633691 C60.3785706,63.3797479 60.0106641,61.5695414 60,59.5326953 L60,56.5094336 C60,54.4405951 60.3625745,52.6063947 61.0877344,51.0067773 C61.8128943,49.40716 62.8552959,48.1728071 64.2149707,47.3036816 C65.5746455,46.4345562 67.139581,46 68.9098242,46 C71.4052273,46 73.3753932,46.6744952 74.8203809,48.0235059 C76.2653686,49.3725165 77.1051551,51.2360428 77.3397656,53.6141406 L75.35625,53.6141406 C74.8657007,49.6577537 72.7169136,47.6795898 68.9098242,47.6795898 C66.7983293,47.6795898 65.1160902,48.4687226 63.8630566,50.0470117 C62.610023,51.6253009 61.9835156,53.8060798 61.9835156,56.5894141 L61.9835156,59.4367187 C61.9835156,62.1240759 62.5940271,64.2675311 63.8150684,65.8671484 C65.0361096,67.4667658 66.6863568,68.2665625 68.7658594,68.2665625 C70.8240337,68.2665625 72.3756393,67.7733545 73.4207227,66.7869238 C74.465806,65.8004931 75.1109753,64.3208692 75.35625,62.3480078 L77.3397656,62.3480078 Z M80.6189648,60.7004102 C80.6189648,59.0368081 80.9415495,57.5385223 81.5867285,56.2055078 C82.2319075,54.8724933 83.1436757,53.8354236 84.3220605,53.0942676 C85.5004453,52.3531115 86.8361058,51.9825391 88.329082,51.9825391 C90.632531,51.9825391 92.4987233,52.7903337 93.9277148,54.4059473 C95.3567064,56.0215608 96.0711914,58.16235 96.0711914,60.8283789 L96.0711914,61.2282813 C96.0711914,62.9025474 95.7486067,64.4088312 95.1034277,65.7471777 C94.4582487,67.0855243 93.5491465,68.117262 92.3760937,68.8424219 C91.203041,69.5675818 89.8647145,69.9301562 88.3610742,69.9301562 C86.0682893,69.9301562 84.204763,69.1223616 82.7704395,67.506748 C81.3361159,65.8911345 80.6189648,63.7503454 80.6189648,61.0843164 L80.6189648,60.7004102 Z M82.5384961,61.2282813 C82.5384961,63.2971197 83.0743599,64.9953547 84.1461035,66.3230371 C85.2178472,67.6507195 86.6228233,68.3145508 88.3610742,68.3145508 C90.088661,68.3145508 91.4883052,67.6507195 92.5600488,66.3230371 C93.6317925,64.9953547 94.1676562,63.2437999 94.1676562,61.0683203 L94.1676562,60.7004102 C94.1676562,59.3780598 93.9223853,58.1677008 93.4318359,57.0692969 C92.9412866,55.9708929 92.2534615,55.1204425 91.3683398,54.5179199 C90.4832182,53.9153974 89.4701424,53.6141406 88.329082,53.6141406 C86.6228235,53.6141406 85.2311773,54.2833039 84.1541016,55.6216504 C83.0770259,56.9599969 82.5384961,58.7115517 82.5384961,60.8763672 L82.5384961,61.2282813 Z M101.845781,52.3024609 L101.909766,55.2617383 C102.560277,54.1953267 103.370737,53.3822001 104.341172,52.822334 C105.311606,52.2624679 106.383334,51.9825391 107.556387,51.9825391 C109.411943,51.9825391 110.792925,52.5050729 111.699375,53.5501562 C112.605825,54.5952396 113.064375,56.1628411 113.075039,58.2530078 L113.075039,69.6102344 L111.171504,69.6102344 L111.171504,58.2370117 C111.16084,56.6907149 110.832923,55.5390077 110.187744,54.7818555 C109.542565,54.0247032 108.510827,53.6461328 107.0925,53.6461328 C105.908783,53.6461328 104.861049,54.0167053 103.949268,54.7578613 C103.037486,55.4990174 102.36299,56.4987632 101.925762,57.7571289 L101.925762,69.6102344 L100.022227,69.6102344 L100.022227,52.3024609 L101.845781,52.3024609 Z M119.841387,52.3024609 L119.905371,55.2617383 C120.555882,54.1953267 121.366343,53.3822001 122.336777,52.822334 C123.307212,52.2624679 124.378939,51.9825391 125.551992,51.9825391 C127.407548,51.9825391 128.788531,52.5050729 129.69498,53.5501562 C130.60143,54.5952396 131.05998,56.1628411 131.070645,58.2530078 L131.070645,69.6102344 L129.167109,69.6102344 L129.167109,58.2370117 C129.156445,56.6907149 128.828529,55.5390077 128.18335,54.7818555 C127.538171,54.0247032 126.506433,53.6461328 125.088105,53.6461328 C123.904389,53.6461328 122.856655,54.0167053 121.944873,54.7578613 C121.033091,55.4990174 120.358596,56.4987632 119.921367,57.7571289 L119.921367,69.6102344 L118.017832,69.6102344 L118.017832,52.3024609 L119.841387,52.3024609 Z M142.715801,69.9301562 C141.244153,69.9301562 139.913824,69.5675818 138.724775,68.8424219 C137.535726,68.117262 136.610628,67.1068522 135.949453,65.8111621 C135.288278,64.515472 134.957695,63.0625081 134.957695,61.4522266 L134.957695,60.7643945 C134.957695,59.1007925 135.28028,57.6025067 135.925459,56.2694922 C136.570638,54.9364777 137.469076,53.888744 138.620801,53.1262598 C139.772525,52.3637755 141.020208,51.9825391 142.363887,51.9825391 C144.464718,51.9825391 146.130961,52.6996901 147.362666,54.1340137 C148.594371,55.5683372 149.210215,57.5278391 149.210215,60.0125781 L149.210215,61.0843164 L136.86123,61.0843164 L136.86123,61.4522266 C136.86123,63.4144239 137.423754,65.0486751 138.548818,66.3550293 C139.673883,67.6613835 141.089523,68.3145508 142.795781,68.3145508 C143.819536,68.3145508 144.723307,68.1279316 145.507119,67.7546875 C146.290932,67.3814434 147.002751,66.7842619 147.642598,65.963125 L148.842305,66.8749023 C147.434641,68.9117485 145.392494,69.9301562 142.715801,69.9301562 Z M142.363887,53.6141406 C140.924231,53.6141406 139.711206,54.1420064 138.724775,55.1977539 C137.738345,56.2535014 137.138497,57.6718075 136.925215,59.4527148 L147.30668,59.4527148 L147.30668,59.2447656 C147.253359,57.5811636 146.778813,56.2268412 145.883027,55.1817578 C144.987242,54.1366745 143.814206,53.6141406 142.363887,53.6141406 Z M159.335742,68.3145508 C160.668757,68.3145508 161.785806,67.9386463 162.686924,67.1868262 C163.588042,66.435006 164.075918,65.46192 164.150566,64.2675391 L165.990117,64.2675391 C165.936797,65.3232865 165.606214,66.2857085 164.998359,67.154834 C164.390505,68.0239594 163.58271,68.7037866 162.574951,69.1943359 C161.567192,69.6848853 160.487467,69.9301562 159.335742,69.9301562 C157.064286,69.9301562 155.264743,69.1410235 153.937061,67.5627344 C152.609378,65.9844452 151.945547,63.862318 151.945547,61.1962891 L151.945547,60.6204297 C151.945547,58.9141712 152.244138,57.4052214 152.841328,56.0935352 C153.438519,54.7818489 154.294301,53.7687731 155.408701,53.0542773 C156.523101,52.3397816 157.82677,51.9825391 159.319746,51.9825391 C161.217959,51.9825391 162.782894,52.5477287 164.0146,53.678125 C165.246305,54.8085213 165.904804,56.2961431 165.990117,58.1410352 L164.150566,58.1410352 C164.065253,56.7866924 163.577377,55.693637 162.686924,54.8618359 C161.79647,54.0300349 160.674089,53.6141406 159.319746,53.6141406 C157.592159,53.6141406 156.251167,54.237982 155.296729,55.4856836 C154.34229,56.7333851 153.865078,58.4822739 153.865078,60.7324023 L153.865078,61.2922656 C153.865078,63.4997376 154.34229,65.2219665 155.296729,66.4590039 C156.251167,67.6960413 157.597491,68.3145508 159.335742,68.3145508 Z M172.788457,47.871543 L172.788457,52.3024609 L176.371582,52.3024609 L176.371582,53.8700781 L172.788457,53.8700781 L172.788457,65.4032617 C172.788457,66.3630321 172.961746,67.0775172 173.30833,67.5467383 C173.654914,68.0159594 174.233433,68.2505664 175.043906,68.2505664 C175.36383,68.2505664 175.881032,68.1972466 176.595527,68.0906055 L176.675508,69.6582227 C176.174294,69.8395126 175.491801,69.9301562 174.628008,69.9301562 C173.316322,69.9301562 172.361898,69.5489198 171.764707,68.7864355 C171.167517,68.0239513 170.868926,66.9015699 170.868926,65.4192578 L170.868926,53.8700781 L167.685703,53.8700781 L167.685703,52.3024609 L170.868926,52.3024609 L170.868926,47.871543 L172.788457,47.871543 Z" id="Connect-Copy-2" fill="#FFFFFF"></path>
                <path d="M64.3454688,109.04 L62.5904688,109.04 L62.5904688,95.73125 L64.3454688,95.73125 L64.3454688,109.04 Z M68.8883594,99.1498437 L68.9432031,100.392969 C69.6988319,99.442339 70.6860095,98.9670312 71.9047656,98.9670312 C73.9949323,98.9670312 75.0491405,100.14616 75.0674219,102.504453 L75.0674219,109.04 L73.3764063,109.04 L73.3764063,102.495312 C73.3703125,101.78234 73.2073063,101.255236 72.8873828,100.913984 C72.5674593,100.572733 72.0693003,100.402109 71.3928906,100.402109 C70.8444504,100.402109 70.3630489,100.548358 69.9486719,100.840859 C69.5342948,101.133361 69.2113293,101.517263 68.9797656,101.992578 L68.9797656,109.04 L67.28875,109.04 L67.28875,99.1498437 L68.8883594,99.1498437 Z M83.37625,106.416641 C83.37625,105.959607 83.2041033,105.60465 82.8598047,105.351758 C82.5155061,105.098866 81.9152777,104.881017 81.0591016,104.698203 C80.2029254,104.51539 79.5234791,104.296017 79.0207422,104.040078 C78.5180053,103.784139 78.1462903,103.479455 77.9055859,103.126016 C77.6648816,102.772576 77.5445313,102.352112 77.5445313,101.864609 C77.5445313,101.054137 77.8873013,100.368597 78.5728516,99.8079687 C79.2584019,99.2473409 80.1343697,98.9670312 81.2007813,98.9670312 C82.3220369,98.9670312 83.2315199,99.2564815 83.9292578,99.8353906 C84.6269957,100.4143 84.9758594,101.154683 84.9758594,102.056562 L83.2757031,102.056562 C83.2757031,101.593435 83.0791817,101.194299 82.6861328,100.859141 C82.293084,100.523983 81.7979717,100.356406 81.2007813,100.356406 C80.5853094,100.356406 80.103908,100.490467 79.7565625,100.758594 C79.409217,101.02672 79.2355469,101.377107 79.2355469,101.809766 C79.2355469,102.218049 79.3970296,102.52578 79.72,102.732969 C80.0429704,102.940157 80.6264411,103.138202 81.4704297,103.327109 C82.3144183,103.516017 82.9984349,103.741483 83.5225,104.003516 C84.0465651,104.265548 84.4350378,104.580897 84.6879297,104.94957 C84.9408216,105.318244 85.0672656,105.767654 85.0672656,106.297812 C85.0672656,107.181411 84.7138317,107.889802 84.0069531,108.423008 C83.3000746,108.956214 82.3829744,109.222812 81.255625,109.222812 C80.4634335,109.222812 79.7626593,109.082658 79.1532813,108.802344 C78.5439032,108.52203 78.067072,108.13051 77.7227734,107.627773 C77.3784748,107.125037 77.2063281,106.581175 77.2063281,105.996172 L78.8973438,105.996172 C78.9278127,106.562893 79.1548026,107.012303 79.5783203,107.344414 C80.0018381,107.676525 80.560934,107.842578 81.255625,107.842578 C81.8954719,107.842578 82.4088653,107.713087 82.7958203,107.454102 C83.1827754,107.195116 83.37625,106.849299 83.37625,106.416641 Z M89.5644531,96.755 L89.5644531,99.1498437 L91.4108594,99.1498437 L91.4108594,100.456953 L89.5644531,100.456953 L89.5644531,106.590312 C89.5644531,106.986408 89.6467179,107.283476 89.81125,107.481523 C89.9757821,107.679571 90.2560918,107.778594 90.6521875,107.778594 C90.8471885,107.778594 91.1153108,107.742032 91.4565625,107.668906 L91.4565625,109.04 C91.0117165,109.161876 90.5790646,109.222812 90.1585938,109.222812 C89.402965,109.222812 88.833205,108.994299 88.4492969,108.537266 C88.0653887,108.080232 87.8734375,107.431254 87.8734375,106.590312 L87.8734375,100.456953 L86.0727344,100.456953 L86.0727344,99.1498437 L87.8734375,99.1498437 L87.8734375,96.755 L89.5644531,96.755 Z M99.4911719,109.04 C99.3936714,108.844999 99.3144534,108.497659 99.2535156,107.997969 C98.4674179,108.814535 97.5289898,109.222812 96.4382031,109.222812 C95.4631983,109.222812 94.6634016,108.947073 94.0387891,108.395586 C93.4141766,107.844099 93.101875,107.144848 93.101875,106.297812 C93.101875,105.267964 93.4933945,104.468167 94.2764453,103.898398 C95.0594961,103.32863 96.1609304,103.04375 97.5807813,103.04375 L99.2260938,103.04375 L99.2260938,102.266797 C99.2260938,101.6757 99.0493768,101.204963 98.6959375,100.85457 C98.3424982,100.504178 97.8214878,100.328984 97.1328906,100.328984 C96.5296064,100.328984 96.0238302,100.481327 95.6155469,100.786016 C95.2072636,101.090705 95.003125,101.459373 95.003125,101.892031 L93.3029687,101.892031 C93.3029687,101.398435 93.4781623,100.921604 93.8285547,100.461523 C94.1789471,100.001443 94.6542548,99.6373451 95.2544922,99.3692187 C95.8547296,99.1010924 96.5143714,98.9670312 97.2334375,98.9670312 C98.3729744,98.9670312 99.2656999,99.2519112 99.9116406,99.8216797 C100.557581,100.391448 100.892734,101.176011 100.917109,102.175391 L100.917109,106.727422 C100.917109,107.635395 101.032889,108.357497 101.264453,108.89375 L101.264453,109.04 L99.4911719,109.04 Z M96.685,107.751172 C97.2151589,107.751172 97.7178882,107.614064 98.1932031,107.339844 C98.668518,107.065624 99.0128114,106.709143 99.2260938,106.270391 L99.2260938,104.241172 L97.9007031,104.241172 C95.8288178,104.241172 94.7928906,104.847494 94.7928906,106.060156 C94.7928906,106.590315 94.9696076,107.004686 95.3230469,107.303281 C95.6764861,107.601876 96.130466,107.751172 96.685,107.751172 Z M105.405156,109.04 L103.714141,109.04 L103.714141,95 L105.405156,95 L105.405156,109.04 Z M109.948047,109.04 L108.257031,109.04 L108.257031,95 L109.948047,95 L109.948047,109.04 Z M119.582266,96.755 L119.582266,99.1498437 L121.428672,99.1498437 L121.428672,100.456953 L119.582266,100.456953 L119.582266,106.590312 C119.582266,106.986408 119.66453,107.283476 119.829063,107.481523 C119.993595,107.679571 120.273904,107.778594 120.67,107.778594 C120.865001,107.778594 121.133123,107.742032 121.474375,107.668906 L121.474375,109.04 C121.029529,109.161876 120.596877,109.222812 120.176406,109.222812 C119.420777,109.222812 118.851018,108.994299 118.467109,108.537266 C118.083201,108.080232 117.89125,107.431254 117.89125,106.590312 L117.89125,100.456953 L116.090547,100.456953 L116.090547,99.1498437 L117.89125,99.1498437 L117.89125,96.755 L119.582266,96.755 Z M125.094063,100.347266 C125.843597,99.4271048 126.818588,98.9670312 128.019063,98.9670312 C130.109229,98.9670312 131.163437,100.14616 131.181719,102.504453 L131.181719,109.04 L129.490703,109.04 L129.490703,102.495312 C129.484609,101.78234 129.321603,101.255236 129.00168,100.913984 C128.681756,100.572733 128.183597,100.402109 127.507188,100.402109 C126.958747,100.402109 126.477346,100.548358 126.062969,100.840859 C125.648592,101.133361 125.325626,101.517263 125.094063,101.992578 L125.094063,109.04 L123.403047,109.04 L123.403047,95 L125.094063,95 L125.094063,100.347266 Z M137.817813,109.222812 C136.477181,109.222812 135.38641,108.782543 134.545469,107.901992 C133.704527,107.021441 133.284063,105.843835 133.284063,104.369141 L133.284063,104.058359 C133.284063,103.077261 133.471443,102.201293 133.846211,101.43043 C134.220978,100.659566 134.745036,100.056291 135.418398,99.6205859 C136.091761,99.1848806 136.82148,98.9670312 137.607578,98.9670312 C138.893366,98.9670312 139.892731,99.3905426 140.605703,100.237578 C141.318675,101.084614 141.675156,102.297258 141.675156,103.875547 L141.675156,104.579375 L134.975078,104.579375 C134.999453,105.55438 135.284333,106.341989 135.829727,106.942227 C136.37512,107.542464 137.068277,107.842578 137.909219,107.842578 C138.506409,107.842578 139.012185,107.720704 139.426563,107.476953 C139.84094,107.233202 140.203514,106.910236 140.514297,106.508047 L141.547188,107.312422 C140.718433,108.586022 139.475321,109.222812 137.817813,109.222812 Z M137.607578,100.356406 C136.925075,100.356406 136.352268,100.604724 135.889141,101.101367 C135.426013,101.59801 135.13961,102.294214 135.029922,103.19 L139.984141,103.19 L139.984141,103.062031 C139.93539,102.202808 139.70383,101.537073 139.289453,101.064805 C138.875076,100.592537 138.314457,100.356406 137.607578,100.356406 Z M147.817656,104.003516 C147.817656,103.034605 148.008084,102.163207 148.388945,101.389297 C148.769807,100.615387 149.299958,100.018205 149.979414,99.5977344 C150.658871,99.1772635 151.434293,98.9670312 152.305703,98.9670312 C153.652429,98.9670312 154.741676,99.4331985 155.573477,100.365547 C156.405278,101.297895 156.821172,102.537961 156.821172,104.085781 L156.821172,104.204609 C156.821172,105.167427 156.636838,106.031207 156.268164,106.795977 C155.89949,107.560746 155.372386,108.156404 154.686836,108.582969 C154.001286,109.009533 153.213676,109.222812 152.323984,109.222812 C150.983353,109.222812 149.897153,108.756645 149.065352,107.824297 C148.233551,106.891948 147.817656,105.657976 147.817656,104.122344 L147.817656,104.003516 Z M149.517813,104.204609 C149.517813,105.30149 149.772224,106.182028 150.281055,106.84625 C150.789885,107.510472 151.470855,107.842578 152.323984,107.842578 C153.183207,107.842578 153.865701,107.505902 154.371484,106.832539 C154.877268,106.159176 155.130156,105.216178 155.130156,104.003516 C155.130156,102.918823 154.872698,102.039808 154.357773,101.366445 C153.842849,100.693083 153.158832,100.356406 152.305703,100.356406 C151.470855,100.356406 150.797503,100.688512 150.285625,101.352734 C149.773747,102.016956 149.517813,102.967572 149.517813,104.204609 Z M160.541406,99.1498437 L160.59625,100.392969 C161.351879,99.442339 162.339056,98.9670312 163.557813,98.9670312 C165.647979,98.9670312 166.702187,100.14616 166.720469,102.504453 L166.720469,109.04 L165.029453,109.04 L165.029453,102.495312 C165.023359,101.78234 164.860353,101.255236 164.54043,100.913984 C164.220506,100.572733 163.722347,100.402109 163.045938,100.402109 C162.497497,100.402109 162.016096,100.548358 161.601719,100.840859 C161.187342,101.133361 160.864376,101.517263 160.632812,101.992578 L160.632812,109.04 L158.941797,109.04 L158.941797,99.1498437 L160.541406,99.1498437 Z M175.029297,106.416641 C175.029297,105.959607 174.85715,105.60465 174.512852,105.351758 C174.168553,105.098866 173.568325,104.881017 172.712148,104.698203 C171.855972,104.51539 171.176526,104.296017 170.673789,104.040078 C170.171052,103.784139 169.799337,103.479455 169.558633,103.126016 C169.317928,102.772576 169.197578,102.352112 169.197578,101.864609 C169.197578,101.054137 169.540348,100.368597 170.225898,99.8079687 C170.911449,99.2473409 171.787417,98.9670312 172.853828,98.9670312 C173.975084,98.9670312 174.884567,99.2564815 175.582305,99.8353906 C176.280043,100.4143 176.628906,101.154683 176.628906,102.056562 L174.92875,102.056562 C174.92875,101.593435 174.732229,101.194299 174.33918,100.859141 C173.946131,100.523983 173.451019,100.356406 172.853828,100.356406 C172.238356,100.356406 171.756955,100.490467 171.409609,100.758594 C171.062264,101.02672 170.888594,101.377107 170.888594,101.809766 C170.888594,102.218049 171.050077,102.52578 171.373047,102.732969 C171.696017,102.940157 172.279488,103.138202 173.123477,103.327109 C173.967465,103.516017 174.651482,103.741483 175.175547,104.003516 C175.699612,104.265548 176.088085,104.580897 176.340977,104.94957 C176.593868,105.318244 176.720313,105.767654 176.720313,106.297812 C176.720313,107.181411 176.366879,107.889802 175.66,108.423008 C174.953121,108.956214 174.036021,109.222812 172.908672,109.222812 C172.11648,109.222812 171.415706,109.082658 170.806328,108.802344 C170.19695,108.52203 169.720119,108.13051 169.37582,107.627773 C169.031522,107.125037 168.859375,106.581175 168.859375,105.996172 L170.550391,105.996172 C170.58086,106.562893 170.807849,107.012303 171.231367,107.344414 C171.654885,107.676525 172.213981,107.842578 172.908672,107.842578 C173.548519,107.842578 174.061912,107.713087 174.448867,107.454102 C174.835822,107.195116 175.029297,106.849299 175.029297,106.416641 Z M181.2175,96.755 L181.2175,99.1498437 L183.063906,99.1498437 L183.063906,100.456953 L181.2175,100.456953 L181.2175,106.590312 C181.2175,106.986408 181.299765,107.283476 181.464297,107.481523 C181.628829,107.679571 181.909139,107.778594 182.305234,107.778594 C182.500235,107.778594 182.768358,107.742032 183.109609,107.668906 L183.109609,109.04 C182.664763,109.161876 182.232111,109.222812 181.811641,109.222812 C181.056012,109.222812 180.486252,108.994299 180.102344,108.537266 C179.718436,108.080232 179.526484,107.431254 179.526484,106.590312 L179.526484,100.456953 L177.725781,100.456953 L177.725781,99.1498437 L179.526484,99.1498437 L179.526484,96.755 L181.2175,96.755 Z M191.144219,109.04 C191.046718,108.844999 190.9675,108.497659 190.906563,107.997969 C190.120465,108.814535 189.182037,109.222812 188.09125,109.222812 C187.116245,109.222812 186.316448,108.947073 185.691836,108.395586 C185.067223,107.844099 184.754922,107.144848 184.754922,106.297812 C184.754922,105.267964 185.146441,104.468167 185.929492,103.898398 C186.712543,103.32863 187.813977,103.04375 189.233828,103.04375 L190.879141,103.04375 L190.879141,102.266797 C190.879141,101.6757 190.702424,101.204963 190.348984,100.85457 C189.995545,100.504178 189.474535,100.328984 188.785938,100.328984 C188.182653,100.328984 187.676877,100.481327 187.268594,100.786016 C186.86031,101.090705 186.656172,101.459373 186.656172,101.892031 L184.956016,101.892031 C184.956016,101.398435 185.131209,100.921604 185.481602,100.461523 C185.831994,100.001443 186.307302,99.6373451 186.907539,99.3692187 C187.507776,99.1010924 188.167418,98.9670312 188.886484,98.9670312 C190.026021,98.9670312 190.918747,99.2519112 191.564688,99.8216797 C192.210628,100.391448 192.545781,101.176011 192.570156,102.175391 L192.570156,106.727422 C192.570156,107.635395 192.685936,108.357497 192.9175,108.89375 L192.9175,109.04 L191.144219,109.04 Z M188.338047,107.751172 C188.868206,107.751172 189.370935,107.614064 189.84625,107.339844 C190.321565,107.065624 190.665858,106.709143 190.879141,106.270391 L190.879141,104.241172 L189.55375,104.241172 C187.481865,104.241172 186.445938,104.847494 186.445938,106.060156 C186.445938,106.590315 186.622654,107.004686 186.976094,107.303281 C187.329533,107.601876 187.783513,107.751172 188.338047,107.751172 Z M194.81875,104.012656 C194.81875,102.47093 195.175231,101.244575 195.888203,100.333555 C196.601175,99.4225345 197.545697,98.9670312 198.721797,98.9670312 C199.928365,98.9670312 200.86984,99.3935895 201.54625,100.246719 L201.628516,99.1498437 L203.173281,99.1498437 L203.173281,108.802344 C203.173281,110.082038 202.793949,111.090543 202.035273,111.827891 C201.276598,112.565238 200.257428,112.933906 198.977734,112.933906 C198.264762,112.933906 197.567035,112.781564 196.884531,112.476875 C196.202028,112.172186 195.681017,111.754768 195.321484,111.224609 L196.198984,110.21 C196.924144,111.105786 197.810776,111.553672 198.858906,111.553672 C199.681567,111.553672 200.322927,111.322112 200.783008,110.858984 C201.243088,110.395857 201.473125,109.743832 201.473125,108.902891 L201.473125,108.052812 C200.796715,108.832816 199.873521,109.222812 198.703516,109.222812 C197.545697,109.222812 196.608793,108.756645 195.892773,107.824297 C195.176754,106.891948 194.81875,105.621414 194.81875,104.012656 Z M196.518906,104.204609 C196.518906,105.319771 196.74742,106.195739 197.204453,106.832539 C197.661487,107.469339 198.301324,107.787734 199.123984,107.787734 C200.190396,107.787734 200.973435,107.303286 201.473125,106.334375 L201.473125,101.818906 C200.955154,100.87437 200.178208,100.402109 199.142266,100.402109 C198.319605,100.402109 197.676721,100.722028 197.213594,101.361875 C196.750466,102.001722 196.518906,102.949291 196.518906,104.204609 Z M209.827656,109.222812 C208.487025,109.222812 207.396254,108.782543 206.555313,107.901992 C205.714371,107.021441 205.293906,105.843835 205.293906,104.369141 L205.293906,104.058359 C205.293906,103.077261 205.481287,102.201293 205.856055,101.43043 C206.230822,100.659566 206.754879,100.056291 207.428242,99.6205859 C208.101605,99.1848806 208.831324,98.9670312 209.617422,98.9670312 C210.90321,98.9670312 211.902575,99.3905426 212.615547,100.237578 C213.328519,101.084614 213.685,102.297258 213.685,103.875547 L213.685,104.579375 L206.984922,104.579375 C207.009297,105.55438 207.294177,106.341989 207.83957,106.942227 C208.384964,107.542464 209.078121,107.842578 209.919063,107.842578 C210.516253,107.842578 211.022029,107.720704 211.436406,107.476953 C211.850783,107.233202 212.213358,106.910236 212.524141,106.508047 L213.557031,107.312422 C212.728277,108.586022 211.485165,109.222812 209.827656,109.222812 Z M209.617422,100.356406 C208.934918,100.356406 208.362112,100.604724 207.898984,101.101367 C207.435857,101.59801 207.149454,102.294214 207.039766,103.19 L211.993984,103.19 L211.993984,103.062031 C211.945234,102.202808 211.713674,101.537073 211.299297,101.064805 C210.88492,100.592537 210.3243,100.356406 209.617422,100.356406 Z M66.3015625,132.222812 C64.9609308,132.222812 63.8701605,131.782543 63.0292187,130.901992 C62.188277,130.021441 61.7678125,128.843835 61.7678125,127.369141 L61.7678125,127.058359 C61.7678125,126.077261 61.9551934,125.201293 62.3299609,124.43043 C62.7047284,123.659566 63.2287857,123.056291 63.9021484,122.620586 C64.5755112,122.184881 65.3052304,121.967031 66.0913281,121.967031 C67.3771158,121.967031 68.3764808,122.390543 69.0894531,123.237578 C69.8024254,124.084614 70.1589063,125.297258 70.1589063,126.875547 L70.1589063,127.579375 L63.4588281,127.579375 C63.4832032,128.55438 63.7680832,129.341989 64.3134766,129.942227 C64.8588699,130.542464 65.552027,130.842578 66.3929688,130.842578 C66.9901592,130.842578 67.4959354,130.720704 67.9103125,130.476953 C68.3246896,130.233202 68.6872641,129.910236 68.9980469,129.508047 L70.0309375,130.312422 C69.2021834,131.586022 67.9590708,132.222812 66.3015625,132.222812 Z M66.0913281,123.356406 C65.4088247,123.356406 64.8360179,123.604724 64.3728906,124.101367 C63.9097633,124.59801 63.6233599,125.294214 63.5136719,126.19 L68.4678906,126.19 L68.4678906,126.062031 C68.4191404,125.202808 68.1875802,124.537073 67.7732031,124.064805 C67.3588261,123.592537 66.7982067,123.356406 66.0913281,123.356406 Z M75.4330469,125.760391 L77.6267969,122.149844 L79.6011719,122.149844 L76.3653906,127.040078 L79.7017187,132.04 L77.745625,132.04 L75.4604688,128.338047 L73.1753125,132.04 L71.2100781,132.04 L74.5464063,127.040078 L71.310625,122.149844 L73.2667187,122.149844 L75.4330469,125.760391 Z M83.6870313,119.755 L83.6870313,122.149844 L85.5334375,122.149844 L85.5334375,123.456953 L83.6870313,123.456953 L83.6870313,129.590312 C83.6870313,129.986408 83.7692961,130.283476 83.9338281,130.481523 C84.0983602,130.679571 84.3786699,130.778594 84.7747656,130.778594 C84.9697666,130.778594 85.2378889,130.742032 85.5791406,130.668906 L85.5791406,132.04 C85.1342947,132.161876 84.7016427,132.222812 84.2811719,132.222812 C83.5255431,132.222812 82.9557832,131.994299 82.571875,131.537266 C82.1879668,131.080232 81.9960156,130.431254 81.9960156,129.590312 L81.9960156,123.456953 L80.1953125,123.456953 L80.1953125,122.149844 L81.9960156,122.149844 L81.9960156,119.755 L83.6870313,119.755 Z M91.6119531,132.222812 C90.2713214,132.222812 89.1805511,131.782543 88.3396094,130.901992 C87.4986677,130.021441 87.0782031,128.843835 87.0782031,127.369141 L87.0782031,127.058359 C87.0782031,126.077261 87.2655841,125.201293 87.6403516,124.43043 C88.0151191,123.659566 88.5391763,123.056291 89.2125391,122.620586 C89.8859018,122.184881 90.6156211,121.967031 91.4017187,121.967031 C92.6875064,121.967031 93.6868714,122.390543 94.3998438,123.237578 C95.1128161,124.084614 95.4692969,125.297258 95.4692969,126.875547 L95.4692969,127.579375 L88.7692187,127.579375 C88.7935939,128.55438 89.0784738,129.341989 89.6238672,129.942227 C90.1692605,130.542464 90.8624177,130.842578 91.7033594,130.842578 C92.3005499,130.842578 92.8063261,130.720704 93.2207031,130.476953 C93.6350802,130.233202 93.9976547,129.910236 94.3084375,129.508047 L95.3413281,130.312422 C94.512574,131.586022 93.2694614,132.222812 91.6119531,132.222812 Z M91.4017187,123.356406 C90.7192153,123.356406 90.1464086,123.604724 89.6832812,124.101367 C89.2201539,124.59801 88.9337505,125.294214 88.8240625,126.19 L93.7782813,126.19 L93.7782813,126.062031 C93.729531,125.202808 93.4979708,124.537073 93.0835938,124.064805 C92.6692167,123.592537 92.1085973,123.356406 91.4017187,123.356406 Z M99.025,122.149844 L99.0798438,123.392969 C99.8354725,122.442339 100.82265,121.967031 102.041406,121.967031 C104.131573,121.967031 105.185781,123.14616 105.204063,125.504453 L105.204063,132.04 L103.513047,132.04 L103.513047,125.495312 C103.506953,124.78234 103.343947,124.255236 103.024023,123.913984 C102.7041,123.572733 102.205941,123.402109 101.529531,123.402109 C100.981091,123.402109 100.49969,123.548358 100.085312,123.840859 C99.6709354,124.133361 99.3479699,124.517263 99.1164063,124.992578 L99.1164063,132.04 L97.4253906,132.04 L97.4253906,122.149844 L99.025,122.149844 Z M113.512891,129.416641 C113.512891,128.959607 113.340744,128.60465 112.996445,128.351758 C112.652147,128.098866 112.051918,127.881017 111.195742,127.698203 C110.339566,127.51539 109.66012,127.296017 109.157383,127.040078 C108.654646,126.784139 108.282931,126.479455 108.042227,126.126016 C107.801522,125.772576 107.681172,125.352112 107.681172,124.864609 C107.681172,124.054137 108.023942,123.368597 108.709492,122.807969 C109.395042,122.247341 110.27101,121.967031 111.337422,121.967031 C112.458677,121.967031 113.368161,122.256481 114.065898,122.835391 C114.763636,123.4143 115.1125,124.154683 115.1125,125.056562 L113.412344,125.056562 C113.412344,124.593435 113.215822,124.194299 112.822773,123.859141 C112.429725,123.523983 111.934612,123.356406 111.337422,123.356406 C110.72195,123.356406 110.240549,123.490467 109.893203,123.758594 C109.545858,124.02672 109.372187,124.377107 109.372187,124.809766 C109.372187,125.218049 109.53367,125.52578 109.856641,125.732969 C110.179611,125.940157 110.763082,126.138202 111.60707,126.327109 C112.451059,126.516017 113.135076,126.741483 113.659141,127.003516 C114.183206,127.265548 114.571678,127.580897 114.82457,127.94957 C115.077462,128.318244 115.203906,128.767654 115.203906,129.297812 C115.203906,130.181411 114.850472,130.889802 114.143594,131.423008 C113.436715,131.956214 112.519615,132.222812 111.392266,132.222812 C110.600074,132.222812 109.8993,132.082658 109.289922,131.802344 C108.680544,131.52203 108.203713,131.13051 107.859414,130.627773 C107.515115,130.125037 107.342969,129.581175 107.342969,128.996172 L109.033984,128.996172 C109.064453,129.562893 109.291443,130.012303 109.714961,130.344414 C110.138479,130.676525 110.697575,130.842578 111.392266,130.842578 C112.032113,130.842578 112.545506,130.713087 112.932461,130.454102 C113.319416,130.195116 113.512891,129.849299 113.512891,129.416641 Z M119.244063,132.04 L117.553047,132.04 L117.553047,122.149844 L119.244063,122.149844 L119.244063,132.04 Z M117.415938,119.526484 C117.415938,119.252264 117.499726,119.020704 117.667305,118.831797 C117.834884,118.64289 118.083201,118.548437 118.412266,118.548437 C118.74133,118.548437 118.991171,118.64289 119.161797,118.831797 C119.332423,119.020704 119.417734,119.252264 119.417734,119.526484 C119.417734,119.800704 119.332423,120.029218 119.161797,120.212031 C118.991171,120.394845 118.74133,120.48625 118.412266,120.48625 C118.083201,120.48625 117.834884,120.394845 117.667305,120.212031 C117.499726,120.029218 117.415938,119.800704 117.415938,119.526484 Z M121.501797,127.003516 C121.501797,126.034605 121.692225,125.163207 122.073086,124.389297 C122.453947,123.615387 122.984098,123.018205 123.663555,122.597734 C124.343011,122.177264 125.118433,121.967031 125.989844,121.967031 C127.336569,121.967031 128.425816,122.433198 129.257617,123.365547 C130.089418,124.297895 130.505313,125.537961 130.505313,127.085781 L130.505313,127.204609 C130.505313,128.167427 130.320978,129.031207 129.952305,129.795977 C129.583631,130.560746 129.056527,131.156404 128.370977,131.582969 C127.685426,132.009533 126.897817,132.222812 126.008125,132.222812 C124.667493,132.222812 123.581293,131.756645 122.749492,130.824297 C121.917691,129.891948 121.501797,128.657976 121.501797,127.122344 L121.501797,127.003516 Z M123.201953,127.204609 C123.201953,128.30149 123.456365,129.182028 123.965195,129.84625 C124.474026,130.510472 125.154996,130.842578 126.008125,130.842578 C126.867348,130.842578 127.549841,130.505902 128.055625,129.832539 C128.561409,129.159176 128.814297,128.216178 128.814297,127.003516 C128.814297,125.918823 128.556839,125.039808 128.041914,124.366445 C127.52699,123.693083 126.842973,123.356406 125.989844,123.356406 C125.154996,123.356406 124.481643,123.688512 123.969766,124.352734 C123.457888,125.016956 123.201953,125.967572 123.201953,127.204609 Z M134.225547,122.149844 L134.280391,123.392969 C135.036019,122.442339 136.023197,121.967031 137.241953,121.967031 C139.33212,121.967031 140.386328,123.14616 140.404609,125.504453 L140.404609,132.04 L138.713594,132.04 L138.713594,125.495312 C138.7075,124.78234 138.544494,124.255236 138.22457,123.913984 C137.904647,123.572733 137.406488,123.402109 136.730078,123.402109 C136.181638,123.402109 135.700236,123.548358 135.285859,123.840859 C134.871482,124.133361 134.548517,124.517263 134.316953,124.992578 L134.316953,132.04 L132.625938,132.04 L132.625938,122.149844 L134.225547,122.149844 Z M149.426406,132.04 L147.735391,132.04 L147.735391,122.149844 L149.426406,122.149844 L149.426406,132.04 Z M147.598281,119.526484 C147.598281,119.252264 147.682069,119.020704 147.849648,118.831797 C148.017227,118.64289 148.265545,118.548437 148.594609,118.548437 C148.923674,118.548437 149.173515,118.64289 149.344141,118.831797 C149.514766,119.020704 149.600078,119.252264 149.600078,119.526484 C149.600078,119.800704 149.514766,120.029218 149.344141,120.212031 C149.173515,120.394845 148.923674,120.48625 148.594609,120.48625 C148.265545,120.48625 148.017227,120.394845 147.849648,120.212031 C147.682069,120.029218 147.598281,119.800704 147.598281,119.526484 Z M153.731641,122.149844 L153.786484,123.392969 C154.542113,122.442339 155.529291,121.967031 156.748047,121.967031 C158.838214,121.967031 159.892422,123.14616 159.910703,125.504453 L159.910703,132.04 L158.219688,132.04 L158.219688,125.495312 C158.213594,124.78234 158.050588,124.255236 157.730664,123.913984 C157.410741,123.572733 156.912582,123.402109 156.236172,123.402109 C155.687732,123.402109 155.20633,123.548358 154.791953,123.840859 C154.377576,124.133361 154.054611,124.517263 153.823047,124.992578 L153.823047,132.04 L152.132031,132.04 L152.132031,122.149844 L153.731641,122.149844 Z M170.331016,129.562891 L172.634453,122.149844 L174.444297,122.149844 L170.468125,133.566484 C169.852653,135.211805 168.874616,136.034453 167.533984,136.034453 L167.214063,136.007031 L166.583359,135.888203 L166.583359,134.517109 L167.040391,134.553672 C167.613206,134.553672 168.059569,134.437892 168.379492,134.206328 C168.699416,133.974764 168.962968,133.551253 169.170156,132.935781 L169.544922,131.930313 L166.016641,122.149844 L167.863047,122.149844 L170.331016,129.562891 Z M175.3675,127.003516 C175.3675,126.034605 175.557928,125.163207 175.938789,124.389297 C176.31965,123.615387 176.849801,123.018205 177.529258,122.597734 C178.208714,122.177264 178.984136,121.967031 179.855547,121.967031 C181.202272,121.967031 182.291519,122.433198 183.12332,123.365547 C183.955121,124.297895 184.371016,125.537961 184.371016,127.085781 L184.371016,127.204609 C184.371016,128.167427 184.186682,129.031207 183.818008,129.795977 C183.449334,130.560746 182.92223,131.156404 182.23668,131.582969 C181.551129,132.009533 180.76352,132.222812 179.873828,132.222812 C178.533196,132.222812 177.446996,131.756645 176.615195,130.824297 C175.783394,129.891948 175.3675,128.657976 175.3675,127.122344 L175.3675,127.003516 Z M177.067656,127.204609 C177.067656,128.30149 177.322068,129.182028 177.830898,129.84625 C178.339729,130.510472 179.020699,130.842578 179.873828,130.842578 C180.733051,130.842578 181.415544,130.505902 181.921328,129.832539 C182.427112,129.159176 182.68,128.216178 182.68,127.003516 C182.68,125.918823 182.422542,125.039808 181.907617,124.366445 C181.392693,123.693083 180.708676,123.356406 179.855547,123.356406 C179.020699,123.356406 178.347346,123.688512 177.835469,124.352734 C177.323591,125.016956 177.067656,125.967572 177.067656,127.204609 Z M192.597578,131.061953 C191.93945,131.835863 190.9736,132.222812 189.7,132.222812 C188.645776,132.222812 187.842932,131.916605 187.291445,131.30418 C186.739958,130.691755 186.461172,129.785319 186.455078,128.584844 L186.455078,122.149844 L188.146094,122.149844 L188.146094,128.539141 C188.146094,130.038211 188.755463,130.787734 189.974219,130.787734 C191.2661,130.787734 192.12531,130.306333 192.551875,129.343516 L192.551875,122.149844 L194.242891,122.149844 L194.242891,132.04 L192.634141,132.04 L192.597578,131.061953 Z M201.591953,123.667187 C201.336014,123.624531 201.058751,123.603203 200.760156,123.603203 C199.651088,123.603203 198.898518,124.075464 198.502422,125.02 L198.502422,132.04 L196.811406,132.04 L196.811406,122.149844 L198.456719,122.149844 L198.484141,123.292422 C199.038675,122.408824 199.824761,121.967031 200.842422,121.967031 C201.171486,121.967031 201.421327,122.009687 201.591953,122.095 L201.591953,123.667187 Z M216.152969,127.204609 C216.152969,128.715867 215.805628,129.930034 215.110937,130.847148 C214.416247,131.764262 213.483912,132.222812 212.313906,132.222812 C211.064681,132.222812 210.098832,131.78102 209.416328,130.897422 L209.334063,132.04 L207.780156,132.04 L207.780156,118 L209.471172,118 L209.471172,123.237578 C210.153675,122.390543 211.09515,121.967031 212.295625,121.967031 C213.4961,121.967031 214.439098,122.421011 215.124648,123.328984 C215.810199,124.236958 216.152969,125.48007 216.152969,127.058359 L216.152969,127.204609 Z M214.461953,127.012656 C214.461953,125.860932 214.239533,124.971253 213.794688,124.343594 C213.349842,123.715934 212.710004,123.402109 211.875156,123.402109 C210.759994,123.402109 209.958674,123.920073 209.471172,124.956016 L209.471172,129.233828 C209.989143,130.269771 210.796557,130.787734 211.893438,130.787734 C212.70391,130.787734 213.334607,130.473909 213.785547,129.84625 C214.236487,129.218591 214.461953,128.274069 214.461953,127.012656 Z M223.063281,123.667187 C222.807342,123.624531 222.53008,123.603203 222.231484,123.603203 C221.122416,123.603203 220.369846,124.075464 219.97375,125.02 L219.97375,132.04 L218.282734,132.04 L218.282734,122.149844 L219.928047,122.149844 L219.955469,123.292422 C220.510003,122.408824 221.296089,121.967031 222.31375,121.967031 C222.642814,121.967031 222.892655,122.009687 223.063281,122.095 L223.063281,123.667187 Z M223.986484,127.003516 C223.986484,126.034605 224.176912,125.163207 224.557773,124.389297 C224.938635,123.615387 225.468786,123.018205 226.148242,122.597734 C226.827699,122.177264 227.603121,121.967031 228.474531,121.967031 C229.821257,121.967031 230.910504,122.433198 231.742305,123.365547 C232.574106,124.297895 232.99,125.537961 232.99,127.085781 L232.99,127.204609 C232.99,128.167427 232.805666,129.031207 232.436992,129.795977 C232.068318,130.560746 231.541214,131.156404 230.855664,131.582969 C230.170114,132.009533 229.382504,132.222812 228.492813,132.222812 C227.152181,132.222812 226.065981,131.756645 225.23418,130.824297 C224.402379,129.891948 223.986484,128.657976 223.986484,127.122344 L223.986484,127.003516 Z M225.686641,127.204609 C225.686641,128.30149 225.941052,129.182028 226.449883,129.84625 C226.958713,130.510472 227.639683,130.842578 228.492813,130.842578 C229.352036,130.842578 230.034529,130.505902 230.540313,129.832539 C231.046096,129.159176 231.298984,128.216178 231.298984,127.003516 C231.298984,125.918823 231.041526,125.039808 230.526602,124.366445 C230.011677,123.693083 229.327661,123.356406 228.474531,123.356406 C227.639683,123.356406 226.966331,123.688512 226.454453,124.352734 C225.942576,125.016956 225.686641,125.967572 225.686641,127.204609 Z M243.867344,129.709141 L245.768594,122.149844 L247.459609,122.149844 L244.580313,132.04 L243.209219,132.04 L240.805234,124.544688 L238.465234,132.04 L237.094141,132.04 L234.223984,122.149844 L235.905859,122.149844 L237.852813,129.55375 L240.15625,122.149844 L241.518203,122.149844 L243.867344,129.709141 Z M254.936641,129.416641 C254.936641,128.959607 254.764494,128.60465 254.420195,128.351758 C254.075897,128.098866 253.475668,127.881017 252.619492,127.698203 C251.763316,127.51539 251.08387,127.296017 250.581133,127.040078 C250.078396,126.784139 249.706681,126.479455 249.465977,126.126016 C249.225272,125.772576 249.104922,125.352112 249.104922,124.864609 C249.104922,124.054137 249.447692,123.368597 250.133242,122.807969 C250.818792,122.247341 251.69476,121.967031 252.761172,121.967031 C253.882427,121.967031 254.791911,122.256481 255.489648,122.835391 C256.187386,123.4143 256.53625,124.154683 256.53625,125.056562 L254.836094,125.056562 C254.836094,124.593435 254.639572,124.194299 254.246523,123.859141 C253.853475,123.523983 253.358362,123.356406 252.761172,123.356406 C252.1457,123.356406 251.664299,123.490467 251.316953,123.758594 C250.969608,124.02672 250.795938,124.377107 250.795938,124.809766 C250.795938,125.218049 250.95742,125.52578 251.280391,125.732969 C251.603361,125.940157 252.186832,126.138202 253.03082,126.327109 C253.874809,126.516017 254.558826,126.741483 255.082891,127.003516 C255.606956,127.265548 255.995428,127.580897 256.24832,127.94957 C256.501212,128.318244 256.627656,128.767654 256.627656,129.297812 C256.627656,130.181411 256.274222,130.889802 255.567344,131.423008 C254.860465,131.956214 253.943365,132.222812 252.816016,132.222812 C252.023824,132.222812 251.32305,132.082658 250.713672,131.802344 C250.104294,131.52203 249.627463,131.13051 249.283164,130.627773 C248.938865,130.125037 248.766719,129.581175 248.766719,128.996172 L250.457734,128.996172 C250.488203,129.562893 250.715193,130.012303 251.138711,130.344414 C251.562229,130.676525 252.121325,130.842578 252.816016,130.842578 C253.455863,130.842578 253.969256,130.713087 254.356211,130.454102 C254.743166,130.195116 254.936641,129.849299 254.936641,129.416641 Z M262.934688,132.222812 C261.594056,132.222812 260.503285,131.782543 259.662344,130.901992 C258.821402,130.021441 258.400938,128.843835 258.400938,127.369141 L258.400938,127.058359 C258.400938,126.077261 258.588318,125.201293 258.963086,124.43043 C259.337853,123.659566 259.861911,123.056291 260.535273,122.620586 C261.208636,122.184881 261.938355,121.967031 262.724453,121.967031 C264.010241,121.967031 265.009606,122.390543 265.722578,123.237578 C266.43555,124.084614 266.792031,125.297258 266.792031,126.875547 L266.792031,127.579375 L260.091953,127.579375 C260.116328,128.55438 260.401208,129.341989 260.946602,129.942227 C261.491995,130.542464 262.185152,130.842578 263.026094,130.842578 C263.623284,130.842578 264.12906,130.720704 264.543437,130.476953 C264.957815,130.233202 265.320389,129.910236 265.631172,129.508047 L266.664062,130.312422 C265.835308,131.586022 264.592196,132.222812 262.934688,132.222812 Z M262.724453,123.356406 C262.04195,123.356406 261.469143,123.604724 261.006016,124.101367 C260.542888,124.59801 260.256485,125.294214 260.146797,126.19 L265.101016,126.19 L265.101016,126.062031 C265.052265,125.202808 264.820705,124.537073 264.406328,124.064805 C263.991951,123.592537 263.431332,123.356406 262.724453,123.356406 Z M273.528672,123.667187 C273.272733,123.624531 272.99547,123.603203 272.696875,123.603203 C271.587807,123.603203 270.835236,124.075464 270.439141,125.02 L270.439141,132.04 L268.748125,132.04 L268.748125,122.149844 L270.393438,122.149844 L270.420859,123.292422 C270.975393,122.408824 271.761479,121.967031 272.779141,121.967031 C273.108205,121.967031 273.358046,122.009687 273.528672,122.095 L273.528672,123.667187 Z M68.3033594,155.04 C68.2058589,154.844999 68.1266409,154.497659 68.0657031,153.997969 C67.2796054,154.814535 66.3411773,155.222812 65.2503906,155.222812 C64.2753857,155.222812 63.4755891,154.947073 62.8509766,154.395586 C62.2263641,153.844099 61.9140625,153.144848 61.9140625,152.297812 C61.9140625,151.267964 62.305582,150.468167 63.0886328,149.898398 C63.8716836,149.32863 64.9731179,149.04375 66.3929688,149.04375 L68.0382813,149.04375 L68.0382813,148.266797 C68.0382813,147.6757 67.8615643,147.204963 67.508125,146.85457 C67.1546857,146.504178 66.6336753,146.328984 65.9450781,146.328984 C65.3417939,146.328984 64.8360177,146.481327 64.4277344,146.786016 C64.0194511,147.090705 63.8153125,147.459373 63.8153125,147.892031 L62.1151562,147.892031 C62.1151562,147.398435 62.2903498,146.921604 62.6407422,146.461523 C62.9911346,146.001443 63.4664423,145.637345 64.0666797,145.369219 C64.6669171,145.101092 65.3265589,144.967031 66.045625,144.967031 C67.1851619,144.967031 68.0778874,145.251911 68.7238281,145.82168 C69.3697689,146.391448 69.7049218,147.176011 69.7292969,148.175391 L69.7292969,152.727422 C69.7292969,153.635395 69.845077,154.357497 70.0766406,154.89375 L70.0766406,155.04 L68.3033594,155.04 Z M65.4971875,153.751172 C66.0273464,153.751172 66.5300757,153.614064 67.0053906,153.339844 C67.4807055,153.065624 67.8249989,152.709143 68.0382813,152.270391 L68.0382813,150.241172 L66.7128906,150.241172 C64.6410053,150.241172 63.6050781,150.847494 63.6050781,152.060156 C63.6050781,152.590315 63.7817951,153.004686 64.1352344,153.303281 C64.4886736,153.601876 64.9426535,153.751172 65.4971875,153.751172 Z M73.9796875,145.149844 L74.0345312,146.392969 C74.79016,145.442339 75.7773377,144.967031 76.9960938,144.967031 C79.0862605,144.967031 80.1404687,146.14616 80.15875,148.504453 L80.15875,155.04 L78.4677344,155.04 L78.4677344,148.495312 C78.4616406,147.78234 78.2986344,147.255236 77.9787109,146.913984 C77.6587875,146.572733 77.1606284,146.402109 76.4842188,146.402109 C75.9357785,146.402109 75.4543771,146.548358 75.04,146.840859 C74.6256229,147.133361 74.3026574,147.517263 74.0710937,147.992578 L74.0710937,155.04 L72.3800781,155.04 L72.3800781,145.149844 L73.9796875,145.149844 Z M82.2976562,150.012656 C82.2976562,148.495305 82.6571839,147.275044 83.37625,146.351836 C84.0953161,145.428628 85.0367911,144.967031 86.2007031,144.967031 C87.3585214,144.967031 88.2756216,145.363121 88.9520313,146.155312 L88.9520313,141 L90.6430469,141 L90.6430469,155.04 L89.0891406,155.04 L89.006875,153.979687 C88.3304654,154.808442 87.3889904,155.222812 86.1824219,155.222812 C85.0367911,155.222812 84.1029333,154.753598 83.3808203,153.815156 C82.6587073,152.876714 82.2976562,151.651883 82.2976562,150.140625 L82.2976562,150.012656 Z M83.9886719,150.204609 C83.9886719,151.325865 84.2202321,152.203356 84.6833594,152.837109 C85.1464867,153.470863 85.786324,153.787734 86.6028906,153.787734 C87.675396,153.787734 88.458435,153.306333 88.9520313,152.343516 L88.9520313,147.800625 C88.4462475,146.868277 87.6693021,146.402109 86.6211719,146.402109 C85.7924177,146.402109 85.1464867,146.722028 84.6833594,147.361875 C84.2202321,148.001722 83.9886719,148.949291 83.9886719,150.204609 Z M104.006641,155.04 C103.90914,154.844999 103.829922,154.497659 103.768984,153.997969 C102.982887,154.814535 102.044459,155.222812 100.953672,155.222812 C99.978667,155.222812 99.1788703,154.947073 98.5542578,154.395586 C97.9296453,153.844099 97.6173438,153.144848 97.6173438,152.297812 C97.6173438,151.267964 98.0088633,150.468167 98.7919141,149.898398 C99.5749649,149.32863 100.676399,149.04375 102.09625,149.04375 L103.741562,149.04375 L103.741562,148.266797 C103.741562,147.6757 103.564846,147.204963 103.211406,146.85457 C102.857967,146.504178 102.336957,146.328984 101.648359,146.328984 C101.045075,146.328984 100.539299,146.481327 100.131016,146.786016 C99.7227323,147.090705 99.5185938,147.459373 99.5185938,147.892031 L97.8184375,147.892031 C97.8184375,147.398435 97.9936311,146.921604 98.3440234,146.461523 C98.6944158,146.001443 99.1697236,145.637345 99.7699609,145.369219 C100.370198,145.101092 101.02984,144.967031 101.748906,144.967031 C102.888443,144.967031 103.781169,145.251911 104.427109,145.82168 C105.07305,146.391448 105.408203,147.176011 105.432578,148.175391 L105.432578,152.727422 C105.432578,153.635395 105.548358,154.357497 105.779922,154.89375 L105.779922,155.04 L104.006641,155.04 Z M101.200469,153.751172 C101.730628,153.751172 102.233357,153.614064 102.708672,153.339844 C103.183987,153.065624 103.52828,152.709143 103.741562,152.270391 L103.741562,150.241172 L102.416172,150.241172 C100.344287,150.241172 99.3083594,150.847494 99.3083594,152.060156 C99.3083594,152.590315 99.4850764,153.004686 99.8385156,153.303281 C100.191955,153.601876 100.645935,153.751172 101.200469,153.751172 Z M107.672031,150.012656 C107.672031,148.495305 108.031559,147.275044 108.750625,146.351836 C109.469691,145.428628 110.411166,144.967031 111.575078,144.967031 C112.732896,144.967031 113.649997,145.363121 114.326406,146.155312 L114.326406,141 L116.017422,141 L116.017422,155.04 L114.463516,155.04 L114.38125,153.979687 C113.70484,154.808442 112.763365,155.222812 111.556797,155.222812 C110.411166,155.222812 109.477308,154.753598 108.755195,153.815156 C108.033082,152.876714 107.672031,151.651883 107.672031,150.140625 L107.672031,150.012656 Z M109.363047,150.204609 C109.363047,151.325865 109.594607,152.203356 110.057734,152.837109 C110.520862,153.470863 111.160699,153.787734 111.977266,153.787734 C113.049771,153.787734 113.83281,153.306333 114.326406,152.343516 L114.326406,147.800625 C113.820622,146.868277 113.043677,146.402109 111.995547,146.402109 C111.166793,146.402109 110.520862,146.722028 110.057734,147.361875 C109.594607,148.001722 109.363047,148.949291 109.363047,150.204609 Z M118.229453,150.012656 C118.229453,148.495305 118.588981,147.275044 119.308047,146.351836 C120.027113,145.428628 120.968588,144.967031 122.1325,144.967031 C123.290318,144.967031 124.207418,145.363121 124.883828,146.155312 L124.883828,141 L126.574844,141 L126.574844,155.04 L125.020938,155.04 L124.938672,153.979687 C124.262262,154.808442 123.320787,155.222812 122.114219,155.222812 C120.968588,155.222812 120.03473,154.753598 119.312617,153.815156 C118.590504,152.876714 118.229453,151.651883 118.229453,150.140625 L118.229453,150.012656 Z M119.920469,150.204609 C119.920469,151.325865 120.152029,152.203356 120.615156,152.837109 C121.078284,153.470863 121.718121,153.787734 122.534688,153.787734 C123.607193,153.787734 124.390232,153.306333 124.883828,152.343516 L124.883828,147.800625 C124.378044,146.868277 123.601099,146.402109 122.552969,146.402109 C121.724215,146.402109 121.078284,146.722028 120.615156,147.361875 C120.152029,148.001722 119.920469,148.949291 119.920469,150.204609 Z M136.126797,142.755 L136.126797,145.149844 L137.973203,145.149844 L137.973203,146.456953 L136.126797,146.456953 L136.126797,152.590312 C136.126797,152.986408 136.209062,153.283476 136.373594,153.481523 C136.538126,153.679571 136.818436,153.778594 137.214531,153.778594 C137.409532,153.778594 137.677655,153.742032 138.018906,153.668906 L138.018906,155.04 C137.57406,155.161876 137.141408,155.222812 136.720937,155.222812 C135.965309,155.222812 135.395549,154.994299 135.011641,154.537266 C134.627732,154.080232 134.435781,153.431254 134.435781,152.590312 L134.435781,146.456953 L132.635078,146.456953 L132.635078,145.149844 L134.435781,145.149844 L134.435781,142.755 L136.126797,142.755 Z M141.638594,146.347266 C142.388129,145.427105 143.363119,144.967031 144.563594,144.967031 C146.65376,144.967031 147.707969,146.14616 147.72625,148.504453 L147.72625,155.04 L146.035234,155.04 L146.035234,148.495312 C146.029141,147.78234 145.866134,147.255236 145.546211,146.913984 C145.226287,146.572733 144.728128,146.402109 144.051719,146.402109 C143.503279,146.402109 143.021877,146.548358 142.6075,146.840859 C142.193123,147.133361 141.870157,147.517263 141.638594,147.992578 L141.638594,155.04 L139.947578,155.04 L139.947578,141 L141.638594,141 L141.638594,146.347266 Z M154.362344,155.222812 C153.021712,155.222812 151.930942,154.782543 151.09,153.901992 C150.249058,153.021441 149.828594,151.843835 149.828594,150.369141 L149.828594,150.058359 C149.828594,149.077261 150.015975,148.201293 150.390742,147.43043 C150.76551,146.659566 151.289567,146.056291 151.96293,145.620586 C152.636292,145.184881 153.366012,144.967031 154.152109,144.967031 C155.437897,144.967031 156.437262,145.390543 157.150234,146.237578 C157.863207,147.084614 158.219688,148.297258 158.219688,149.875547 L158.219688,150.579375 L151.519609,150.579375 C151.543984,151.55438 151.828864,152.341989 152.374258,152.942227 C152.919651,153.542464 153.612808,153.842578 154.45375,153.842578 C155.05094,153.842578 155.556717,153.720704 155.971094,153.476953 C156.385471,153.233202 156.748045,152.910236 157.058828,152.508047 L158.091719,153.312422 C157.262965,154.586022 156.019852,155.222812 154.362344,155.222812 Z M154.152109,146.356406 C153.469606,146.356406 152.896799,146.604724 152.433672,147.101367 C151.970545,147.59801 151.684141,148.294214 151.574453,149.19 L156.528672,149.19 L156.528672,149.062031 C156.479922,148.202808 156.248361,147.537073 155.833984,147.064805 C155.419607,146.592537 154.858988,146.356406 154.152109,146.356406 Z M167.104375,142.755 L167.104375,145.149844 L168.950781,145.149844 L168.950781,146.456953 L167.104375,146.456953 L167.104375,152.590312 C167.104375,152.986408 167.18664,153.283476 167.351172,153.481523 C167.515704,153.679571 167.796014,153.778594 168.192109,153.778594 C168.38711,153.778594 168.655233,153.742032 168.996484,153.668906 L168.996484,155.04 C168.551638,155.161876 168.118986,155.222812 167.698516,155.222812 C166.942887,155.222812 166.373127,154.994299 165.989219,154.537266 C165.605311,154.080232 165.413359,153.431254 165.413359,152.590312 L165.413359,146.456953 L163.612656,146.456953 L163.612656,145.149844 L165.413359,145.149844 L165.413359,142.755 L167.104375,142.755 Z M174.160938,152.562891 L176.464375,145.149844 L178.274219,145.149844 L174.298047,156.566484 C173.682575,158.211805 172.704538,159.034453 171.363906,159.034453 L171.043984,159.007031 L170.413281,158.888203 L170.413281,157.517109 L170.870313,157.553672 C171.443128,157.553672 171.889491,157.437892 172.209414,157.206328 C172.529338,156.974764 172.79289,156.551253 173.000078,155.935781 L173.374844,154.930313 L169.846563,145.149844 L171.692969,145.149844 L174.160938,152.562891 Z M188.136953,150.204609 C188.136953,151.709773 187.79266,152.922417 187.104063,153.842578 C186.415465,154.762739 185.483131,155.222812 184.307031,155.222812 C183.106556,155.222812 182.162035,154.841957 181.473438,154.080234 L181.473438,158.8425 L179.782422,158.8425 L179.782422,145.149844 L181.327188,145.149844 L181.409453,146.246719 C182.09805,145.393589 183.05476,144.967031 184.279609,144.967031 C185.467897,144.967031 186.407848,145.414917 187.099492,146.310703 C187.791136,147.206489 188.136953,148.452648 188.136953,150.049219 L188.136953,150.204609 Z M186.445938,150.012656 C186.445938,148.897494 186.208284,148.016956 185.732969,147.371016 C185.257654,146.725075 184.605629,146.402109 183.776875,146.402109 C182.75312,146.402109 181.985315,146.856089 181.473438,147.764062 L181.473438,152.489766 C181.979221,153.391645 182.75312,153.842578 183.795156,153.842578 C184.605629,153.842578 185.250037,153.521136 185.728398,152.878242 C186.20676,152.235348 186.445938,151.280163 186.445938,150.012656 Z M194.389141,155.222812 C193.048509,155.222812 191.957739,154.782543 191.116797,153.901992 C190.275855,153.021441 189.855391,151.843835 189.855391,150.369141 L189.855391,150.058359 C189.855391,149.077261 190.042772,148.201293 190.417539,147.43043 C190.792307,146.659566 191.316364,146.056291 191.989727,145.620586 C192.663089,145.184881 193.392809,144.967031 194.178906,144.967031 C195.464694,144.967031 196.464059,145.390543 197.177031,146.237578 C197.890004,147.084614 198.246484,148.297258 198.246484,149.875547 L198.246484,150.579375 L191.546406,150.579375 C191.570781,151.55438 191.855661,152.341989 192.401055,152.942227 C192.946448,153.542464 193.639605,153.842578 194.480547,153.842578 C195.077737,153.842578 195.583514,153.720704 195.997891,153.476953 C196.412268,153.233202 196.774842,152.910236 197.085625,152.508047 L198.118516,153.312422 C197.289761,154.586022 196.046649,155.222812 194.389141,155.222812 Z M194.178906,146.356406 C193.496403,146.356406 192.923596,146.604724 192.460469,147.101367 C191.997341,147.59801 191.710938,148.294214 191.60125,149.19 L196.555469,149.19 L196.555469,149.062031 C196.506719,148.202808 196.275158,147.537073 195.860781,147.064805 C195.446404,146.592537 194.885785,146.356406 194.178906,146.356406 Z M201.034375,155.04 L201.034375,146.456953 L199.471328,146.456953 L199.471328,145.149844 L201.034375,145.149844 L201.034375,144.135234 C201.034375,143.074917 201.317732,142.255315 201.884453,141.676406 C202.451175,141.097497 203.252495,140.808047 204.288438,140.808047 C204.678439,140.808047 205.065389,140.859843 205.449297,140.963437 L205.357891,142.334531 C205.071483,142.279687 204.766798,142.252266 204.443828,142.252266 C203.895388,142.252266 203.471876,142.412225 203.173281,142.732148 C202.874686,143.052072 202.725391,143.510622 202.725391,144.107812 L202.725391,145.149844 L204.836875,145.149844 L204.836875,146.456953 L202.725391,146.456953 L202.725391,155.04 L201.034375,155.04 Z M206.253672,150.003516 C206.253672,149.034605 206.4441,148.163207 206.824961,147.389297 C207.205822,146.615387 207.735973,146.018205 208.41543,145.597734 C209.094886,145.177264 209.870308,144.967031 210.741719,144.967031 C212.088444,144.967031 213.177691,145.433198 214.009492,146.365547 C214.841293,147.297895 215.257188,148.537961 215.257188,150.085781 L215.257188,150.204609 C215.257188,151.167427 215.072853,152.031207 214.70418,152.795977 C214.335506,153.560746 213.808402,154.156404 213.122852,154.582969 C212.437301,155.009533 211.649692,155.222812 210.76,155.222812 C209.419368,155.222812 208.333168,154.756645 207.501367,153.824297 C206.669566,152.891948 206.253672,151.657976 206.253672,150.122344 L206.253672,150.003516 Z M207.953828,150.204609 C207.953828,151.30149 208.20824,152.182028 208.71707,152.84625 C209.225901,153.510472 209.906871,153.842578 210.76,153.842578 C211.619223,153.842578 212.301716,153.505902 212.8075,152.832539 C213.313284,152.159176 213.566172,151.216178 213.566172,150.003516 C213.566172,148.918823 213.308714,148.039808 212.793789,147.366445 C212.278865,146.693083 211.594848,146.356406 210.741719,146.356406 C209.906871,146.356406 209.233518,146.688512 208.721641,147.352734 C208.209763,148.016956 207.953828,148.967572 207.953828,150.204609 Z M222.158359,146.667187 C221.902421,146.624531 221.625158,146.603203 221.326563,146.603203 C220.217494,146.603203 219.464924,147.075464 219.068828,148.02 L219.068828,155.04 L217.377813,155.04 L217.377813,145.149844 L219.023125,145.149844 L219.050547,146.292422 C219.605081,145.408824 220.391167,144.967031 221.408828,144.967031 C221.737892,144.967031 221.987734,145.009687 222.158359,145.095 L222.158359,146.667187 Z M225.302734,145.149844 L225.348438,146.246719 C226.073597,145.393589 227.051634,144.967031 228.282578,144.967031 C229.665866,144.967031 230.607341,145.497182 231.107031,146.5575 C231.436095,146.082185 231.864177,145.698283 232.391289,145.405781 C232.918401,145.11328 233.541481,144.967031 234.260547,144.967031 C236.429933,144.967031 237.53289,146.115692 237.569453,148.413047 L237.569453,155.04 L235.878438,155.04 L235.878438,148.513594 C235.878438,147.806715 235.716955,147.278088 235.393984,146.927695 C235.071014,146.577303 234.528676,146.402109 233.766953,146.402109 C233.139294,146.402109 232.618283,146.58949 232.203906,146.964258 C231.789529,147.339025 231.548828,147.843278 231.481797,148.477031 L231.481797,155.04 L229.781641,155.04 L229.781641,148.559297 C229.781641,147.121165 229.07782,146.402109 227.670156,146.402109 C226.561088,146.402109 225.802424,146.87437 225.394141,147.818906 L225.394141,155.04 L223.703125,155.04 L223.703125,145.149844 L225.302734,145.149844 Z M254.388203,141.73125 L254.388203,150.780469 C254.382109,152.035788 253.987543,153.062574 253.204492,153.860859 C252.421441,154.659145 251.359616,155.107031 250.018984,155.204531 L249.552813,155.222812 C248.096399,155.222812 246.935551,154.82977 246.070234,154.043672 C245.204918,153.257574 244.766172,152.175944 244.753984,150.79875 L244.753984,141.73125 L246.490703,141.73125 L246.490703,150.743906 C246.490703,151.706724 246.755779,152.454724 247.285938,152.98793 C247.816096,153.521135 248.571714,153.787734 249.552813,153.787734 C250.546099,153.787734 251.306286,153.522659 251.833398,152.9925 C252.36051,152.462341 252.624063,151.715864 252.624063,150.753047 L252.624063,141.73125 L254.388203,141.73125 Z M262.038906,149.656172 L258.912813,149.656172 L258.912813,155.04 L257.148672,155.04 L257.148672,141.73125 L261.554453,141.73125 C263.053523,141.73125 264.206754,142.072497 265.01418,142.755 C265.821606,143.437503 266.225313,144.430775 266.225313,145.734844 C266.225313,146.563598 266.001369,147.2857 265.553477,147.901172 C265.105584,148.516644 264.482504,148.976717 263.684219,149.281406 L266.810313,154.930313 L266.810313,155.04 L264.927344,155.04 L262.038906,149.656172 Z M258.912813,148.221094 L261.609297,148.221094 C262.480707,148.221094 263.173865,147.995627 263.688789,147.544688 C264.203714,147.093748 264.461172,146.490473 264.461172,145.734844 C264.461172,144.912183 264.215901,144.281487 263.725352,143.842734 C263.234802,143.403982 262.526411,143.181563 261.600156,143.175469 L258.912813,143.175469 L258.912813,148.221094 Z M270.448281,153.604922 L276.755313,153.604922 L276.755313,155.04 L268.684141,155.04 L268.684141,141.73125 L270.448281,141.73125 L270.448281,153.604922 Z M64.4917188,165.755 L64.4917188,168.149844 L66.338125,168.149844 L66.338125,169.456953 L64.4917188,169.456953 L64.4917188,175.590312 C64.4917188,175.986408 64.5739836,176.283476 64.7385156,176.481523 C64.9030477,176.679571 65.1833574,176.778594 65.5794531,176.778594 C65.7744541,176.778594 66.0425764,176.742032 66.3838281,176.668906 L66.3838281,178.04 C65.9389822,178.161876 65.5063302,178.222812 65.0858594,178.222812 C64.3302306,178.222812 63.7604707,177.994299 63.3765625,177.537266 C62.9926543,177.080232 62.8007031,176.431254 62.8007031,175.590312 L62.8007031,169.456953 L61,169.456953 L61,168.149844 L62.8007031,168.149844 L62.8007031,165.755 L64.4917188,165.755 Z M67.6817969,173.003516 C67.6817969,172.034605 67.8722247,171.163207 68.2530859,170.389297 C68.6339472,169.615387 69.1640982,169.018205 69.8435547,168.597734 C70.5230112,168.177264 71.2984331,167.967031 72.1698437,167.967031 C73.5165692,167.967031 74.6058162,168.433198 75.4376172,169.365547 C76.2694182,170.297895 76.6853125,171.537961 76.6853125,173.085781 L76.6853125,173.204609 C76.6853125,174.167427 76.5009784,175.031207 76.1323047,175.795977 C75.763631,176.560746 75.2365269,177.156404 74.5509766,177.582969 C73.8654263,178.009533 73.0778169,178.222812 72.188125,178.222812 C70.8474933,178.222812 69.7612932,177.756645 68.9294922,176.824297 C68.0976912,175.891948 67.6817969,174.657976 67.6817969,173.122344 L67.6817969,173.003516 Z M69.3819531,173.204609 C69.3819531,174.30149 69.6363646,175.182028 70.1451953,175.84625 C70.654026,176.510472 71.3349957,176.842578 72.188125,176.842578 C73.047348,176.842578 73.7298412,176.505902 74.235625,175.832539 C74.7414088,175.159176 74.9942969,174.216178 74.9942969,173.003516 C74.9942969,171.918823 74.7368385,171.039808 74.2219141,170.366445 C73.7069896,169.693083 73.022973,169.356406 72.1698437,169.356406 C71.3349958,169.356406 70.6616432,169.688512 70.1497656,170.352734 C69.6378881,171.016956 69.3819531,171.967572 69.3819531,173.204609 Z M86.6760156,175.562891 L88.9794531,168.149844 L90.7892969,168.149844 L86.813125,179.566484 C86.1976532,181.211805 85.2196161,182.034453 83.8789844,182.034453 L83.5590625,182.007031 L82.9283594,181.888203 L82.9283594,180.517109 L83.3853906,180.553672 C83.958206,180.553672 84.4045687,180.437892 84.7244922,180.206328 C85.0444157,179.974764 85.3079677,179.551253 85.5151563,178.935781 L85.8899219,177.930312 L82.3616406,168.149844 L84.2080469,168.149844 L86.6760156,175.562891 Z M91.7125,173.003516 C91.7125,172.034605 91.9029278,171.163207 92.2837891,170.389297 C92.6646503,169.615387 93.1948013,169.018205 93.8742578,168.597734 C94.5537143,168.177264 95.3291363,167.967031 96.2005469,167.967031 C97.5472724,167.967031 98.6365193,168.433198 99.4683203,169.365547 C100.300121,170.297895 100.716016,171.537961 100.716016,173.085781 L100.716016,173.204609 C100.716016,174.167427 100.531682,175.031207 100.163008,175.795977 C99.7943341,176.560746 99.26723,177.156404 98.5816797,177.582969 C97.8961294,178.009533 97.1085201,178.222812 96.2188281,178.222812 C94.8781964,178.222812 93.7919963,177.756645 92.9601953,176.824297 C92.1283943,175.891948 91.7125,174.657976 91.7125,173.122344 L91.7125,173.003516 Z M93.4126562,173.204609 C93.4126562,174.30149 93.6670678,175.182028 94.1758984,175.84625 C94.6847291,176.510472 95.3656989,176.842578 96.2188281,176.842578 C97.0780512,176.842578 97.7605443,176.505902 98.2663281,175.832539 C98.7721119,175.159176 99.025,174.216178 99.025,173.003516 C99.025,171.918823 98.7675416,171.039808 98.2526172,170.366445 C97.7376927,169.693083 97.0536761,169.356406 96.2005469,169.356406 C95.365699,169.356406 94.6923463,169.688512 94.1804688,170.352734 C93.6685912,171.016956 93.4126562,171.967572 93.4126562,173.204609 Z M108.942578,177.061953 C108.28445,177.835863 107.3186,178.222812 106.045,178.222812 C104.990776,178.222812 104.187932,177.916605 103.636445,177.30418 C103.084958,176.691755 102.806172,175.785319 102.800078,174.584844 L102.800078,168.149844 L104.491094,168.149844 L104.491094,174.539141 C104.491094,176.038211 105.100463,176.787734 106.319219,176.787734 C107.6111,176.787734 108.47031,176.306333 108.896875,175.343516 L108.896875,168.149844 L110.587891,168.149844 L110.587891,178.04 L108.979141,178.04 L108.942578,177.061953 Z M117.936953,169.667187 C117.681014,169.624531 117.403751,169.603203 117.105156,169.603203 C115.996088,169.603203 115.243518,170.075464 114.847422,171.02 L114.847422,178.04 L113.156406,178.04 L113.156406,168.149844 L114.801719,168.149844 L114.829141,169.292422 C115.383675,168.408824 116.169761,167.967031 117.187422,167.967031 C117.516486,167.967031 117.766327,168.009687 117.936953,168.095 L117.936953,169.667187 Z M129.88375,175.416641 C129.88375,174.959607 129.711603,174.60465 129.367305,174.351758 C129.023006,174.098866 128.422778,173.881017 127.566602,173.698203 C126.710425,173.51539 126.030979,173.296017 125.528242,173.040078 C125.025505,172.784139 124.65379,172.479455 124.413086,172.126016 C124.172382,171.772576 124.052031,171.352112 124.052031,170.864609 C124.052031,170.054137 124.394801,169.368597 125.080352,168.807969 C125.765902,168.247341 126.64187,167.967031 127.708281,167.967031 C128.829537,167.967031 129.73902,168.256481 130.436758,168.835391 C131.134496,169.4143 131.483359,170.154683 131.483359,171.056562 L129.783203,171.056562 C129.783203,170.593435 129.586682,170.194299 129.193633,169.859141 C128.800584,169.523983 128.305472,169.356406 127.708281,169.356406 C127.092809,169.356406 126.611408,169.490467 126.264063,169.758594 C125.916717,170.02672 125.743047,170.377107 125.743047,170.809766 C125.743047,171.218049 125.90453,171.52578 126.2275,171.732969 C126.55047,171.940157 127.133941,172.138202 127.97793,172.327109 C128.821918,172.516017 129.505935,172.741483 130.03,173.003516 C130.554065,173.265548 130.942538,173.580897 131.19543,173.94957 C131.448322,174.318244 131.574766,174.767654 131.574766,175.297812 C131.574766,176.181411 131.221332,176.889802 130.514453,177.423008 C129.807575,177.956214 128.890474,178.222812 127.763125,178.222812 C126.970934,178.222812 126.270159,178.082658 125.660781,177.802344 C125.051403,177.52203 124.574572,177.13051 124.230273,176.627773 C123.885975,176.125037 123.713828,175.581175 123.713828,174.996172 L125.404844,174.996172 C125.435313,175.562893 125.662303,176.012303 126.08582,176.344414 C126.509338,176.676525 127.068434,176.842578 127.763125,176.842578 C128.402972,176.842578 128.916365,176.713087 129.30332,176.454102 C129.690275,176.195116 129.88375,175.849299 129.88375,175.416641 Z M135.614922,178.04 L133.923906,178.04 L133.923906,164 L135.614922,164 L135.614922,178.04 Z M140.157813,178.04 L138.466797,178.04 L138.466797,168.149844 L140.157813,168.149844 L140.157813,178.04 Z M138.329688,165.526484 C138.329688,165.252264 138.413476,165.020704 138.581055,164.831797 C138.748634,164.64289 138.996951,164.548437 139.326016,164.548437 C139.65508,164.548437 139.904921,164.64289 140.075547,164.831797 C140.246173,165.020704 140.331484,165.252264 140.331484,165.526484 C140.331484,165.800704 140.246173,166.029218 140.075547,166.212031 C139.904921,166.394845 139.65508,166.48625 139.326016,166.48625 C138.996951,166.48625 138.748634,166.394845 138.581055,166.212031 C138.413476,166.029218 138.329688,165.800704 138.329688,165.526484 Z M142.452109,173.012656 C142.452109,171.495305 142.811637,170.275044 143.530703,169.351836 C144.249769,168.428628 145.191244,167.967031 146.355156,167.967031 C147.512975,167.967031 148.430075,168.363121 149.106484,169.155312 L149.106484,164 L150.7975,164 L150.7975,178.04 L149.243594,178.04 L149.161328,176.979687 C148.484918,177.808442 147.543444,178.222812 146.336875,178.222812 C145.191244,178.222812 144.257386,177.753598 143.535273,176.815156 C142.81316,175.876714 142.452109,174.651883 142.452109,173.140625 L142.452109,173.012656 Z M144.143125,173.204609 C144.143125,174.325865 144.374685,175.203356 144.837813,175.837109 C145.30094,176.470863 145.940777,176.787734 146.757344,176.787734 C147.829849,176.787734 148.612888,176.306333 149.106484,175.343516 L149.106484,170.800625 C148.600701,169.868277 147.823755,169.402109 146.775625,169.402109 C145.946871,169.402109 145.30094,169.722028 144.837813,170.361875 C144.374685,171.001722 144.143125,171.949291 144.143125,173.204609 Z M157.525,178.222812 C156.184368,178.222812 155.093598,177.782543 154.252656,176.901992 C153.411715,176.021441 152.99125,174.843835 152.99125,173.369141 L152.99125,173.058359 C152.99125,172.077261 153.178631,171.201293 153.553398,170.43043 C153.928166,169.659566 154.452223,169.056291 155.125586,168.620586 C155.798949,168.184881 156.528668,167.967031 157.314766,167.967031 C158.600553,167.967031 159.599918,168.390543 160.312891,169.237578 C161.025863,170.084614 161.382344,171.297258 161.382344,172.875547 L161.382344,173.579375 L154.682266,173.579375 C154.706641,174.55438 154.991521,175.341989 155.536914,175.942227 C156.082307,176.542464 156.775465,176.842578 157.616406,176.842578 C158.213597,176.842578 158.719373,176.720704 159.13375,176.476953 C159.548127,176.233202 159.910702,175.910236 160.221484,175.508047 L161.254375,176.312422 C160.425621,177.586022 159.182508,178.222812 157.525,178.222812 Z M157.314766,169.356406 C156.632262,169.356406 156.059455,169.604724 155.596328,170.101367 C155.133201,170.59801 154.846797,171.294214 154.737109,172.19 L159.691328,172.19 L159.691328,172.062031 C159.642578,171.202808 159.411018,170.537073 158.996641,170.064805 C158.582264,169.592537 158.021644,169.356406 157.314766,169.356406 Z M163.375,177.153359 C163.375,176.860858 163.461835,176.61711 163.635508,176.422109 C163.809181,176.227108 164.069686,176.129609 164.417031,176.129609 C164.764377,176.129609 165.027929,176.227108 165.207695,176.422109 C165.387462,176.61711 165.477344,176.860858 165.477344,177.153359 C165.477344,177.433673 165.387462,177.66828 165.207695,177.857188 C165.027929,178.046095 164.764377,178.140547 164.417031,178.140547 C164.069686,178.140547 163.809181,178.046095 163.635508,177.857188 C163.461835,177.66828 163.375,177.433673 163.375,177.153359 Z" id="Install-the-onstage" fill="#FFFFFF"></path>
                <path d="M52.3578125,69.5933594 L21.096875,69.5933594 L21.096875,66.4398438 L38.2012695,47.0388672 C41.0348774,43.7710774 43.0000922,41.07462 44.0969727,38.9494141 C45.1938531,36.8242081 45.7422852,34.7561624 45.7422852,32.7452148 C45.7422852,29.5916835 44.8168061,27.0951752 42.9658203,25.2556152 C41.1148345,23.4160553 38.5669108,22.4962891 35.3219727,22.4962891 C31.9627762,22.4962891 29.2491803,23.5703018 27.1811035,25.7183594 C25.1130268,27.866417 24.0790039,30.6542797 24.0790039,34.0820312 L20,34.0820312 C20,31.271275 20.6341245,28.7119256 21.9023926,26.4039062 C23.1706606,24.0958869 24.975916,22.2849187 27.3182129,20.9709473 C29.6605098,19.6569759 32.328403,19 35.3219727,19 C39.892308,19 43.4628289,20.199695 46.0336426,22.5991211 C48.6044562,24.9985472 49.8898438,28.2662879 49.8898438,32.4024414 C49.8898438,34.7333124 49.1643139,37.2812362 47.7132324,40.0462891 C46.2621509,42.811342 43.7085144,46.2618934 40.0522461,50.3980469 L26.1356445,66.1313477 L52.3578125,66.1313477 L52.3578125,69.5933594 Z" id="2" fill="#FFFFFF"></path>
            </g>
        </g>
    </g>
</svg>